<svg xmlns="http://www.w3.org/2000/svg" viewBox="0 0 19.936 19.936" style="enable-background:new 0 0 19.936 19.936" xml:space="preserve"><path d="M19.922 5.73c.07-.156-.156-.312-.156-.312.099-.271-.027-.727-.186-.783-.155-.056-.397.114-.54.271-.143.154-.143.524-.143.524s-.157.129-.298.27c-.145.144-.216.512-.216.512s-.227.129-.668.286c-.439.157-1.28 0-1.28 0s-.54-.696-.812-.939c-.27-.243-.512-.342-.567-.512-.059-.17-.299-.241-.441-.285a2.333 2.333 0 0 1-.513-.228c-.156-.099-.625.058-.812-.014-.185-.071-.44.186-.44.186l-.442-.256-.027-.525c.17-.044.198-.243.198-.357 0-.114.058-.469.102-.811.043-.341-.102-.37-.102-.37l.086-.157-.1-.384s.056-.115.069-.256c.016-.143-.198-.284-.554-.455-.356-.17-1.495-.128-1.72.596-.229.726.241 1.438.284 1.523s.211.199.227.371c.016.171.103.739-.056.825-.156.085-.412-.157-.824-.17a.703.703 0 0 0-.613.327s-.654.084-.767.126c-.116.044-.03.171-.03.171s-.755.128-.911.156c-.156.03-.214.157-.214.157s-.24.015-.739.114c-.497.1-.84.242-1.381.185-.541-.056-2.134.4-2.787.513-.655.112-.97.284-1.226.541-.254.255-.853.739-1.022 1.039-.173.297-.356.738-.286.768.07.028.355-.456.355-.456s.014.157.059.286c.041.127.184.425.282.413.1-.015.072-.228.072-.228s.085-.016.085-.087-.042-.142-.126-.2c-.087-.056-.016-.34-.016-.34s.111.228.228.271c.114.043.228.086.285 0 .057-.086-.1-.1-.2-.143-.098-.043-.085-.215-.055-.314.028-.1.14-.199.283-.157.143.044.113.229.1.484-.014.256.029.271.114.3.086.028.069-.171.098-.327.03-.158.13-.355.23-.498.099-.142.069-.498.185-.569.114-.072.853-.072 1.578-.044.725.029 1.637-.042 1.637-.042s.014 5.122 0 5.393c-.016.271-.101.414-.101.414s-.2.198-.171.497c.028.298.299.37.299.37l.015.299s-.256.127-.285.567c-.028.441.271.586.271.586s.128.1.199.625c.071.525-.085 1.153-.085 1.153s-.199.043-.342.084c-.142.043-.185.17-.227.313-.03.099-.225.413-.349.606H3.082v1.25h16.045v-1.25H16.44l-.006-.01a.784.784 0 0 1-.115-.582c.044-.271.271-.555.271-.756 0-.14-.049-.354-.155-.529l2.389-7.482s.541.257.74.186c.199-.07.256-.271.128-.455-.128-.186-.412-.1-.412-.1s-.015-.099-.085-.17c-.071-.071-.299-.157-.299-.157l.185-.583s.114-.014.229-.071c.113-.058.312-.113.469-.397.157-.286 0-.598 0-.598s.072-.043.143-.199zM6.62 10.579s-.333-.646-.43-1.174c-.096-.53.019-1.274.019-1.274h.646s-.079.823.021 1.352c.098.53.489 1.098.489 1.098H6.62v-.002zm7.782-5.489c.654.143 1.081.499 1.081.499s-.386-.128-.982-.184c-.598-.058-1.906.099-1.906.099s1.151-.557 1.807-.414zm-3.031.839s.625.128 1.037.113c.414-.014 1.013-.1 1.965-.256.952-.156 1.324.129 1.367.143.042.013-.484.028-1.054.141-.569.114-1.225.457-1.992.67-.769.212-1.523-.541-1.523-.541.528.127.897.042.897.042l-.697-.312zM10.076 4.55s-.101.455.112.953c.215.498.869.938.869.938s-1.181-.47-1.337-1.037c-.157-.569.299-.854.356-.854zm.018 13.083H8.341a1.13 1.13 0 0 0 .027-.42c-.043-.256-.201-.414-.37-.442-.172-.027-.229-.101-.398-.726s.342-1.066.483-1.422c.144-.357.059-1.14.059-1.14h.396s-.1.214-.084.483c.016.271.187.414.187.414s-.017.142.084.326c.1.186.384.258.384.258l-.042-.541s.029.242.215.568c.184.328.412.655.667 1.109.256.457.129 1.253.143 1.468 0 .024 0 .045.002.065zm2.784-2.697a3.116 3.116 0 0 1-.427 1.209c-.186.326-.438.767-.54.939-.086-.123-.187-.234-.242-.328-.101-.17-.527-.98-.597-1.309-.072-.328-.087-.456.013-.812.101-.354.015-.795.015-.795l.413.084c.213.043.326-.057.641-.014.312.043.869-.07.869-.07-.145.342-.06.527-.145 1.096zm1.438 2.475a.8.8 0 0 1-.101.114c-.058-.05-.118-.099-.156-.142-.101-.115-.484-.5-.398-.854.085-.354.669-1.11.669-1.11s-.086.981-.086 1.238c0 .256.099.698.072.754zm-.547-7.888c-.45.292-.705.958-1.646 1.232-.938.274-1.799-.647-2.308-.941-.51-.292-1.099.275-1.099.275.628-.628.809-.665 1.411-.333.636.352.71.617 1.537.749.634.104 1.068-.726 1.812-1.156.745-.431 1.546-.103 1.546-.103s-.801-.02-1.253.277zm1.741-2.485c-.07.299-.07 1.95-.07 1.95l-.47-.114s.015-1.693.242-2.078c.228-.384.882-.269.882-.269s-.512.213-.584.511zm1.027 5.654c.008-.346.021-.787.026-1.201.015-.854-.17-3.571-.17-3.571s.341-.07.497-.127c.157-.056.469-.157.469-.157s.073.086.215.157.483.214.483.214l-1.52 4.685z"/></svg>