<?xml version="1.0" encoding="iso-8859-1"?>
<!-- Generator: Adobe Illustrator 18.1.1, SVG Export Plug-In . SVG Version: 6.00 Build 0)  -->
<svg version="1.1" id="Capa_1" xmlns="http://www.w3.org/2000/svg" xmlns:xlink="http://www.w3.org/1999/xlink" x="0px" y="0px"
	 viewBox="0 0 19.936 19.936" style="enable-background:new 0 0 19.936 19.936;" xml:space="preserve">
<g>
	<path d="M19.922,5.73c0.07-0.156-0.156-0.312-0.156-0.312c0.099-0.271-0.027-0.727-0.186-0.783
		c-0.155-0.056-0.397,0.114-0.54,0.271C18.897,5.06,18.897,5.43,18.897,5.43S18.74,5.559,18.599,5.7
		c-0.145,0.144-0.216,0.512-0.216,0.512s-0.227,0.129-0.668,0.286c-0.439,0.157-1.28,0-1.28,0s-0.54-0.696-0.812-0.939
		c-0.27-0.243-0.512-0.342-0.567-0.512c-0.059-0.17-0.299-0.241-0.441-0.285c-0.142-0.044-0.356-0.128-0.513-0.228
		c-0.156-0.099-0.625,0.058-0.812-0.014c-0.185-0.071-0.44,0.186-0.44,0.186L12.408,4.45l-0.027-0.525
		c0.17-0.044,0.198-0.243,0.198-0.357c0-0.114,0.058-0.469,0.102-0.811c0.043-0.341-0.102-0.37-0.102-0.37l0.086-0.157l-0.1-0.384
		c0,0,0.056-0.115,0.069-0.256c0.016-0.143-0.198-0.284-0.554-0.455c-0.356-0.17-1.495-0.128-1.72,0.596
		c-0.229,0.726,0.241,1.438,0.284,1.523s0.211,0.199,0.227,0.371c0.016,0.171,0.103,0.739-0.056,0.825
		c-0.156,0.085-0.412-0.157-0.824-0.17C9.576,4.263,9.378,4.607,9.378,4.607S8.724,4.691,8.611,4.733
		c-0.116,0.044-0.03,0.171-0.03,0.171S7.826,5.032,7.67,5.06C7.514,5.09,7.456,5.217,7.456,5.217s-0.24,0.015-0.739,0.114
		c-0.497,0.1-0.84,0.242-1.381,0.185c-0.541-0.056-2.134,0.4-2.787,0.513C1.894,6.141,1.579,6.313,1.323,6.57
		C1.069,6.825,0.47,7.309,0.301,7.609C0.128,7.906-0.055,8.347,0.015,8.377C0.085,8.405,0.37,7.921,0.37,7.921
		s0.014,0.157,0.059,0.286C0.47,8.334,0.613,8.632,0.711,8.62c0.1-0.015,0.072-0.228,0.072-0.228s0.085-0.016,0.085-0.087
		s-0.042-0.142-0.126-0.2c-0.087-0.056-0.016-0.34-0.016-0.34s0.111,0.228,0.228,0.271c0.114,0.043,0.228,0.086,0.285,0
		c0.057-0.086-0.1-0.1-0.2-0.143C0.941,7.85,0.954,7.678,0.984,7.579c0.028-0.1,0.14-0.199,0.283-0.157
		c0.143,0.044,0.113,0.229,0.1,0.484c-0.014,0.256,0.029,0.271,0.114,0.3C1.567,8.234,1.55,8.035,1.579,7.879
		c0.03-0.158,0.13-0.355,0.23-0.498c0.099-0.142,0.069-0.498,0.185-0.569C2.108,6.74,2.847,6.74,3.572,6.768
		c0.725,0.029,1.637-0.042,1.637-0.042s0.014,5.122,0,5.393c-0.016,0.271-0.101,0.414-0.101,0.414s-0.2,0.198-0.171,0.497
		c0.028,0.298,0.299,0.37,0.299,0.37l0.015,0.299c0,0-0.256,0.127-0.285,0.567c-0.028,0.441,0.271,0.586,0.271,0.586
		s0.128,0.1,0.199,0.625c0.071,0.525-0.085,1.153-0.085,1.153s-0.199,0.043-0.342,0.084c-0.142,0.043-0.185,0.17-0.227,0.313
		c-0.03,0.099-0.225,0.413-0.349,0.606H3.082v1.25h16.045v-1.25H16.44c-0.002-0.002-0.004-0.006-0.006-0.01
		c-0.086-0.127-0.156-0.312-0.115-0.582c0.044-0.271,0.271-0.555,0.271-0.756c0-0.14-0.049-0.354-0.155-0.529l2.389-7.482
		c0,0,0.541,0.257,0.74,0.186c0.199-0.07,0.256-0.271,0.128-0.455c-0.128-0.186-0.412-0.1-0.412-0.1s-0.015-0.099-0.085-0.17
		c-0.071-0.071-0.299-0.157-0.299-0.157l0.185-0.583c0,0,0.114-0.014,0.229-0.071c0.113-0.058,0.312-0.113,0.469-0.397
		c0.157-0.286,0-0.598,0-0.598S19.851,5.886,19.922,5.73z M6.62,10.579c0,0-0.333-0.646-0.43-1.174
		c-0.096-0.53,0.019-1.274,0.019-1.274h0.646c0,0-0.079,0.823,0.021,1.352c0.098,0.53,0.489,1.098,0.489,1.098H6.62V10.579z
		 M14.402,5.09c0.654,0.143,1.081,0.499,1.081,0.499s-0.386-0.128-0.982-0.184c-0.598-0.058-1.906,0.099-1.906,0.099
		S13.746,4.947,14.402,5.09z M11.371,5.929c0,0,0.625,0.128,1.037,0.113c0.414-0.014,1.013-0.1,1.965-0.256
		c0.952-0.156,1.324,0.129,1.367,0.143c0.042,0.013-0.484,0.028-1.054,0.141c-0.569,0.114-1.225,0.457-1.992,0.67
		c-0.769,0.212-1.523-0.541-1.523-0.541c0.528,0.127,0.897,0.042,0.897,0.042L11.371,5.929z M10.076,4.55
		c0,0-0.101,0.455,0.112,0.953c0.215,0.498,0.869,0.938,0.869,0.938S9.876,5.971,9.72,5.404C9.563,4.835,10.019,4.55,10.076,4.55z
		 M10.094,17.633H8.341c0.023-0.101,0.053-0.266,0.027-0.42c-0.043-0.256-0.201-0.414-0.37-0.442
		C7.826,16.744,7.769,16.67,7.6,16.045c-0.169-0.625,0.342-1.066,0.483-1.422c0.144-0.357,0.059-1.14,0.059-1.14h0.396
		c0,0-0.1,0.214-0.084,0.483c0.016,0.271,0.187,0.414,0.187,0.414s-0.017,0.142,0.084,0.326c0.1,0.186,0.384,0.258,0.384,0.258
		l-0.042-0.541c0,0,0.029,0.242,0.215,0.568c0.184,0.328,0.412,0.655,0.667,1.109c0.256,0.457,0.129,1.253,0.143,1.468
		C10.092,17.592,10.092,17.613,10.094,17.633z M12.878,14.936c-0.085,0.568-0.241,0.882-0.427,1.209
		c-0.186,0.326-0.438,0.767-0.54,0.939c-0.086-0.123-0.187-0.234-0.242-0.328c-0.101-0.17-0.527-0.98-0.597-1.309
		c-0.072-0.328-0.087-0.456,0.013-0.812c0.101-0.354,0.015-0.795,0.015-0.795s0.199,0.041,0.413,0.084
		c0.213,0.043,0.326-0.057,0.641-0.014c0.312,0.043,0.869-0.07,0.869-0.07C12.878,14.182,12.963,14.367,12.878,14.936z
		 M14.316,17.411c-0.01,0.018-0.048,0.061-0.101,0.114c-0.058-0.05-0.118-0.099-0.156-0.142c-0.101-0.115-0.484-0.5-0.398-0.854
		c0.085-0.354,0.669-1.11,0.669-1.11s-0.086,0.981-0.086,1.238C14.244,16.913,14.343,17.355,14.316,17.411z M13.769,9.523
		c-0.45,0.292-0.705,0.958-1.646,1.232c-0.938,0.274-1.799-0.647-2.308-0.941c-0.51-0.292-1.099,0.275-1.099,0.275
		c0.628-0.628,0.809-0.665,1.411-0.333c0.636,0.352,0.71,0.617,1.537,0.749c0.634,0.104,1.068-0.726,1.812-1.156
		c0.745-0.431,1.546-0.103,1.546-0.103S14.221,9.226,13.769,9.523z M15.51,7.038c-0.07,0.299-0.07,1.95-0.07,1.95l-0.47-0.114
		c0,0,0.015-1.693,0.242-2.078c0.228-0.384,0.882-0.269,0.882-0.269S15.582,6.74,15.51,7.038z M16.537,12.692
		c0.008-0.346,0.021-0.787,0.026-1.201c0.015-0.854-0.17-3.571-0.17-3.571s0.341-0.07,0.497-0.127
		c0.157-0.056,0.469-0.157,0.469-0.157s0.073,0.086,0.215,0.157s0.483,0.214,0.483,0.214L16.537,12.692z"/>
</g>
<g>
</g>
<g>
</g>
<g>
</g>
<g>
</g>
<g>
</g>
<g>
</g>
<g>
</g>
<g>
</g>
<g>
</g>
<g>
</g>
<g>
</g>
<g>
</g>
<g>
</g>
<g>
</g>
<g>
</g>
</svg>
