<svg height="409.6pt" viewBox="0 0 409.6 409.6" width="409.6pt" xmlns="http://www.w3.org/2000/svg"><path d="m409.601562 341.335938c0 37.699218-30.566406 68.265624-68.265624 68.265624-37.703126 0-68.265626-30.566406-68.265626-68.265624 0-37.703126 30.5625-68.265626 68.265626-68.265626 37.699218 0 68.265624 30.5625 68.265624 68.265626zm0 0"/><path d="m324.269531 179.199219c0 32.992187-26.742187 59.734375-59.734375 59.734375-32.992187 0-59.734375-26.742188-59.734375-59.734375 0-32.988281 26.742188-59.734375 59.734375-59.734375 32.992188 0 59.734375 26.746094 59.734375 59.734375zm0 0"/><path d="m204.800781 307.199219c0 56.554687-45.847656 102.402343-102.402343 102.402343-56.550782 0-102.398438-45.847656-102.398438-102.402343 0-56.554688 45.847656-102.398438 102.398438-102.398438 56.554687 0 102.402343 45.84375 102.402343 102.398438zm0 0"/><path d="m170.671875 85.335938c0 47.128906-38.207031 85.335937-85.335937 85.335937-47.128907 0-85.335938-38.207031-85.335938-85.335937 0-47.128907 38.207031-85.335938 85.335938-85.335938 47.128906 0 85.335937 38.207031 85.335937 85.335938zm0 0"/><path d="m409.601562 51.199219c0 28.277343-22.925781 51.199219-51.203124 51.199219-28.277344 0-51.199219-22.921876-51.199219-51.199219 0-28.277344 22.921875-51.199219 51.199219-51.199219 28.277343 0 51.203124 22.921875 51.203124 51.199219zm0 0"/><path d="m392.53125 221.863281c0 9.425781-7.640625 17.066407-17.066406 17.066407-9.425782 0-17.066406-7.640626-17.066406-17.066407 0-9.421875 7.640624-17.0625 17.066406-17.0625 9.425781 0 17.066406 7.640625 17.066406 17.0625zm0 0"/><path d="m264.535156 59.734375c0 14.140625-11.460937 25.601563-25.601562 25.601563-14.136719 0-25.597656-11.460938-25.597656-25.601563 0-14.136719 11.460937-25.597656 25.597656-25.597656 14.140625 0 25.601562 11.460937 25.601562 25.597656zm0 0"/></svg>