<svg id="Image" height="512" viewBox="0 0 64 64" width="512" xmlns="http://www.w3.org/2000/svg"><path d="m56.53 9.152-8-5c-.296-.185-.666-.202-.978-.046l-40 20c-.338.169-.552.515-.552.894v9c0 .345.178.665.47.848l40 25c.301.187.67.2.977.047l8-4c.339-.17.553-.516.553-.895v-45c0-.345-.178-.665-.47-.848zm-1.53 36.23-6 3v-6.764l6-3zm-14-16.577 6 3.75v6.641l-6-3.75zm-2 5.391-4.958-3.099 4.958-2.479zm3.042-7.099 4.958-2.479v5.578zm-9.042 2.285v-6.764l6-3v6.764zm-2-.186-4.958-3.099 4.958-2.479zm-1.042 1.707-5.903 2.952-6.012-3.758 5.903-2.952zm1.987 1.242 6.012 3.758-5.903 2.952-6.012-3.758zm7.055 5.473v5.578l-4.958-3.099zm2 .187 6 3.75v6.641l-6-3.75zm6-15.423-6 3v-6.764l6-3zm-6.945-5.527-6.012-3.758 5.903-2.952 6.013 3.758zm-2.097 1.048-5.903 2.951-6.012-3.758 5.903-2.952zm-8 4-5.903 2.952-6.012-3.758 5.903-2.952zm-8 4-5.903 2.951-6.012-3.758 5.903-2.952zm1.042 9.652v6.641l-6-3.75v-6.641zm2 1.25 6 3.75v6.641l-6-3.75zm8 5 6 3.75v6.641l-6-3.75zm8 5 6 3.75v6.641l-6-3.75zm14-10.423-6 3v-6.764l6-3zm0-9-6 3v-6.764l6-3zm0-9-6 3v-6.764l6-3zm-7.055-12.237 6.013 3.758-5.903 2.952-6.013-3.758zm-38.945 20.66 6 3.75v6.641l-6-3.75zm40 30.577v-6.764l6-3v6.764z"/></svg>