<svg height="409.6pt" viewBox="0 0 409.6 409.6" width="409.6pt" xmlns="http://www.w3.org/2000/svg"><path d="m204.800781 68.265625c-75.40625 0-136.535156 61.132813-136.535156 136.535156 0 75.402344 61.128906 136.535157 136.535156 136.535157 75.402344 0 136.535157-61.132813 136.535157-136.535157 0-75.402343-61.132813-136.535156-136.535157-136.535156zm0 238.933594c-56.554687 0-102.402343-45.847657-102.402343-102.398438 0-56.566406 45.847656-102.402343 102.402343-102.402343 56.550781 0 102.398438 45.835937 102.398438 102.402343 0 56.550781-45.847657 102.398438-102.398438 102.398438zm0 0"/><path d="m273.066406 204.800781c0 37.699219-30.566406 68.265625-68.265625 68.265625-37.703125 0-68.265625-30.566406-68.265625-68.265625 0-37.703125 30.5625-68.265625 68.265625-68.265625 37.699219 0 68.265625 30.5625 68.265625 68.265625zm0 0"/><path d="m409.601562 0h-204.800781c-71.265625 0-133.976562 36.449219-170.660156 91.667969v-91.667969h-34.140625v204.800781c0 71.265625 36.449219 133.984375 91.683594 170.664063h-91.683594v34.136718h204.800781c71.265625 0 133.984375-36.449218 170.664063-91.683593v91.683593h34.136718v-204.800781c0-71.265625-36.449218-133.980469-91.683593-170.664062h91.683593zm-34.136718 204.800781c0 94.25-76.414063 170.664063-170.664063 170.664063-94.261719 0-170.664062-76.414063-170.664062-170.664063h.007812v-.167969c.085938-94.183593 76.457031-170.496093 170.65625-170.496093 94.25 0 170.664063 76.394531 170.664063 170.664062zm0 0"/></svg>