<svg viewBox="1 1 511.99998 511.99998" xmlns="http://www.w3.org/2000/svg"><path d="m512 256c0 141.386719-114.613281 256-256 256-49.613281 0-95.910156-14.105469-135.136719-38.535156-24.1875-15.058594-45.683593-34.042969-63.582031-56.058594-35.820312-44.042969-57.28125-100.21875-57.28125-161.40625 0-4.453125.113281-8.871094.34375-13.269531 1.890625-37.011719 11.640625-71.953125 27.605469-103.175781 8.246093-16.101563 18.140625-31.21875 29.476562-45.128907 46.9375-57.625 118.453125-94.425781 198.574219-94.425781 29.464844 0 57.761719 4.972656 84.105469 14.136719 100.066406 34.796875 171.894531 129.945312 171.894531 241.863281zm0 0" fill="#e6e6e6"/><path d="m512 256c0 23.898438-3.269531 47.019531-9.402344 68.964844-22.625 81.101562-84.1875 145.960937-163.277344 173.167968-26.121093 8.988282-54.148437 13.867188-83.320312 13.867188-49.613281 0-95.910156-14.105469-135.136719-38.535156-35.484375-117.960938 204.757813-191.375 165.042969-245.28125-43.886719-59.558594-172.410156 17.230468-183.382812-70.53125-9.066407-72.578125 143.664062-117.289063 237.582031-143.515625 24.910156 8.664062 48.0625 21.066406 68.804687 36.53125 40.742188 30.394531 72.140625 72.621093 89.078125 121.605469 1.285157 3.699218 2.488281 7.4375 3.59375 11.222656.011719.019531.011719.03125.011719.050781 1.160156 3.90625 2.226562 7.859375 3.1875 11.839844 4.722656 19.433593 7.21875 39.734375 7.21875 60.613281zm0 0" fill="#49aab7"/><path d="m497.988281 172.273438c-29.109375-55.246094-206.597656-8.988282-206.597656-45.183594 0-32.632813 52.640625-62.441406 117.519531-76.421875 5.964844 4.449219 11.722656 9.152343 17.273438 14.085937 17.8125 15.871094 33.394531 34.175782 46.214844 54.417969 10.460937 16.519531 19.089843 34.3125 25.589843 53.101563zm0 0" fill="#f7d65e"/><path d="m472.398438 119.171875c-39.171876.28125-71.304688-.1875-71.304688-15.589844 0-13.773437 9.375-27.042969 25.089844-38.828125 17.8125 15.871094 33.394531 34.175782 46.214844 54.417969zm0 0" fill="#ed5972"/><path d="m502.597656 324.964844c-7.273437 26.078125-18.570312 50.46875-33.1875 72.472656-22.496094 33.886719-52.851562 62.109375-88.472656 82.054688-13.195312 7.386718-27.113281 13.648437-41.617188 18.640624-47.144531 0-117.675781-113.222656 34.34375-127.328124 60.167969-5.582032 101.253907-24.734376 128.933594-45.839844zm0 0" fill="#ea7e5a"/><path d="m469.410156 397.4375c-22.496094 33.886719-52.851562 62.109375-88.472656 82.054688-12.839844-33.246094 1.128906-73.957032 88.335938-82.042969.042968 0 .09375-.011719.136718-.011719zm0 0" fill="#e6e6e6"/><path d="m155.691406 464.566406c-7.664062-28.5625 9.75-89.164062 77.320313-121.90625 67.570312-32.742187-19.503907 24.378906-32.042969 55.03125-12.539062 30.648438-11.144531 78.367188-26.121094 78.367188-14.976562 0-19.15625-11.492188-19.15625-11.492188zm0 0" fill="#ed5972"/><path d="m57.28125 417.40625c-10.269531-12.632812-19.363281-26.269531-27.105469-40.730469-13.476562-25.152343-22.863281-52.808593-27.28125-82.097656-1.914062-12.582031-2.894531-25.464844-2.894531-38.578125 0-4.453125.113281-8.871094.34375-13.269531 35.964844 18.140625 110.089844-3.105469 124 38.628906 16.726562 50.195313-46.027344 94-67.0625 136.046875zm0 0" fill="#ed5972"/><path d="m30.175781 376.675781c-13.476562-25.152343-22.863281-52.808593-27.28125-82.097656 17.398438 3.269531 31.492188 10.019531 36.8125 25.964844 6.53125 19.59375.949219 38.210937-9.53125 56.132812zm0 0" fill="#f7d65e"/><path d="m172.40625 237.472656c-20.503906-10.699218 75.238281-3.898437 79.414062 7.316406 4.175782 11.210938-54.855468 67.394532-67.917968 54.332032-13.0625-13.058594 36.570312-36.570313-11.496094-61.648438zm0 0" fill="#f7d65e"/><path d="m27.949219 139.554688c8.246093-16.101563 18.140625-31.21875 29.476562-45.128907-1.703125 24.429688 3 50.304688 8.402344 74.085938 5.757813 25.335937-16.582031-.511719-37.878906-28.957031zm0 0" fill="#ea7e5a"/><path d="m360.488281 193.589844c-22.164062-22.167969 102.402344 12.539062 91.953125 60.601562-10.449218 48.066406-100.3125 64.785156-100.3125 37.617188 0-27.167969 56.425782-50.15625 8.359375-98.21875zm0 0" fill="#ed5972"/></svg>