<svg xmlns="http://www.w3.org/2000/svg" width="512" height="512" viewBox="0 0 24 24" style="enable-background:new 0 0 512 512" xml:space="preserve"><g fill="#fff"><path xmlns="http://www.w3.org/2000/svg" d="M12.004 5.838a6.157 6.157 0 0 0-6.158 6.158 6.157 6.157 0 0 0 6.158 6.158 6.157 6.157 0 0 0 6.158-6.158 6.157 6.157 0 0 0-6.158-6.158zm0 10.155a3.996 3.996 0 1 1 3.997-3.997 3.995 3.995 0 0 1-3.997 3.997z" data-original="#000000"/><path xmlns="http://www.w3.org/2000/svg" d="M16.948.076c-2.208-.103-7.677-.098-9.887 0-1.942.091-3.655.56-5.036 1.941C-.283 4.325.012 7.435.012 11.996c0 4.668-.26 7.706 2.013 9.979 2.317 2.316 5.472 2.013 9.979 2.013 4.624 0 6.22.003 7.855-.63 2.223-.863 3.901-2.85 4.065-6.419.104-2.209.098-7.677 0-9.887-.198-4.213-2.459-6.768-6.976-6.976zm3.495 20.372c-1.513 1.513-3.612 1.378-8.468 1.378-5 0-7.005.074-8.468-1.393-1.685-1.677-1.38-4.37-1.38-8.453 0-5.525-.567-9.504 4.978-9.788 1.274-.045 1.649-.06 4.856-.06l.045.03c5.329 0 9.51-.558 9.761 4.986.057 1.265.07 1.645.07 4.847-.001 4.942.093 6.959-1.394 8.453z" data-original="#000000"/><circle xmlns="http://www.w3.org/2000/svg" cx="18.406" cy="5.595" r="1.439" data-original="#000000"/></g></svg>