<svg xmlns="http://www.w3.org/2000/svg" width="512" height="512" viewBox="0 0 24 24" style="enable-background:new 0 0 512 512" xml:space="preserve"><path xmlns="http://www.w3.org/2000/svg" d="M22.085 4.733 24 2.901V2.5h-6.634l-4.728 11.768L7.259 2.5H.303v.401L2.54 5.594c.218.199.332.49.303.783V16.96c.069.381-.055.773-.323 1.05L0 21.064v.396h7.145v-.401l-2.52-3.049a1.244 1.244 0 0 1-.347-1.05V7.806l6.272 13.659h.729l5.393-13.659v10.881c0 .287 0 .346-.188.534l-1.94 1.877v.402h9.412v-.401l-1.87-1.831a.556.556 0 0 1-.214-.534V5.267a.554.554 0 0 1 .213-.534z" fill="#fff" data-original="#000000"/></svg>