<?xml version="1.0" standalone="no"?>
<!DOCTYPE svg PUBLIC "-//W3C//DTD SVG 1.1//EN" "http://www.w3.org/Graphics/SVG/1.1/DTD/svg11.dtd" >
<svg xmlns="http://www.w3.org/2000/svg" xmlns:xlink="http://www.w3.org/1999/xlink" version="1.1">
<metadata>
Created by FontForge 20170731 at Sun Jun  2 07:03:14 2013
 By Aleksey,,,
Copyright (C) 2013 M+ Font Project
</metadata>
<defs>
<font id="PixelMplus12-Regular" horiz-adv-x="1000" >
  <font-face 
    font-family="PixelMplus12"
    font-weight="400"
    font-stretch="normal"
    units-per-em="1000"
    panose-1="2 11 5 9 2 2 3 2 2 7"
    ascent="800"
    descent="-200"
    x-height="467"
    cap-height="800"
    bbox="0 -200 1000 883"
    underline-thickness="50"
    underline-position="-250"
    unicode-range="U+0001-FFE5"
  />
<missing-glyph horiz-adv-x="364" 
d="M33 0v666h265v-666h-265zM66 33h199v600h-199v-600z" />
    <glyph glyph-name=".notdef" horiz-adv-x="364" 
d="M33 0v666h265v-666h-265zM66 33h199v600h-199v-600z" />
    <glyph glyph-name="glyph1" horiz-adv-x="0" 
 />
    <glyph glyph-name="uni000D" unicode="&#xd;" horiz-adv-x="500" 
d="M250 217v-417h-83v500h333v-83h-250z" />
    <glyph glyph-name="uni0001" horiz-adv-x="500" 
d="M0 300v83h83v84h84v83h83v-83h83v-84h84v-83h-84v-83h-83v-84h-83v84h-84v83h-83z" />
    <glyph glyph-name="uni0002" horiz-adv-x="500" 
d="M0 -200v83h83v-83h-83zM0 -33v83h83v-83h84v-84h83v-83h-83v83h-84v84h-83zM0 133v84h83v-84h84v-83h83v-83h83v-84h84v-83h-84v83h-83v84h-83v83h-84v83h-83zM0 300v83h83v-83h84v-83h83v-84h83v-83h84v-83h83v-84h-83v84h-84v83h-83v83h-83v84h-84v83h-83zM0 467v83h83
v-83h84v-84h83v-83h83v-83h84v-84h83v-83h-83v83h-84v84h-83v83h-83v83h-84v84h-83zM0 633v84h83v-84h84v-83h83v-83h83v-84h84v-83h83v-83h-83v83h-84v83h-83v84h-83v83h-84v83h-83zM417 383v84h83v-84h-83zM417 467h-84v83h84v-83zM417 550v83h83v-83h-83zM333 550h-83v83
h83v-83zM417 633h-84v84h84v-84zM250 633h-83v84h83v-84zM417 717v83h83v-83h-83zM333 717h-83v83h83v-83zM167 717h-84v83h84v-83z" />
    <glyph glyph-name="uni0003" horiz-adv-x="500" 
d="M0 217v83h417v-83h-167v-334h-83v334h-167zM417 800v-417h-84v167h-250v-167h-83v417h83v-167h250v167h84z" />
    <glyph glyph-name="uni0004" horiz-adv-x="500" 
d="M83 50v-167h-83v417h417v-83h-334v-84h334v-83h-334zM83 550v-167h-83v417h417v-83h-334v-84h334v-83h-334z" />
    <glyph glyph-name="uni0005" horiz-adv-x="500" 
d="M333 -33h84v-84h-84v84zM333 -33h-83v83h-167v-167h-83v417h417v-250h-84v-83zM83 133h250v84h-250v-84zM417 383h-417v417h417v-167h-84v84h-250v-250h250v83h84v-167z" />
    <glyph glyph-name="uni0006" horiz-adv-x="500" 
d="M83 50v-167h-83v417h417v-83h-334v-84h334v-83h-334zM417 383h-417v417h83v-333h334v-84z" />
    <glyph glyph-name="uni0007" horiz-adv-x="500" 
d="M250 467h-167v83h167v-83zM250 550v167h83v-167h-83zM83 550h-83v167h83v-167zM250 717h-167v83h167v-83z" />
    <glyph glyph-name="uni0008" horiz-adv-x="500" 
d="M0 -33v83h417v-83h-417zM0 383v84h167v166h83v-166h167v-84h-167v-166h-83v166h-167z" />
    <glyph glyph-name="uni0009" unicode="&#x9;" horiz-adv-x="500" 
d="M417 -117h-417v417h83v-333h334v-84zM417 800v-417h-84v84h-83v83h83v250h84zM83 633v-250h-83v417h83v-83h84v-84h83v-83h-83v83h-84z" />
    <glyph glyph-name="uni000A" unicode="&#xa;" horiz-adv-x="500" 
d="M0 217v83h417v-83h-167v-334h-83v334h-167zM250 383h-250v417h83v-333h167v-84zM250 467v83h83v-83h-83zM333 550v250h84v-250h-84z" />
    <glyph glyph-name="uni000B" horiz-adv-x="500" 
d="M0 217v83h167v583h83v-666h-250z" />
    <glyph glyph-name="uni000C" horiz-adv-x="500" 
d="M0 217v83h250v-500h-83v417h-167z" />
    <glyph glyph-name="uni000E" horiz-adv-x="500" 
d="M500 217h-333v666h83v-583h250v-83z" />
    <glyph glyph-name="uni000F" horiz-adv-x="500" 
d="M0 217v83h167v583h83v-583h250v-83h-250v-417h-83v417h-167z" />
    <glyph glyph-name="uni0010" horiz-adv-x="500" 
d="M0 550v83h500v-83h-500z" />
    <glyph glyph-name="uni0011" horiz-adv-x="500" 
d="M0 383v84h500v-84h-500z" />
    <glyph glyph-name="uni0012" horiz-adv-x="500" 
d="M0 217v83h500v-83h-500z" />
    <glyph glyph-name="uni0013" horiz-adv-x="500" 
d="M0 50v83h500v-83h-500z" />
    <glyph glyph-name="uni0014" horiz-adv-x="500" 
d="M0 -117v84h500v-84h-500z" />
    <glyph glyph-name="uni0015" horiz-adv-x="500" 
d="M250 217v-417h-83v1083h83v-583h250v-83h-250z" />
    <glyph glyph-name="uni0016" horiz-adv-x="500" 
d="M0 217v83h167v583h83v-1083h-83v417h-167z" />
    <glyph glyph-name="uni0017" horiz-adv-x="500" 
d="M0 217v83h167v583h83v-583h250v-83h-500z" />
    <glyph glyph-name="uni0018" horiz-adv-x="500" 
d="M0 217v83h500v-83h-250v-417h-83v417h-167z" />
    <glyph glyph-name="uni0019" horiz-adv-x="500" 
d="M250 883v-1083h-83v1083h83z" />
    <glyph glyph-name="uni001A" horiz-adv-x="500" 
d="M0 -33v83h417v-83h-417zM0 383v84h83v-84h84v-83h83v-83h83v-84h-83v84h-83v83h-84v83h-83zM83 467v83h84v-83h-84zM167 550v83h83v-83h-83zM250 633v84h83v-84h-83z" />
    <glyph glyph-name="uni001B" horiz-adv-x="500" 
d="M0 -33v83h417v-83h-417zM83 133v84h84v-84h-84zM83 633v84h84v-84h83v-83h83v-83h84v-84h-84v-83h-83v-83h-83v83h83v83h83v84h-83v83h-83v83h-84z" />
    <glyph glyph-name="uni001C" horiz-adv-x="500" 
d="M0 383v84h417v-84h-84v-416h-83v416h-83v-250h-84v-166h-83v166h83v250h-83z" />
    <glyph glyph-name="uni001D" horiz-adv-x="500" 
d="M0 217v83h167v83h-167v84h250v166h83v-166h84v-84h-167v-83h167v-83h-250v-167h-84v167h-83z" />
    <glyph glyph-name="uni001E" horiz-adv-x="500" 
d="M0 -33v83h83v-83h-83zM0 300v83h83v250h84v-250h166v-83h-166v-167h83v-83h167v-83h-167v83h-167v250h-83zM333 633h84v-83h-84v83zM333 633h-166v84h166v-84z" />
    <glyph glyph-name="uni001F" horiz-adv-x="500" 
d="M83 300v83h84v84h83v-84h83v-83h-83v-83h-83v83h-84z" />
    <glyph glyph-name="space" unicode=" " horiz-adv-x="500" 
 />
    <glyph glyph-name="exclam" unicode="!" horiz-adv-x="500" 
d="M167 -33v83h83v-83h-83zM250 717v-500h-83v500h83z" />
    <glyph glyph-name="quotedbl" unicode="&#x22;" horiz-adv-x="500" 
d="M333 800v-333h-83v333h83zM167 800v-333h-84v333h84z" />
    <glyph glyph-name="numbersign" unicode="#" horiz-adv-x="500" 
d="M0 133v84h83v250h-83v83h83v167h84v-167h83v167h83v-167h84v-83h-84v-250h84v-84h-84v-166h-83v166h-83v-166h-84v166h-83zM250 217v250h-83v-250h83z" />
    <glyph glyph-name="dollar" unicode="$" horiz-adv-x="500" 
d="M0 50v83h167v167h-84v83h84v167h-84v-167h-83v167h83v83h84v84h83v-84h167v-83h-167v-167h83v-83h84v-167h-84v-83h-83v-83h-83v83h-167zM333 133v167h-83v-167h83z" />
    <glyph glyph-name="percent" unicode="%" horiz-adv-x="500" 
d="M167 50v83h83v-83h83v-83h-83v83h-83zM0 133v84h83v-84h-83zM0 550v83h83v-83h84v-83h-84v83h-83zM333 50v83h84v-83h-84zM333 133h-83v84h83v-84zM83 217v83h84v-83h-84zM167 300v83h83v-83h-83zM250 383v84h83v-84h-83zM333 467v83h84v-83h-84zM167 550v83h83v-83h-83z
M167 633h-84v84h84v-84z" />
    <glyph glyph-name="ampersand" unicode="&#x26;" horiz-adv-x="500" 
d="M250 -33h-167v83h167v-83zM333 50h84v-83h-84v83zM333 50h-83v167h83v-167zM83 50h-83v250h83v-250zM333 217v166h84v-166h-84zM250 217h-83v83h83v-83zM167 300h-84v167h167v-84h-83v-83zM250 467v166h83v-166h-83zM83 467h-83v166h83v-166zM250 633h-167v84h167v-84z
" />
    <glyph glyph-name="quotesingle" unicode="'" horiz-adv-x="500" 
d="M250 800v-333h-83v333h83z" />
    <glyph glyph-name="parenleft" unicode="(" horiz-adv-x="500" 
d="M250 -33h83v-84h-83v84zM250 -33h-83v166h83v-166zM167 133h-84v417h84v-417zM167 550v167h83v-167h-83zM250 717v83h83v-83h-83z" />
    <glyph glyph-name="parenright" unicode=")" horiz-adv-x="500" 
d="M83 -117v84h84v-84h-84zM83 717v83h84v-83h83v-167h83v-417h-83v-166h-83v166h83v417h-83v167h-84z" />
    <glyph glyph-name="asterisk" unicode="*" horiz-adv-x="500" 
d="M0 133v84h83v-84h-83zM0 467v83h83v-83h84v166h83v-166h83v-84h-83v-83h83v-83h84v-84h-84v84h-83v-167h-83v167h-84v83h84v83h-84v84h-83zM333 467v83h84v-83h-84z" />
    <glyph glyph-name="plus" unicode="+" horiz-adv-x="500" 
d="M0 300v83h167v167h83v-167h167v-83h-167v-167h-83v167h-167z" />
    <glyph glyph-name="comma" unicode="," horiz-adv-x="500" 
d="M83 -117v84h84v-84h-84zM83 50v83h84v84h83v-84h83v-83h-83v-83h-83v83h-84z" />
    <glyph glyph-name="hyphen" unicode="-" horiz-adv-x="500" 
d="M0 300v83h417v-83h-417z" />
    <glyph glyph-name="period" unicode="." horiz-adv-x="500" 
d="M83 50v83h84v84h83v-84h83v-83h-83v-83h-83v83h-84z" />
    <glyph glyph-name="slash" unicode="/" horiz-adv-x="500" 
d="M83 50v-167h-83v167h83zM83 50v167h84v-167h-84zM167 217v166h83v-166h-83zM250 383v167h83v-167h-83zM333 550v167h84v-167h-84z" />
    <glyph glyph-name="zero" unicode="0" horiz-adv-x="500" 
d="M333 -33h-250v83h250v-83zM333 50v333h-83v-83h-83v-83h-84v-167h-83v583h83v-333h84v83h83v84h83v166h84v-583h-84zM333 633h-250v84h250v-84z" />
    <glyph glyph-name="one" unicode="1" horiz-adv-x="500" 
d="M0 467v83h83v-83h-83zM250 717v-750h-83v583h-84v83h84v84h83z" />
    <glyph glyph-name="two" unicode="2" horiz-adv-x="500" 
d="M417 -33h-417v166h83v-83h334v-83zM83 133v84h84v-84h-84zM167 217v83h83v-83h-83zM250 300v83h83v-83h-83zM333 383v250h84v-250h-84zM83 633v-166h-83v166h83zM333 633h-250v84h250v-84z" />
    <glyph glyph-name="three" unicode="3" horiz-adv-x="500" 
d="M0 50v83h83v-83h250v-83h-250v83h-83zM83 300v83h84v84h83v-84h83v-83h84v-250h-84v250h-250zM0 633v84h417v-167h-84v-83h-83v83h83v83h-333z" />
    <glyph glyph-name="four" unicode="4" horiz-adv-x="500" 
d="M333 133v-166h-83v166h-250v250h83v-166h167v333h-83v-167h-84v167h84v167h166v-500h84v-84h-84z" />
    <glyph glyph-name="five" unicode="5" horiz-adv-x="500" 
d="M333 -33h-250v83h250v-83zM333 50v333h84v-333h-84zM83 50h-83v167h83v-167zM333 383h-333v334h417v-84h-334v-166h250v-84z" />
    <glyph glyph-name="six" unicode="6" horiz-adv-x="500" 
d="M333 -33h-250v83h250v-83zM333 50v333h84v-333h-84zM83 50h-83v500h83v-83h250v-84h-250v-333zM83 550v83h84v-83h-84zM333 633h-166v84h166v-84z" />
    <glyph glyph-name="seven" unicode="7" horiz-adv-x="500" 
d="M0 633v84h417v-167h-84v-167h-83v-166h-83v-250h-84v250h84v166h83v167h83v83h-333z" />
    <glyph glyph-name="eight" unicode="8" horiz-adv-x="500" 
d="M333 -33h-250v83h250v-83zM333 50v167h84v-167h-84zM83 50h-83v167h83v-167zM333 217h-83v83h83v-83zM83 217v83h84v-83h-84zM250 300h-83v83h83v-83zM250 383v84h83v-84h-83zM167 383h-84v84h84v-84zM333 467v166h84v-166h-84zM83 467h-83v166h83v-166zM333 633h-250v84
h250v-84z" />
    <glyph glyph-name="nine" unicode="9" horiz-adv-x="500" 
d="M83 -33v83h167v-83h-167zM250 50v83h83v-83h-83zM333 133v84h-250v83h250v333h84v-500h-84zM83 300h-83v333h83v-333zM333 633h-250v84h250v-84z" />
    <glyph glyph-name="colon" unicode=":" horiz-adv-x="500" 
d="M83 50v83h84v84h83v-84h83v-83h-83v-83h-83v83h-84zM83 383v84h84v83h83v-83h83v-84h-83v-83h-83v83h-84z" />
    <glyph glyph-name="semicolon" unicode=";" horiz-adv-x="500" 
d="M83 -117v84h84v-84h-84zM83 50v83h84v84h83v-84h83v-83h-83v-83h-83v83h-84zM83 383v84h84v83h83v-83h83v-84h-83v-83h-83v83h-84z" />
    <glyph glyph-name="less" unicode="&#x3c;" horiz-adv-x="500" 
d="M0 300v83h83v-83h84v-83h83v-84h83v-83h84v-83h-84v83h-83v83h-83v84h-84v83h-83zM83 383v84h84v-84h-84zM167 467v83h83v-83h-83zM250 550v83h83v-83h-83zM333 633v84h84v-84h-84z" />
    <glyph glyph-name="equal" unicode="=" horiz-adv-x="500" 
d="M0 217v83h417v-83h-417zM0 383v84h417v-84h-417z" />
    <glyph glyph-name="greater" unicode="&#x3e;" horiz-adv-x="500" 
d="M0 -33v83h83v-83h-83zM0 633v84h83v-84h84v-83h83v-83h83v-84h84v-83h-84v-83h-83v-84h-83v-83h-84v83h84v84h83v83h83v83h-83v84h-83v83h-84v83h-83z" />
    <glyph glyph-name="question" unicode="?" horiz-adv-x="500" 
d="M167 -33v83h83v-83h-83zM250 300v-167h-83v167h83zM250 300v83h83v-83h-83zM333 383v250h84v-250h-84zM83 633v-166h-83v166h83zM333 633h-250v84h250v-84z" />
    <glyph glyph-name="at" unicode="@" horiz-adv-x="500" 
d="M333 -33h-250v83h250v-83zM83 50h-83v583h83v-583zM417 133h-250v417h166v83h84v-500zM333 217v250h-83v-250h83zM333 633h-250v84h250v-84z" />
    <glyph glyph-name="A" unicode="A" horiz-adv-x="500" 
d="M417 300v-333h-84v250h-250v-250h-83v333h83v250h84v-250h83v250h83v-250h84zM250 550h-83v167h83v-167z" />
    <glyph glyph-name="B" unicode="B" horiz-adv-x="500" 
d="M333 -33h-333v750h333v-84h84v-250h-84v-83h84v-250h-84v-83zM83 50h250v250h-250v-250zM83 383h250v250h-250v-250z" />
    <glyph glyph-name="C" unicode="C" horiz-adv-x="500" 
d="M333 -33h-250v83h250v-83zM333 50v83h84v-83h-84zM83 50h-83v583h83v-583zM333 633h84v-83h-84v83zM333 633h-250v84h250v-84z" />
    <glyph glyph-name="D" unicode="D" horiz-adv-x="500" 
d="M250 -33h-250v750h250v-84h83v-83h84v-417h-84v-83h-83v-83zM83 50h167v83h83v417h-83v83h-167v-583z" />
    <glyph glyph-name="E" unicode="E" horiz-adv-x="500" 
d="M417 -33h-417v750h417v-84h-334v-250h250v-83h-250v-250h334v-83z" />
    <glyph glyph-name="F" unicode="F" horiz-adv-x="500" 
d="M83 300v-333h-83v750h417v-84h-334v-250h250v-83h-250z" />
    <glyph glyph-name="G" unicode="G" horiz-adv-x="500" 
d="M167 300v83h250v-416h-334v83h250v250h-166zM83 50h-83v583h83v-583zM333 633h84v-83h-84v83zM333 633h-250v84h250v-84z" />
    <glyph glyph-name="H" unicode="H" horiz-adv-x="500" 
d="M417 717v-750h-84v333h-250v-333h-83v750h83v-334h250v334h84z" />
    <glyph glyph-name="I" unicode="I" horiz-adv-x="500" 
d="M83 -33v83h84v583h-84v84h250v-84h-83v-583h83v-83h-250z" />
    <glyph glyph-name="J" unicode="J" horiz-adv-x="500" 
d="M333 -33h-250v83h250v-83zM333 50v667h84v-667h-84zM83 50h-83v250h83v-250z" />
    <glyph glyph-name="K" unicode="K" horiz-adv-x="500" 
d="M417 133v-166h-84v166h84zM83 300v-333h-83v750h83v-250h84v-167h83v-83h83v-84h-83v84h-83v83h-84zM167 467v83h83v-83h-83zM250 550v83h83v-83h-83zM333 633v84h84v-84h-84z" />
    <glyph glyph-name="L" unicode="L" horiz-adv-x="500" 
d="M417 -33h-417v750h83v-667h334v-83z" />
    <glyph glyph-name="M" unicode="M" horiz-adv-x="500" 
d="M417 717v-750h-84v583h-83v-83h-83v83h83v83h83v84h84zM83 550v-583h-83v750h83v-84h84v-83h-84z" />
    <glyph glyph-name="N" unicode="N" horiz-adv-x="500" 
d="M417 717v-750h-84v416h-83v84h83v250h84zM83 550v-583h-83v750h83v-84h84v-83h83v-83h-83v83h-84z" />
    <glyph glyph-name="O" unicode="O" horiz-adv-x="500" 
d="M333 -33h-250v83h250v-83zM333 50v583h84v-583h-84zM83 50h-83v583h83v-583zM333 633h-250v84h250v-84z" />
    <glyph glyph-name="P" unicode="P" horiz-adv-x="500" 
d="M83 300v-333h-83v750h333v-84h84v-250h-84v-83h-250zM83 383h250v250h-250v-250z" />
    <glyph glyph-name="Q" unicode="Q" horiz-adv-x="500" 
d="M500 -200h-167v83h167v-83zM333 -117h-83v84h-167v83h250v-167zM333 50v583h84v-583h-84zM83 50h-83v583h83v-583zM333 633h-250v84h250v-84z" />
    <glyph glyph-name="R" unicode="R" horiz-adv-x="500" 
d="M417 133v-166h-84v166h84zM83 300v-333h-83v750h333v-84h84v-250h-84v-83h-83v-83h83v-84h-83v84h-83v83h-84zM83 383h250v250h-250v-250z" />
    <glyph glyph-name="S" unicode="S" horiz-adv-x="500" 
d="M0 50v83h83v-83h250v-83h-250v83h-83zM333 50v250h84v-250h-84zM333 300h-250v83h250v-83zM83 383h-83v250h83v-250zM333 633h84v-83h-84v83zM333 633h-250v84h250v-84z" />
    <glyph glyph-name="T" unicode="T" horiz-adv-x="500" 
d="M0 633v84h417v-84h-167v-666h-83v666h-167z" />
    <glyph glyph-name="U" unicode="U" horiz-adv-x="500" 
d="M333 -33h-250v83h250v-83zM333 50v667h84v-667h-84zM83 50h-83v667h83v-667z" />
    <glyph glyph-name="V" unicode="V" horiz-adv-x="500" 
d="M250 133v-166h-83v166h83zM250 133v250h83v-250h-83zM167 133h-84v250h84v-250zM333 383v334h84v-334h-84zM83 383h-83v334h83v-334z" />
    <glyph glyph-name="W" unicode="W" horiz-adv-x="500" 
d="M333 217v-250h-83v250h83zM167 217v-250h-84v250h84zM333 217v500h84v-500h-84zM250 217h-83v500h83v-500zM83 217h-83v500h83v-500z" />
    <glyph glyph-name="X" unicode="X" horiz-adv-x="500" 
d="M417 133v-166h-84v166h84zM83 133v-166h-83v166h83zM333 133h-83v167h83v-167zM83 133v167h84v-167h-84zM250 300h-83v83h83v-83zM250 383v167h83v-167h-83zM167 383h-84v167h84v-167zM333 550v167h84v-167h-84zM83 550h-83v167h83v-167z" />
    <glyph glyph-name="Y" unicode="Y" horiz-adv-x="500" 
d="M250 383v-416h-83v416h83zM250 383v167h83v-167h-83zM167 383h-84v167h84v-167zM333 550v167h84v-167h-84zM83 550h-83v167h83v-167z" />
    <glyph glyph-name="Z" unicode="Z" horiz-adv-x="500" 
d="M0 633v84h417v-167h-84v-167h-83v-83h-83v-167h-84v-83h334v-83h-417v166h83v167h84v83h83v167h83v83h-333z" />
    <glyph glyph-name="bracketleft" unicode="[" horiz-adv-x="500" 
d="M333 -117h-250v917h250v-83h-166v-750h166v-84z" />
    <glyph glyph-name="backslash" unicode="\" horiz-adv-x="500" 
d="M417 50v-167h-84v167h84zM333 50h-83v167h83v-167zM250 217h-83v166h83v-166zM167 383h-84v167h84v-167zM83 550h-83v167h83v-167z" />
    <glyph glyph-name="bracketright" unicode="]" horiz-adv-x="500" 
d="M83 -117v84h167v750h-167v83h250v-917h-250z" />
    <glyph glyph-name="asciicircum" unicode="^" horiz-adv-x="500" 
d="M0 550v83h83v-83h-83zM333 633h84v-83h-84v83zM333 633h-83v84h83v-84zM83 633v84h84v-84h-84zM250 717h-83v83h83v-83z" />
    <glyph glyph-name="underscore" unicode="_" horiz-adv-x="500" 
d="M0 -117v84h417v-84h-417z" />
    <glyph glyph-name="grave" unicode="`" horiz-adv-x="500" 
d="M250 633v-166h-83v166h83zM167 633h-84v167h84v-167z" />
    <glyph glyph-name="a" unicode="a" horiz-adv-x="500" 
d="M83 383v84h250v-84h84v-416h-334v83h250v167h-250v-167h-83v167h83v83h250v83h-250z" />
    <glyph glyph-name="b" unicode="b" horiz-adv-x="500" 
d="M333 -33h-333v750h83v-250h250v-84h84v-333h-84v-83zM83 50h250v333h-250v-333z" />
    <glyph glyph-name="c" unicode="c" horiz-adv-x="500" 
d="M333 -33h-250v83h250v-83zM333 50v83h84v-83h-84zM83 50h-83v333h83v-333zM333 383h84v-83h-84v83zM333 383h-250v84h250v-84z" />
    <glyph glyph-name="d" unicode="d" horiz-adv-x="500" 
d="M417 -33h-334v83h250v333h-250v-333h-83v333h83v84h250v250h84v-750z" />
    <glyph glyph-name="e" unicode="e" horiz-adv-x="500" 
d="M333 -33h-250v83h250v-83zM333 50v83h84v-83h-84zM83 50h-83v333h83v-83h250v83h84v-166h-334v-167zM333 383h-250v84h250v-84z" />
    <glyph glyph-name="f" unicode="f" horiz-adv-x="500" 
d="M0 300v83h167v250h83v-250h167v-83h-167v-333h-83v333h-167zM417 633h-167v84h167v-84z" />
    <glyph glyph-name="g" unicode="g" horiz-adv-x="500" 
d="M0 -117v84h83v-84h250v-83h-250v83h-83zM333 -117v167h-250v83h250v250h-250v-250h-83v250h83v84h334v-584h-84z" />
    <glyph glyph-name="h" unicode="h" horiz-adv-x="500" 
d="M417 383v-416h-84v416h84zM83 300v-333h-83v750h83v-334h84v-83h-84zM333 383h-166v84h166v-84z" />
    <glyph glyph-name="i" unicode="i" horiz-adv-x="500" 
d="M83 -33v83h84v333h-84v84h167v-417h83v-83h-250zM167 717v83h83v-83h-83z" />
    <glyph glyph-name="j" unicode="j" horiz-adv-x="500" 
d="M0 -200v83h250v-83h-250zM167 383v84h166v-584h-83v500h-83zM250 717v83h83v-83h-83z" />
    <glyph glyph-name="k" unicode="k" horiz-adv-x="500" 
d="M333 50h84v-83h-84v83zM333 50h-83v83h83v-83zM83 217v-250h-83v750h83v-417h84v-83h83v-84h-83v84h-84zM167 300v83h83v-83h-83zM250 383v84h83v-84h-83z" />
    <glyph glyph-name="l" unicode="l" horiz-adv-x="500" 
d="M83 633v84h167v-667h83v-83h-166v666h-84z" />
    <glyph glyph-name="m" unicode="m" horiz-adv-x="500" 
d="M417 383v-416h-84v416h84zM250 383v-416h-83v416h-84v-416h-83v500h333v-84h-83z" />
    <glyph glyph-name="n" unicode="n" horiz-adv-x="500" 
d="M417 383v-416h-84v416h84zM83 300v-333h-83v500h83v-84h84v-83h-84zM333 383h-166v84h166v-84z" />
    <glyph glyph-name="o" unicode="o" horiz-adv-x="500" 
d="M333 -33h-250v83h250v-83zM333 50v333h84v-333h-84zM83 50h-83v333h83v-333zM333 383h-250v84h250v-84z" />
    <glyph glyph-name="p" unicode="p" horiz-adv-x="500" 
d="M83 50v-250h-83v667h333v-84h84v-250h-84v-83h-250zM83 133h250v250h-250v-250z" />
    <glyph glyph-name="q" unicode="q" horiz-adv-x="500" 
d="M417 467v-667h-84v250h-250v83h250v250h-250v-250h-83v250h83v84h334z" />
    <glyph glyph-name="r" unicode="r" horiz-adv-x="500" 
d="M83 300v-333h-83v500h83v-84h84v-83h-84zM333 383h84v-83h-84v83zM333 383h-166v84h166v-84z" />
    <glyph glyph-name="s" unicode="s" horiz-adv-x="500" 
d="M0 50v83h83v-83h250v-83h-250v83h-83zM0 300v83h83v-83h250v-83h84v-167h-84v167h-250v83h-83zM333 300v83h84v-83h-84zM333 383h-250v84h250v-84z" />
    <glyph glyph-name="t" unicode="t" horiz-adv-x="500" 
d="M0 383v84h83v250h84v-250h166v-84h-166v-333h166v-83h-166v83h-84v333h-83zM333 50v83h84v-83h-84z" />
    <glyph glyph-name="u" unicode="u" horiz-adv-x="500" 
d="M250 -33h-167v83h167v-83zM417 467v-500h-84v83h-83v83h83v334h84zM83 50h-83v417h83v-417z" />
    <glyph glyph-name="v" unicode="v" horiz-adv-x="500" 
d="M250 133v-166h-83v166h83zM250 133v167h83v-167h-83zM167 133h-84v167h84v-167zM333 300v167h84v-167h-84zM83 300h-83v167h83v-167z" />
    <glyph glyph-name="w" unicode="w" horiz-adv-x="500" 
d="M333 133v-166h-83v166h83zM167 133v-166h-84v166h84zM333 133v334h84v-334h-84zM250 133h-83v334h83v-334zM83 133h-83v334h83v-334z" />
    <glyph glyph-name="x" unicode="x" horiz-adv-x="500" 
d="M0 -33v83h83v-83h-83zM0 383v84h83v-84h84v-83h83v-167h83v-83h84v-83h-84v83h-83v83h-83v-83h-84v83h84v167h-84v83h-83zM250 300v83h83v-83h-83zM333 383v84h84v-84h-84z" />
    <glyph glyph-name="y" unicode="y" horiz-adv-x="500" 
d="M0 -117v84h83v-84h250v-83h-250v83h-83zM333 -117v167h-250v83h250v334h84v-584h-84zM83 133h-83v334h83v-334z" />
    <glyph glyph-name="z" unicode="z" horiz-adv-x="500" 
d="M0 383v84h417v-84h-84v-83h-83v-83h-83v-84h-84v-83h334v-83h-417v166h83v84h84v83h83v83h-250z" />
    <glyph glyph-name="braceleft" unicode="{" horiz-adv-x="500" 
d="M0 300v83h167v-83h83v-333h167v-84h-167v84h-83v333h-167zM167 383v334h83v-334h-83zM417 717h-167v83h167v-83z" />
    <glyph glyph-name="bar" unicode="|" horiz-adv-x="500" 
d="M250 800v-917h-83v917h83z" />
    <glyph glyph-name="braceright" unicode="}" horiz-adv-x="500" 
d="M0 -117v84h167v-84h-167zM0 717v83h167v-83h83v-334h167v-83h-167v-333h-83v333h83v83h-83v334h-167z" />
    <glyph glyph-name="asciitilde" unicode="~" horiz-adv-x="500" 
d="M0 550v83h83v-83h-83zM333 550h-166v83h-84v84h167v-84h83v-83zM333 633v84h84v-84h-84z" />
    <glyph glyph-name="uni007F" horiz-adv-x="500" 
 />
    <glyph glyph-name="uni00A0" unicode="&#xa0;" horiz-adv-x="500" 
 />
    <glyph glyph-name="exclamdown" unicode="&#xa1;" horiz-adv-x="500" 
d="M167 633v84h83v-84h-83zM250 467v-500h-83v500h83z" />
    <glyph glyph-name="cent" unicode="&#xa2;" horiz-adv-x="500" 
d="M417 50h-167v-83h-83v83h-84v83h84v334h-84v-334h-83v334h83v83h84v167h83v-167h83v-83h84v-84h-84v84h-83v-334h167v-83z" />
    <glyph glyph-name="sterling" unicode="&#xa3;" horiz-adv-x="500" 
d="M0 -33v83h83v-83h-83zM0 300v83h83v250h84v-250h166v-83h-166v-167h83v-83h167v-83h-167v83h-167v250h-83zM333 633h84v-83h-84v83zM333 633h-166v84h166v-84z" />
    <glyph glyph-name="currency" unicode="&#xa4;" horiz-adv-x="500" 
d="M0 50v83h83v-83h-83zM0 467v83h83v-83h250v-334h84v-83h-84v83h-250v334h-83zM250 217v166h-83v-166h83zM333 467v83h84v-83h-84z" />
    <glyph glyph-name="yen" unicode="&#xa5;" horiz-adv-x="500" 
d="M0 133v84h167v83h-167v83h83v167h84v-167h83v167h83v-167h84v-83h-167v-83h167v-84h-167v-166h-83v166h-167zM333 550v167h84v-167h-84zM83 550h-83v167h83v-167z" />
    <glyph glyph-name="brokenbar" unicode="&#xa6;" horiz-adv-x="500" 
d="M250 300v-417h-83v417h83zM250 800v-417h-83v417h83z" />
    <glyph glyph-name="section" unicode="&#xa7;" horiz-adv-x="500" 
d="M0 -33v83h83v-83h167v-84h-167v84h-83zM250 -33v166h83v-166h-83zM250 133h-83v84h83v-84zM250 217v166h83v-166h-83zM167 217h-84v83h84v-83zM83 300h-83v167h83v-167zM250 383h-83v84h83v-84zM167 467h-84v83h84v-83zM83 550h-83v167h83v-167zM250 717h83v-84h-83v84z
M250 717h-167v83h167v-83z" />
    <glyph glyph-name="dieresis" unicode="&#xa8;" horiz-adv-x="500" 
d="M250 633v84h167v-84h-167zM0 633v84h167v-84h-167z" />
    <glyph glyph-name="copyright" unicode="&#xa9;" horiz-adv-x="500" 
d="M417 -33h-417v166h83v-83h250v83h84v-166zM333 133h-250v417h250v-83h-166v-250h166v-84zM333 550v83h-250v-83h-83v167h417v-167h-84z" />
    <glyph glyph-name="ordfeminine" unicode="&#xaa;" horiz-adv-x="500" 
d="M0 133v84h417v-84h-417zM0 383v84h83v-84h250v84h-250v83h250v83h84v-333h-334v83h-83zM83 633v84h250v-84h-250z" />
    <glyph glyph-name="guillemotleft" unicode="&#xab;" horiz-adv-x="500" 
d="M0 300v83h83v-83h84v-83h83v-84h83v-83h84v-83h-84v83h-83v83h-83v84h-84v83h-83zM333 133v84h84v-84h-84zM333 217h-83v83h83v-83zM250 300h-83v83h83v-83zM250 383v84h83v-84h-83zM167 383h-84v84h84v-84zM333 467v83h84v-83h-84zM250 467h-83v83h83v-83zM333 550h-83
v83h83v-83zM333 633v84h84v-84h-84z" />
    <glyph glyph-name="logicalnot" unicode="&#xac;" horiz-adv-x="500" 
d="M0 300v83h417v-250h-84v167h-333z" />
    <glyph glyph-name="uni00AD" unicode="&#xad;" horiz-adv-x="500" 
d="M0 300v83h333v-83h-333z" />
    <glyph glyph-name="registered" unicode="&#xae;" horiz-adv-x="500" 
d="M417 -33h-417v166h83v-83h250v83h84v-166zM333 133h-83v167h83v-167zM83 133v417h250v-167h-83v-83h-83v-167h-84zM250 383v84h-83v-84h83zM333 550v83h-250v-83h-83v167h417v-167h-84z" />
    <glyph glyph-name="macron" unicode="&#xaf;" horiz-adv-x="500" 
d="M0 633v84h333v-84h-333z" />
    <glyph glyph-name="degree" unicode="&#xb0;" horiz-adv-x="500" 
d="M250 467h-167v83h167v-83zM250 550v167h83v-167h-83zM83 550h-83v167h83v-167zM250 717h-167v83h167v-83z" />
    <glyph glyph-name="plusminus" unicode="&#xb1;" horiz-adv-x="500" 
d="M0 -33v83h417v-83h-417zM0 383v84h167v166h83v-166h167v-84h-167v-166h-83v166h-167z" />
    <glyph glyph-name="uni00B2" unicode="&#xb2;" horiz-adv-x="500" 
d="M0 300v83h83v84h84v-84h166v-83h-333zM0 633v84h83v-84h-83zM167 467v83h83v-83h-83zM250 550v167h83v-167h-83zM250 717h-167v83h167v-83z" />
    <glyph glyph-name="uni00B3" unicode="&#xb3;" horiz-adv-x="500" 
d="M0 383v84h83v-84h167v-83h-167v83h-83zM83 550v83h167v-83h83v-167h-83v167h-167zM0 717v83h333v-167h-83v84h-250z" />
    <glyph glyph-name="acute" unicode="&#xb4;" horiz-adv-x="500" 
d="M167 633v84h83v-84h-83zM250 717v83h83v-83h-83z" />
    <glyph glyph-name="mu" unicode="&#xb5;" horiz-adv-x="500" 
d="M83 -33v-167h-83v667h83v-417h167v-83h-167zM417 467v-500h-84v83h-83v83h83v334h84z" />
    <glyph glyph-name="paragraph" unicode="&#xb6;" horiz-adv-x="500" 
d="M417 717v-750h-84v666h-83v-666h-83v250h-84v83h-83v333h83v84h334z" />
    <glyph glyph-name="periodcentered" unicode="&#xb7;" horiz-adv-x="500" 
d="M83 300v83h84v84h83v-84h83v-83h-83v-83h-83v83h-84z" />
    <glyph glyph-name="cedilla" unicode="&#xb8;" horiz-adv-x="500" 
d="M83 -200v83h84v-83h-84zM167 -117v84h83v-84h-83zM250 -33v83h83v-83h-83z" />
    <glyph glyph-name="uni00B9" unicode="&#xb9;" horiz-adv-x="500" 
d="M0 550v83h83v-83h-83zM250 800v-500h-83v333h-84v84h84v83h83z" />
    <glyph glyph-name="ordmasculine" unicode="&#xba;" horiz-adv-x="500" 
d="M0 217v83h333v-83h-333zM250 383h-167v84h167v-84zM250 467v250h83v-250h-83zM83 467h-83v250h83v-250zM250 717h-167v83h167v-83z" />
    <glyph glyph-name="guillemotright" unicode="&#xbb;" horiz-adv-x="500" 
d="M0 -33v83h83v-83h-83zM0 133v84h83v-84h84v-83h-84v83h-83zM0 467v83h83v-83h84v-84h83v-83h83v-83h-83v-84h-83v84h83v83h-83v-83h-84v83h84v83h-84v84h-83zM0 633v84h83v-84h84v-83h83v-83h83v-84h84v-83h-84v83h-83v84h-83v83h-84v83h-83z" />
    <glyph glyph-name="onequarter" unicode="&#xbc;" horiz-adv-x="500" 
d="M0 550v83h83v84h84v-417h83v83h83v-250h84v-83h-84v-83h-83v83h-167v167h84v-84h83v84h-83v83h-84v250h-83z" />
    <glyph glyph-name="onehalf" unicode="&#xbd;" horiz-adv-x="500" 
d="M167 -33v83h83v83h83v-83h84v-83h-250zM0 550v83h83v84h84v-417h83v-83h-83v83h-84v250h-83zM333 133v167h84v-167h-84zM333 300h-83v83h83v-83z" />
    <glyph glyph-name="threequarters" unicode="&#xbe;" horiz-adv-x="500" 
d="M0 300v83h167v-83h83v83h83v-250h84v-83h-84v-83h-83v83h-167v167h84v-84h83v84h-83v83h-167zM83 467v83h84v-83h83v-84h-83v84h-84zM0 633v84h250v-167h-83v83h-167z" />
    <glyph glyph-name="questiondown" unicode="&#xbf;" horiz-adv-x="500" 
d="M167 633v84h83v-84h-83zM333 -33h-250v83h250v-83zM333 50v167h84v-167h-84zM83 50h-83v250h83v-250zM83 300v83h84v-83h-84zM167 383v167h83v-167h-83z" />
    <glyph glyph-name="Agrave" unicode="&#xc0;" horiz-adv-x="500" 
d="M167 717v83h83v-83h83v-84h-83v84h-83zM417 217v-250h-84v166h-250v-166h-83v250h83v166h84v-166h83v166h83v-166h84zM250 383h-83v167h83v-167z" />
    <glyph glyph-name="Aacute" unicode="&#xc1;" horiz-adv-x="500" 
d="M167 633v84h83v-84h-83zM417 217v-250h-84v166h-250v-166h-83v250h83v166h84v-166h83v166h83v-166h84zM250 383h-83v167h83v-167zM250 717v83h83v-83h-83z" />
    <glyph glyph-name="Acircumflex" unicode="&#xc2;" horiz-adv-x="500" 
d="M83 633v84h84v-84h-84zM417 217v-250h-84v166h-250v-166h-83v250h83v166h84v-166h83v166h83v-166h84zM250 383h-83v167h83v-167zM333 717h84v-84h-84v84zM333 717h-166v83h166v-83z" />
    <glyph glyph-name="Atilde" unicode="&#xc3;" horiz-adv-x="500" 
d="M0 633v84h83v-84h-83zM417 217v-250h-84v166h-250v-166h-83v250h83v166h84v-166h83v166h83v-166h84zM250 383h-83v167h83v-167zM333 633h-166v84h-84v83h167v-83h83v-84zM333 717v83h84v-83h-84z" />
    <glyph glyph-name="Adieresis" unicode="&#xc4;" horiz-adv-x="500" 
d="M417 217v-250h-84v166h-250v-166h-83v250h83v166h84v-166h83v166h83v-166h84zM250 383h-83v167h83v-167zM333 800v-167h-83v167h83zM167 800v-167h-84v167h84z" />
    <glyph glyph-name="Aring" unicode="&#xc5;" horiz-adv-x="500" 
d="M417 217v-250h-84v166h-250v-166h-83v250h83v166h84v-166h83v166h83v-166h84zM250 383h-83v167h166v-83h-83v-84zM333 550v167h84v-167h-84zM167 550h-84v167h84v-167zM333 717h-166v83h166v-83z" />
    <glyph glyph-name="AE" unicode="&#xc6;" horiz-adv-x="500" 
d="M417 -33h-250v333h-84v-333h-83v750h417v-84h-167v-250h167v-83h-167v-250h167v-83zM167 383v250h-84v-250h84z" />
    <glyph glyph-name="Ccedilla" unicode="&#xc7;" horiz-adv-x="500" 
d="M83 -200v83h84v-83h-84zM167 -117v84h-84v83h250v-83h-83v-84h-83zM333 50v83h84v-83h-84zM83 50h-83v583h83v-583zM333 633h84v-83h-84v83zM333 633h-250v84h250v-84z" />
    <glyph glyph-name="Egrave" unicode="&#xc8;" horiz-adv-x="500" 
d="M167 717v83h83v-83h83v-84h-83v84h-83zM417 -33h-417v583h417v-83h-334v-167h250v-83h-250v-167h334v-83z" />
    <glyph glyph-name="Eacute" unicode="&#xc9;" horiz-adv-x="500" 
d="M167 633v84h83v-84h-83zM417 -33h-417v583h417v-83h-334v-167h250v-83h-250v-167h334v-83zM250 717v83h83v-83h-83z" />
    <glyph glyph-name="Ecircumflex" unicode="&#xca;" horiz-adv-x="500" 
d="M83 633v84h84v-84h-84zM417 -33h-417v583h417v-83h-334v-167h250v-83h-250v-167h334v-83zM333 717h84v-84h-84v84zM333 717h-166v83h166v-83z" />
    <glyph glyph-name="Edieresis" unicode="&#xcb;" horiz-adv-x="500" 
d="M417 -33h-417v583h417v-83h-334v-167h250v-83h-250v-167h334v-83zM333 800v-167h-83v167h83zM167 800v-167h-84v167h84z" />
    <glyph glyph-name="Igrave" unicode="&#xcc;" horiz-adv-x="500" 
d="M83 -33v83h84v417h-84v83h250v-83h-83v-417h83v-83h-250zM167 717v83h83v-83h83v-84h-83v84h-83z" />
    <glyph glyph-name="Iacute" unicode="&#xcd;" horiz-adv-x="500" 
d="M83 -33v83h84v417h-84v83h250v-83h-83v-417h83v-83h-250zM167 633v84h83v-84h-83zM250 717v83h83v-83h-83z" />
    <glyph glyph-name="Icircumflex" unicode="&#xce;" horiz-adv-x="500" 
d="M83 -33v83h84v417h-84v83h250v-83h-83v-417h83v-83h-250zM83 633v84h84v-84h-84zM333 717h84v-84h-84v84zM333 717h-166v83h166v-83z" />
    <glyph glyph-name="Idieresis" unicode="&#xcf;" horiz-adv-x="500" 
d="M83 -33v83h84v417h-84v83h250v-83h-83v-417h83v-83h-250zM333 800v-167h-83v167h83zM167 800v-167h-84v167h84z" />
    <glyph glyph-name="Eth" unicode="&#xd0;" horiz-adv-x="500" 
d="M0 -33v83h83v250h-83v83h83v250h-83v84h333v-84h84v-583h-84v-83h-333zM167 50h166v583h-166v-250h83v-83h-83v-250z" />
    <glyph glyph-name="Ntilde" unicode="&#xd1;" horiz-adv-x="500" 
d="M0 633v84h83v-84h-83zM417 550v-583h-84v250h-83v83h83v250h84zM83 383v-416h-83v583h83v-83h84v-84h83v-83h-83v83h-84zM333 633h-166v84h-84v83h167v-83h83v-84zM333 717v83h84v-83h-84z" />
    <glyph glyph-name="Ograve" unicode="&#xd2;" horiz-adv-x="500" 
d="M167 717v83h83v-83h83v-84h-83v84h-83zM333 -33h-250v83h250v-83zM333 50v417h84v-417h-84zM83 50h-83v417h83v-417zM333 467h-250v83h250v-83z" />
    <glyph glyph-name="Oacute" unicode="&#xd3;" horiz-adv-x="500" 
d="M167 633v84h83v-84h-83zM333 -33h-250v83h250v-83zM333 50v417h84v-417h-84zM83 50h-83v417h83v-417zM333 467h-250v83h250v-83zM250 717v83h83v-83h-83z" />
    <glyph glyph-name="Ocircumflex" unicode="&#xd4;" horiz-adv-x="500" 
d="M83 633v84h84v-84h-84zM333 -33h-250v83h250v-83zM333 50v417h84v-417h-84zM83 50h-83v417h83v-417zM333 467h-250v83h250v-83zM333 717h84v-84h-84v84zM333 717h-166v83h166v-83z" />
    <glyph glyph-name="Otilde" unicode="&#xd5;" horiz-adv-x="500" 
d="M0 633v84h83v-84h-83zM333 -33h-250v83h250v-83zM333 50v417h84v-417h-84zM83 50h-83v417h83v-417zM333 467h-250v83h250v-83zM333 633h-166v84h-84v83h167v-83h83v-84zM333 717v83h84v-83h-84z" />
    <glyph glyph-name="Odieresis" unicode="&#xd6;" horiz-adv-x="500" 
d="M333 -33h-250v83h250v-83zM333 50v417h84v-417h-84zM83 50h-83v417h83v-417zM333 467h-250v83h250v-83zM333 800v-167h-83v167h83zM167 800v-167h-84v167h84z" />
    <glyph glyph-name="multiply" unicode="&#xd7;" horiz-adv-x="500" 
d="M0 133v84h83v-84h-83zM0 467v83h83v-83h84v-84h83v-83h83v-83h84v-84h-84v84h-83v83h-83v-83h-84v83h84v83h-84v84h-83zM250 383v84h83v-84h-83zM333 467v83h84v-83h-84z" />
    <glyph glyph-name="Oslash" unicode="&#xd8;" horiz-adv-x="500" 
d="M0 -117v84h83v-84h-83zM333 -33h-250v83h-83v583h83v-500h84v-83h166v-83zM333 50v500h-83v-417h-83v417h83v83h-167v84h250v-84h84v-583h-84zM333 717v83h84v-83h-84z" />
    <glyph glyph-name="Ugrave" unicode="&#xd9;" horiz-adv-x="500" 
d="M167 717v83h83v-83h83v-84h-83v84h-83zM333 -33h-250v83h250v-83zM333 50v500h84v-500h-84zM83 50h-83v500h83v-500z" />
    <glyph glyph-name="Uacute" unicode="&#xda;" horiz-adv-x="500" 
d="M167 633v84h83v-84h-83zM333 -33h-250v83h250v-83zM333 50v500h84v-500h-84zM83 50h-83v500h83v-500zM250 717v83h83v-83h-83z" />
    <glyph glyph-name="Ucircumflex" unicode="&#xdb;" horiz-adv-x="500" 
d="M83 633v84h84v-84h-84zM333 -33h-250v83h250v-83zM333 50v500h84v-500h-84zM83 50h-83v500h83v-500zM333 717h84v-84h-84v84zM333 717h-166v83h166v-83z" />
    <glyph glyph-name="Udieresis" unicode="&#xdc;" horiz-adv-x="500" 
d="M333 -33h-250v83h250v-83zM333 50v500h84v-500h-84zM83 50h-83v500h83v-500zM333 800v-167h-83v167h83zM167 800v-167h-84v167h84z" />
    <glyph glyph-name="Yacute" unicode="&#xdd;" horiz-adv-x="500" 
d="M167 633v84h83v-84h-83zM250 217v-250h-83v250h83zM250 217v166h83v-166h-83zM167 217h-84v166h84v-166zM333 383v167h84v-167h-84zM83 383h-83v167h83v-167zM250 717v83h83v-83h-83z" />
    <glyph glyph-name="Thorn" unicode="&#xde;" horiz-adv-x="500" 
d="M83 217v-250h-83v833h83v-167h250v-83h84v-250h-84v-83h-250zM83 300h250v250h-250v-250z" />
    <glyph glyph-name="germandbls" unicode="&#xdf;" horiz-adv-x="500" 
d="M83 -33v-167h-83v750h83v-167h250v-83h84v-250h-84v-83h-250zM83 50h250v250h-250v-250zM333 383v167h84v-167h-84zM333 550h-250v83h250v-83z" />
    <glyph glyph-name="agrave" unicode="&#xe0;" horiz-adv-x="500" 
d="M83 383v84h250v-84h84v-416h-334v83h250v167h-250v-167h-83v167h83v83h250v83h-250zM167 717v83h83v-83h83v-84h-83v84h-83z" />
    <glyph glyph-name="aacute" unicode="&#xe1;" horiz-adv-x="500" 
d="M83 383v84h250v-84h84v-416h-334v83h250v167h-250v-167h-83v167h83v83h250v83h-250zM167 633v84h83v-84h-83zM250 717v83h83v-83h-83z" />
    <glyph glyph-name="acircumflex" unicode="&#xe2;" horiz-adv-x="500" 
d="M83 383v84h250v-84h84v-416h-334v83h250v167h-250v-167h-83v167h83v83h250v83h-250zM83 633v84h84v-84h-84zM333 717h84v-84h-84v84zM333 717h-166v83h166v-83z" />
    <glyph glyph-name="atilde" unicode="&#xe3;" horiz-adv-x="500" 
d="M83 383v84h250v-84h84v-416h-334v83h250v167h-250v-167h-83v167h83v83h250v83h-250zM0 633v84h83v-84h-83zM333 633h-166v84h-84v83h167v-83h83v-84zM333 717v83h84v-83h-84z" />
    <glyph glyph-name="adieresis" unicode="&#xe4;" horiz-adv-x="500" 
d="M83 383v84h250v-84h84v-416h-334v83h250v167h-250v-167h-83v167h83v83h250v83h-250zM333 800v-167h-83v167h83zM167 800v-167h-84v167h84z" />
    <glyph glyph-name="aring" unicode="&#xe5;" horiz-adv-x="500" 
d="M83 383v84h250v-84h84v-416h-334v83h250v167h-250v-167h-83v167h83v83h250v83h-250zM83 633v84h84v-84h166v-83h-166v83h-84zM333 633v84h84v-84h-84zM333 717h-166v83h166v-83z" />
    <glyph glyph-name="ae" unicode="&#xe6;" horiz-adv-x="500" 
d="M0 383v84h417v-250h-167v-167h167v-83h-417v333h167v83h-167zM167 50v167h-84v-167h84zM333 300v83h-83v-83h83z" />
    <glyph glyph-name="ccedilla" unicode="&#xe7;" horiz-adv-x="500" 
d="M83 -200v83h84v-83h-84zM167 -117v84h-84v83h250v-83h-83v-84h-83zM333 50v83h84v-83h-84zM83 50h-83v333h83v-333zM333 383h84v-83h-84v83zM333 383h-250v84h250v-84z" />
    <glyph glyph-name="egrave" unicode="&#xe8;" horiz-adv-x="500" 
d="M167 717v83h83v-83h83v-84h-83v84h-83zM333 -33h-250v83h250v-83zM333 50v83h84v-83h-84zM83 50h-83v333h83v-83h250v83h84v-166h-334v-167zM333 383h-250v84h250v-84z" />
    <glyph glyph-name="eacute" unicode="&#xe9;" horiz-adv-x="500" 
d="M167 633v84h83v-84h-83zM333 -33h-250v83h250v-83zM333 50v83h84v-83h-84zM83 50h-83v333h83v-83h250v83h84v-166h-334v-167zM333 383h-250v84h250v-84zM250 717v83h83v-83h-83z" />
    <glyph glyph-name="ecircumflex" unicode="&#xea;" horiz-adv-x="500" 
d="M83 633v84h84v-84h-84zM333 -33h-250v83h250v-83zM333 50v83h84v-83h-84zM83 50h-83v333h83v-83h250v83h84v-166h-334v-167zM333 383h-250v84h250v-84zM333 717h84v-84h-84v84zM333 717h-166v83h166v-83z" />
    <glyph glyph-name="edieresis" unicode="&#xeb;" horiz-adv-x="500" 
d="M333 -33h-250v83h250v-83zM333 50v83h84v-83h-84zM83 50h-83v333h83v-83h250v83h84v-166h-334v-167zM333 383h-250v84h250v-84zM333 800v-167h-83v167h83zM167 800v-167h-84v167h84z" />
    <glyph glyph-name="igrave" unicode="&#xec;" horiz-adv-x="500" 
d="M83 -33v83h84v333h-84v84h167v-417h83v-83h-250zM167 717v83h83v-83h83v-84h-83v84h-83z" />
    <glyph glyph-name="iacute" unicode="&#xed;" horiz-adv-x="500" 
d="M83 -33v83h84v333h-84v84h167v-417h83v-83h-250zM167 633v84h83v-84h-83zM250 717v83h83v-83h-83z" />
    <glyph glyph-name="icircumflex" unicode="&#xee;" horiz-adv-x="500" 
d="M83 -33v83h84v333h-84v84h167v-417h83v-83h-250zM83 633v84h84v-84h-84zM333 717h84v-84h-84v84zM333 717h-166v83h166v-83z" />
    <glyph glyph-name="idieresis" unicode="&#xef;" horiz-adv-x="500" 
d="M83 -33v83h84v333h-84v84h167v-417h83v-83h-250zM333 800v-167h-83v167h83zM167 800v-167h-84v167h84z" />
    <glyph glyph-name="eth" unicode="&#xf0;" horiz-adv-x="500" 
d="M0 550v83h167v84h250v-84h-167v-83h83v-167h84v-333h-84v-83h-250v83h250v333h-250v-333h-83v333h83v84h167v83h-250zM83 717v83h84v-83h-84z" />
    <glyph glyph-name="ntilde" unicode="&#xf1;" horiz-adv-x="500" 
d="M0 633v84h83v-84h-83zM417 383v-416h-84v416h84zM83 300v-333h-83v500h83v-84h84v-83h-84zM333 383h-166v84h166v-84zM333 633h-166v84h-84v83h167v-83h83v-84zM333 717v83h84v-83h-84z" />
    <glyph glyph-name="ograve" unicode="&#xf2;" horiz-adv-x="500" 
d="M167 717v83h83v-83h83v-84h-83v84h-83zM333 -33h-250v83h250v-83zM333 50v333h84v-333h-84zM83 50h-83v333h83v-333zM333 383h-250v84h250v-84z" />
    <glyph glyph-name="oacute" unicode="&#xf3;" horiz-adv-x="500" 
d="M167 633v84h83v-84h-83zM333 -33h-250v83h250v-83zM333 50v333h84v-333h-84zM83 50h-83v333h83v-333zM333 383h-250v84h250v-84zM250 717v83h83v-83h-83z" />
    <glyph glyph-name="ocircumflex" unicode="&#xf4;" horiz-adv-x="500" 
d="M83 633v84h84v-84h-84zM333 -33h-250v83h250v-83zM333 50v333h84v-333h-84zM83 50h-83v333h83v-333zM333 383h-250v84h250v-84zM333 717h84v-84h-84v84zM333 717h-166v83h166v-83z" />
    <glyph glyph-name="otilde" unicode="&#xf5;" horiz-adv-x="500" 
d="M0 633v84h83v-84h-83zM333 -33h-250v83h250v-83zM333 50v333h84v-333h-84zM83 50h-83v333h83v-333zM333 383h-250v84h250v-84zM333 633h-166v84h-84v83h167v-83h83v-84zM333 717v83h84v-83h-84z" />
    <glyph glyph-name="odieresis" unicode="&#xf6;" horiz-adv-x="500" 
d="M333 -33h-250v83h250v-83zM333 50v333h84v-333h-84zM83 50h-83v333h83v-333zM333 383h-250v84h250v-84zM333 800v-167h-83v167h83zM167 800v-167h-84v167h84z" />
    <glyph glyph-name="divide" unicode="&#xf7;" horiz-adv-x="500" 
d="M0 300v83h417v-83h-417zM250 217v-167h-83v167h83zM250 633v-166h-83v166h83z" />
    <glyph glyph-name="oslash" unicode="&#xf8;" horiz-adv-x="500" 
d="M0 -117v84h83v-84h-83zM333 -33h-250v83h-83v333h83v-250h84v-83h166v-83zM333 50v250h-83v-167h-83v167h83v83h-167v84h250v-84h84v-333h-84zM333 467v83h84v-83h-84z" />
    <glyph glyph-name="ugrave" unicode="&#xf9;" horiz-adv-x="500" 
d="M167 717v83h83v-83h83v-84h-83v84h-83zM250 -33h-167v83h167v-83zM417 467v-500h-84v83h-83v83h83v334h84zM83 50h-83v417h83v-417z" />
    <glyph glyph-name="uacute" unicode="&#xfa;" horiz-adv-x="500" 
d="M167 633v84h83v-84h-83zM250 -33h-167v83h167v-83zM417 467v-500h-84v83h-83v83h83v334h84zM83 50h-83v417h83v-417zM250 717v83h83v-83h-83z" />
    <glyph glyph-name="ucircumflex" unicode="&#xfb;" horiz-adv-x="500" 
d="M83 633v84h84v-84h-84zM250 -33h-167v83h167v-83zM417 467v-500h-84v83h-83v83h83v334h84zM83 50h-83v417h83v-417zM333 717h84v-84h-84v84zM333 717h-166v83h166v-83z" />
    <glyph glyph-name="udieresis" unicode="&#xfc;" horiz-adv-x="500" 
d="M250 -33h-167v83h167v-83zM417 467v-500h-84v83h-83v83h83v334h84zM83 50h-83v417h83v-417zM333 800v-167h-83v167h83zM167 800v-167h-84v167h84z" />
    <glyph glyph-name="yacute" unicode="&#xfd;" horiz-adv-x="500" 
d="M0 -117v84h83v-84h250v-83h-250v83h-83zM167 633v84h83v-84h-83zM333 -117v167h-250v83h250v334h84v-584h-84zM83 133h-83v334h83v-334zM250 717v83h83v-83h-83z" />
    <glyph glyph-name="thorn" unicode="&#xfe;" horiz-adv-x="500" 
d="M83 50v-250h-83v833h83v-166h250v-84h84v-250h-84v-83h-250zM83 133h250v250h-250v-250z" />
    <glyph glyph-name="ydieresis" unicode="&#xff;" horiz-adv-x="500" 
d="M0 -117v84h83v-84h250v-83h-250v83h-83zM333 -117v167h-250v83h250v334h84v-584h-84zM83 133h-83v334h83v-334zM333 800v-167h-83v167h83zM167 800v-167h-84v167h84z" />
    <glyph glyph-name="Alpha" unicode="&#x391;" 
d="M583 -33v83h84v167h83v-167h167v-83h-334zM0 -33v83h167v167h83v-167h83v-83h-333zM250 717v83h250v-167h83v-166h84v-250h-417v250h83v-167h250v167h-83v166h-83v-166h-84v166h84v84h-167z" />
    <glyph glyph-name="Beta" unicode="&#x392;" 
d="M83 -33v83h167v667h-167v83h584v-83h83v-250h-83v-84h83v-83h83v-167h-83v-83h-83v-83h-584zM333 50h334v83h83v167h-83v83h-334v-333zM333 467h334v250h-334v-250z" />
    <glyph glyph-name="Gamma" unicode="&#x393;" 
d="M167 -33v83h166v667h-166v83h666v-250h-83v167h-333v-667h166v-83h-416z" />
    <glyph glyph-name="uni0394" unicode="&#x394;" 
d="M833 -33h-750v166h84v-83h583v83h83v-166zM750 133h-83v167h83v-167zM167 133v167h83v-167h-83zM667 300h-84v167h84v-167zM250 300v167h83v-167h-83zM583 467h-83v166h83v-166zM333 467v166h84v-166h-84zM500 633h-83v167h83v-167z" />
    <glyph glyph-name="Epsilon" unicode="&#x395;" 
d="M167 -33v83h166v667h-166v83h666v-167h-83v84h-333v-250h166v83h84v-250h-84v83h-166v-333h333v167h83v-250h-666z" />
    <glyph glyph-name="Zeta" unicode="&#x396;" 
d="M750 -33h-583v250h83v-167h417v167h83v-250zM250 217v83h83v-83h-83zM333 300v83h84v-83h-84zM417 383v84h83v-84h-83zM500 467v83h83v-83h-83zM583 550v83h84v-83h-84zM667 633v84h-417v-167h-83v250h583v-167h-83z" />
    <glyph glyph-name="Eta" unicode="&#x397;" 
d="M583 -33v83h84v333h-334v-333h84v-83h-334v83h167v667h-167v83h334v-83h-84v-250h334v250h-84v83h334v-83h-167v-667h167v-83h-334z" />
    <glyph glyph-name="Theta" unicode="&#x398;" 
d="M750 -33h-500v83h500v-83zM750 50v83h83v-83h-83zM250 50h-83v83h83v-83zM833 133v500h84v-500h-84zM167 133h-84v500h84v-500zM750 550v-250h-83v83h-334v-83h-83v250h83v-83h334v83h83zM833 633h-83v84h83v-84zM167 633v84h83v-84h-83zM750 717h-500v83h500v-83z" />
    <glyph glyph-name="Iota" unicode="&#x399;" 
d="M250 -33v83h167v667h-167v83h417v-83h-167v-667h167v-83h-417z" />
    <glyph glyph-name="Kappa" unicode="&#x39a;" 
d="M583 -33v83h84v83h83v-83h167v-83h-334zM83 -33v83h167v667h-167v83h334v-83h-84v-334h84v84h83v-167h83v-83h84v-84h-84v84h-83v83h-167v-250h84v-83h-334zM583 717v83h334v-83h-167v-84h-83v-83h-84v-83h-83v83h83v83h84v84h-84z" />
    <glyph glyph-name="Lambda" unicode="&#x39b;" 
d="M583 -33v83h84v167h83v-167h167v-83h-334zM0 -33v83h167v167h83v-167h83v-83h-333zM250 717v83h250v-167h83v-166h84v-250h-84v250h-83v166h-83v-166h-84v-250h-83v250h83v166h84v84h-167z" />
    <glyph glyph-name="Mu" unicode="&#x39c;" 
d="M583 -33v83h84v500h-84v-250h-83v-250h-83v250h83v250h83v250h334v-83h-167v-667h167v-83h-334zM0 -33v83h167v667h-167v83h333v-250h84v-250h-84v250h-83v-500h83v-83h-333z" />
    <glyph glyph-name="Nu" unicode="&#x39d;" 
d="M83 -33v83h167v667h-167v83h334v-167h83v-166h83v-167h84v417h-84v83h334v-83h-167v-750h-83v166h-84v167h-83v167h-83v166h-84v-583h84v-83h-334z" />
    <glyph glyph-name="Xi" unicode="&#x39e;" 
d="M167 300v83h83v-83h-83zM167 633v84h83v-84h-83zM667 -33h-667v166h83v-83h500v83h84v-166zM667 133v84h83v-84h-83zM83 133v84h84v-84h-84zM667 467v-167h-84v83h-333v167h83v-83h334zM667 467v83h83v-83h-83zM833 717v-84h-83v84h-500v83h667v-83h-84z" />
    <glyph glyph-name="Omicron" unicode="&#x39f;" 
d="M667 -33h-417v83h417v-83zM667 50v83h83v-83h-83zM250 50h-83v83h83v-83zM750 133v500h83v-500h-83zM167 133h-84v500h84v-500zM750 633h-83v84h83v-84zM167 633v84h83v-84h-83zM667 717h-417v83h417v-83z" />
    <glyph glyph-name="Pi" unicode="&#x3a0;" 
d="M583 -33v83h84v667h-334v-667h84v-83h-334v83h167v667h-83v83h666v-83h-83v-667h167v-83h-334z" />
    <glyph glyph-name="Rho" unicode="&#x3a1;" 
d="M83 -33v83h167v667h-167v83h584v-83h83v-84h83v-166h-83v-84h-83v-83h-334v-250h84v-83h-334zM333 383h334v84h83v166h-83v84h-334v-334z" />
    <glyph glyph-name="Sigma" unicode="&#x3a3;" 
d="M167 717v83h500v83h83v-333h-83v167h-334v-84h84v-83h83v-83h83v-84h-83v-83h-83v-83h-84v-84h-83v-83h417v167h83v-334h-83v84h-500v166h83v84h83v83h84v83h83v84h-83v83h-84v83h-83v84h-83z" />
    <glyph glyph-name="Tau" unicode="&#x3a4;" 
d="M250 -33v83h167v667h-250v-167h-84v250h750v-250h-83v167h-250v-667h167v-83h-417z" />
    <glyph glyph-name="Upsilon" unicode="&#x3a5;" 
d="M250 -33v83h167v583h83v-583h167v-83h-417zM0 550v83h83v-83h-83zM833 633h84v-83h-84v83zM833 633h-83v84h83v-84zM500 633v84h83v-84h-83zM417 633h-84v84h84v-84zM83 633v84h84v-84h-84zM750 717h-167v83h167v-83zM333 717h-166v83h166v-83z" />
    <glyph glyph-name="Phi" unicode="&#x3a6;" 
d="M250 -33v83h167v83h-167v84h167v333h-167v-83h-83v-167h83v-83h-83v83h-84v167h84v83h83v83h167v84h-167v83h417v-83h-167v-84h167v-83h83v-83h83v-167h-83v-83h-83v-84h-167v-83h167v-83h-417zM500 217h167v83h83v167h-83v83h-167v-333z" />
    <glyph glyph-name="Chi" unicode="&#x3a7;" 
d="M500 -33v83h83v167h84v-167h166v-83h-333zM83 -33v83h167v167h83v-167h84v-83h-334zM500 717v83h333v-83h-166v-167h-84v-83h-83v-167h83v-83h-83v83h-83v-83h-84v83h84v167h83v83h83v167h-83zM83 717v83h334v-83h-84v-167h84v-83h-84v83h-83v167h-167z" />
    <glyph glyph-name="Psi" unicode="&#x3a8;" 
d="M250 -33v83h167v167h-167v83h167v417h-167v83h417v-83h-167v-417h167v-83h-167v-167h167v-83h-417zM0 467v83h83v-83h-83zM667 300v250h83v-250h-83zM250 300h-83v250h83v-250zM833 550h84v-83h-84v83zM833 550h-83v83h83v-83zM167 550h-84v83h84v-83z" />
    <glyph glyph-name="uni03A9" unicode="&#x3a9;" 
d="M833 -33h-250v250h84v-167h83v83h83v-166zM417 -33h-250v166h83v-83h83v167h84v-250zM667 217v83h83v-83h-83zM333 217h-83v83h83v-83zM750 300v333h83v-333h-83zM250 300h-83v333h83v-333zM750 633h-83v84h83v-84zM250 633v84h83v-84h-83zM667 717h-334v83h334v-83z" />
    <glyph glyph-name="alpha" unicode="&#x3b1;" 
d="M750 -33h-167v83h167v-83zM417 -33h-250v83h250v-83zM583 50h-166v83h83v84h83v-167zM167 50h-84v250h84v-250zM583 217v166h84v-166h-84zM167 300v167h166v-84h-83v-83h-83zM667 383v84h83v-84h-83zM583 383h-83v84h83v-84zM750 467v83h83v-83h-83zM500 467h-167v83h167
v-83z" />
    <glyph glyph-name="beta" unicode="&#x3b2;" 
d="M500 467v83h83v-83h84v-84h83v-250h-83v-83h-250v83h250v250h-84v84h-83zM250 217v-334h-83v334h83zM417 133h-84v84h84v-84zM333 217h-83v250h83v-250zM667 467v250h83v-250h-83zM333 467v166h84v-166h-84zM417 633v84h83v-84h-83zM667 717h-167v83h167v-83z" />
    <glyph glyph-name="gamma" unicode="&#x3b3;" 
d="M167 467v83h166v-83h84v-84h83v-166h-83v-167h-84v-167h-83v167h83v167h84v166h-84v84h-166zM500 383v84h83v-84h-83zM750 467h83v-84h-83v84zM750 467h-167v83h167v-83z" />
    <glyph glyph-name="delta" unicode="&#x3b4;" 
d="M500 -33h-250v83h250v-83zM500 50v83h83v-83h-83zM250 50h-83v250h83v-250zM583 133v250h84v-250h-84zM250 300v83h83v-83h-83zM583 383h-83v84h83v-84zM333 383v84h84v-84h-84zM500 467h-83v83h83v-83zM417 550h-84v167h84v-167zM750 633h-167v84h167v-84zM583 717h-166
v83h166v-83z" />
    <glyph glyph-name="epsilon" unicode="&#x3b5;" 
d="M667 -33h-334v83h334v-83zM667 50v83h83v-83h-83zM333 50h-83v167h83v-167zM500 217h-167v83h84v83h250v-83h-167v-83zM417 383h-84v167h84v-167zM750 550h83v-83h-83v83zM750 550h-333v83h333v-83z" />
    <glyph glyph-name="zeta" unicode="&#x3b6;" 
d="M333 -117v84h250v-84h-250zM583 -33v83h84v-83h-84zM583 50h-166v83h166v-83zM417 133h-167v84h167v-84zM250 217h-83v166h83v-166zM250 383v84h83v-84h-83zM333 467v83h84v-83h-84zM583 550h-166v83h166v-83zM333 550h-83v167h83v-167zM750 633h-167v84h167v-84z
M333 717v83h84v-83h-84z" />
    <glyph glyph-name="eta" unicode="&#x3b7;" 
d="M167 550v83h166v-83h167v-83h-83v-84h-84v-166h-83v-167h-83v167h83v166h83v167h-166zM583 133v-166h-83v166h83zM583 133v167h84v-167h-84zM667 300v250h83v-250h-83zM667 550h-167v83h167v-83z" />
    <glyph glyph-name="theta" unicode="&#x3b8;" 
d="M500 -117h-167v84h167v-84zM500 -33v83h83v-83h-83zM333 -33h-83v500h83v-84h334v334h83v-500h-83v-167h-84v167h84v83h-334v-333zM333 467v166h84v-166h-84zM417 633v84h83v-84h-83zM667 717h-167v83h167v-83z" />
    <glyph glyph-name="iota" unicode="&#x3b9;" 
d="M583 -33h-333v83h333v-83zM583 50v83h84v-83h-84zM250 50h-83v167h83v-167zM667 133v167h83v-167h-83zM250 217v166h83v-166h-83zM333 383v250h84v-250h-84z" />
    <glyph glyph-name="kappa" unicode="&#x3ba;" 
d="M250 550v83h83v-83h84v-167h83v-166h83v-167h84v-83h-84v83h-83v167h-83v83h-84v-167h-83v-166h-83v166h83v167h83v250h-83zM667 50v83h83v-83h-83zM500 383v84h83v-84h-83zM583 467v83h84v-83h-84zM833 550h-166v83h166v-83z" />
    <glyph glyph-name="lambda" unicode="&#x3bb;" 
d="M250 717v83h250v-83h83v-500h84v-167h166v-83h-166v83h-84v167h-83v166h-167v-83h-83v-167h-83v-166h-84v166h84v167h83v83h83v84h167v250h-250z" />
    <glyph glyph-name="uni03BC" unicode="&#x3bc;" 
d="M833 -33h-166v83h166v-83zM250 50v-167h-83v167h83zM667 50h-84v83h-83v-83h-250v250h83v-167h167v84h83v83h84v-250zM667 300v167h83v-167h-83zM333 300v250h84v-250h-84zM750 467v166h83v-166h-83z" />
    <glyph glyph-name="nu" unicode="&#x3bd;" 
d="M167 467v83h166v-83h84v-250h-84v-167h167v-83h-250v250h83v250h-166zM500 50v83h83v-83h-83zM583 133v167h84v-167h-84zM667 300v167h83v-167h-83zM750 467v166h83v-166h-83z" />
    <glyph glyph-name="xi" unicode="&#x3be;" 
d="M333 -117v84h250v-84h-250zM583 -33v166h84v-166h-84zM583 133h-333v84h333v-84zM250 217h-83v166h83v-166zM750 383h-500v167h83v-83h417v-84zM750 550h-417v167h84v-84h333v-83zM750 717h-333v83h333v-83z" />
    <glyph glyph-name="omicron" unicode="&#x3bf;" 
d="M500 -33h-250v83h250v-83zM667 50h-167v83h83v84h84v-167zM250 50h-83v333h83v-333zM667 217v333h83v-333h-83zM250 383v167h167v-83h-84v-84h-83zM667 550h-250v83h250v-83z" />
    <glyph glyph-name="pi" unicode="&#x3c0;" 
d="M83 -33v83h84v-83h-84zM417 50v83h83v-83h250v-83h-250v83h-83zM167 467v83h583v-83h-83v-167h-84v-167h-83v167h83v167h-166v-167h-84v-167h-83v-83h-83v83h83v167h83v167h-166zM750 50v167h83v-167h-83zM750 550v83h83v-83h-83z" />
    <glyph glyph-name="rho" unicode="&#x3c1;" 
d="M250 133v-250h-83v334h83v166h83v-250h250v-83h-250v83h-83zM750 133h-167v84h84v83h83v-167zM750 300v250h83v-250h-83zM333 383v167h167v-83h-83v-84h-84zM750 550h-250v83h250v-83z" />
    <glyph glyph-name="sigma" unicode="&#x3c3;" 
d="M417 -33h-250v83h250v-83zM583 50h-166v83h83v84h83v-167zM167 50h-84v333h84v-333zM583 217v333h-250v-83h-83v-84h-83v167h166v83h500v-83h-166v-333h-84zM833 633v84h84v-84h-84z" />
    <glyph glyph-name="tau" unicode="&#x3c4;" 
d="M167 467v83h583v-83h-250v-167h-83v-250h250v-83h-250v83h-84v250h84v167h-250zM667 50v83h83v-83h-83zM750 133v84h83v-84h-83zM750 550v83h83v-83h-83z" />
    <glyph glyph-name="upsilon" unicode="&#x3c5;" 
d="M667 550v83h83v-83h83v-167h-83v-166h-83v-84h-84v-83h-83v-83h-250v83h250v83h83v84h84v166h83v167h-83zM250 50h-83v167h83v-167zM250 217v166h83v-166h-83zM333 383v250h84v-250h-84z" />
    <glyph glyph-name="phi" unicode="&#x3c6;" 
d="M417 50v-167h-84v167h-83v83h167v417h-84v-83h-83v-334h-83v334h83v83h83v83h167v167h83v-167h84v-83h83v-333h-83v-84h-84v-83h-166zM583 133v84h84v333h-167v-417h83z" />
    <glyph glyph-name="chi" unicode="&#x3c7;" 
d="M167 -117v84h83v-84h-83zM250 467v83h83v-83h-83zM750 -117h-167v84h167v-84zM750 -33v83h83v-83h-83zM583 -33h-83v166h-83v-83h-84v-83h-83v83h83v83h84v84h83v333h83v-83h84v-84h-84v-416zM833 50v83h84v-83h-84zM667 467v83h83v-83h-83zM750 550v83h83v-83h-83z
M500 550h-167v83h167v-83z" />
    <glyph glyph-name="psi" unicode="&#x3c8;" 
d="M83 467v83h167v-83h83v-167h-83v-167h167v250h83v-250h167v-83h-250v-167h-84v167h-83v83h-83v167h83v167h-167zM667 133v167h83v-167h-83zM750 300v167h83v-167h-83zM500 383v250h83v-250h-83zM833 467v83h84v-83h-84zM583 633v167h84v-167h-84z" />
    <glyph glyph-name="omega" unicode="&#x3c9;" 
d="M667 -33h-167v83h167v-83zM417 -33h-167v83h167v-83zM667 50v83h83v-83h-83zM500 50h-83v250h83v-250zM250 50h-83v333h83v-333zM750 133v334h83v-334h-83zM250 383v84h83v-84h-83z" />
    <glyph glyph-name="uni0401" unicode="&#x401;" 
d="M83 -33v83h167v583h-167v84h667v-167h83v-83h-83v83h-83v83h-334v-250h167v84h83v-250h-83v83h-167v-250h417v83h83v-166h-750zM583 800v83h167v-83h-167zM167 800v83h166v-83h-166zM833 133v84h84v-84h-84z" />
    <glyph glyph-name="uni0410" unicode="&#x410;" 
d="M583 -33v83h84v167h83v-167h167v-83h-334zM0 -33v83h167v167h83v-167h83v-83h-333zM250 717v83h250v-167h83v-166h84v-250h-417v250h83v-167h250v167h-83v166h-83v-166h-84v166h84v84h-167z" />
    <glyph glyph-name="uni0411" unicode="&#x411;" 
d="M83 -33v83h167v667h-167v83h584v-83h83v-84h83v-83h-83v83h-83v84h-334v-250h334v-84h83v-83h83v-167h-83v-83h-83v-83h-584zM333 50h334v83h83v167h-83v83h-334v-333z" />
    <glyph glyph-name="uni0412" unicode="&#x412;" 
d="M83 -33v83h167v667h-167v83h584v-83h83v-250h-83v-84h83v-83h83v-167h-83v-83h-83v-83h-584zM333 50h334v83h83v167h-83v83h-334v-333zM333 467h334v250h-334v-250z" />
    <glyph glyph-name="uni0413" unicode="&#x413;" 
d="M167 -33v83h166v667h-166v83h666v-250h-83v167h-333v-667h83v-83h-333z" />
    <glyph glyph-name="uni0414" unicode="&#x414;" 
d="M83 -117v84h84v-84h-84zM167 717v83h666v-83h-83v-667h83v-83h84v-84h-84v84h-83v83h-500v-83h-83v166h83v167h83v-167h334v584h-250v-417h-84v417h-166z" />
    <glyph glyph-name="uni0415" unicode="&#x415;" 
d="M83 -33v83h167v667h-167v83h584v-167h83v-83h-83v83h-84v84h-250v-250h167v83h83v-250h-83v83h-167v-333h334v83h83v-166h-667zM750 133v84h83v-84h-83z" />
    <glyph glyph-name="uni0416" unicode="&#x416;" 
d="M250 -33v83h167v333h-84v-83h-83v-167h-83v-166h-167v83h83v83h84v167h83v167h167v250h-167v83h417v-83h-167v-250h167v-167h83v-167h83v-83h84v-83h-167v166h-83v167h-84v83h-83v-333h167v-83h-417zM0 550v83h83v-83h-83zM667 467v166h83v-166h-83zM250 467h-83v166h83
v-166zM833 633h84v-83h-84v83zM833 633h-83v84h83v-84zM167 633h-84v84h84v-84z" />
    <glyph glyph-name="uni0417" unicode="&#x417;" 
d="M500 383v84h167v-84h83v-83h83v-167h-83v-83h-83v-83h-334v83h334v83h83v167h-83v83h-167zM333 50h-83v-83h-83v250h83v-84h83v-83zM667 467v83h83v-83h-83zM750 550v83h83v-83h-83zM750 633h-83v84h83v-84zM250 633v-83h-83v250h83v-83h83v-84h-83zM667 717h-334v83h334
v-83z" />
    <glyph glyph-name="uni0418" unicode="&#x418;" 
d="M583 -33v83h84v583h-84v-166h-83v-167h-83v-167h-84v-166h-250v83h167v667h-167v83h334v-83h-84v-417h84v167h83v166h83v167h334v-83h-167v-667h167v-83h-334z" />
    <glyph glyph-name="uni0419" unicode="&#x419;" 
d="M583 -33v83h84v417h-84v-167h-83v-167h-83v-166h-334v83h167v583h-167v84h250v-584h84v167h83v167h83v166h84v84h250v-84h-167v-583h167v-83h-334zM333 800v83h84v-83h166v-83h-166v83h-84zM583 800v83h84v-83h-84z" />
    <glyph glyph-name="uni041A" unicode="&#x41a;" 
d="M583 -33v83h84v83h83v-83h167v-83h-334zM83 -33v83h167v667h-167v83h334v-83h-84v-334h84v84h83v-167h83v-83h84v-84h-84v84h-83v83h-167v-250h84v-83h-334zM500 467v83h83v-83h-83zM583 550v167h84v-167h-84zM833 717h84v-84h-84v84zM833 717h-166v83h166v-83z" />
    <glyph glyph-name="uni041B" unicode="&#x41b;" 
d="M583 -33v83h84v667h-167v-584h-83v-83h-84v-83h-166v83h166v83h84v584h-167v83h667v-83h-167v-667h167v-83h-334zM167 50h-84v250h84v-250z" />
    <glyph glyph-name="uni041C" unicode="&#x41c;" 
d="M583 -33v83h84v500h83v-500h167v-83h-334zM0 -33v83h167v500h83v-500h83v-83h-333zM83 717v83h250v-250h84v-250h83v-250h-83v250h-84v250h-83v167h-167zM500 300v250h83v-250h-83zM667 550h-84v250h250v-83h-166v-167z" />
    <glyph glyph-name="uni041D" unicode="&#x41d;" 
d="M583 -33v83h84v333h-334v-333h84v-83h-334v83h167v667h-167v83h334v-83h-84v-250h334v250h-84v83h334v-83h-167v-667h167v-83h-334z" />
    <glyph glyph-name="uni041E" unicode="&#x41e;" 
d="M667 -33h-417v83h417v-83zM667 50v83h83v-83h-83zM250 50h-83v83h83v-83zM750 133v500h83v-500h-83zM167 133h-84v500h84v-500zM750 633h-83v84h83v-84zM167 633v84h83v-84h-83zM667 717h-417v83h417v-83z" />
    <glyph glyph-name="uni041F" unicode="&#x41f;" 
d="M583 -33v83h84v667h-334v-667h84v-83h-334v83h167v667h-83v83h666v-83h-83v-667h167v-83h-334z" />
    <glyph glyph-name="uni0420" unicode="&#x420;" 
d="M83 -33v83h167v667h-167v83h584v-83h83v-84h83v-166h-83v-84h-83v-83h-334v-250h84v-83h-334zM333 383h334v84h83v166h-83v84h-334v-334z" />
    <glyph glyph-name="uni0421" unicode="&#x421;" 
d="M667 -33h-334v83h334v-83zM833 50h-166v83h83v84h83v-167zM333 50h-83v83h83v-83zM250 133h-83v500h83v-500zM833 800v-250h-83v83h-83v84h83v83h83zM250 633v84h83v-84h-83zM667 717h-334v83h334v-83z" />
    <glyph glyph-name="uni0422" unicode="&#x422;" 
d="M250 -33v83h167v667h-250v-167h-84v-83h-83v83h83v250h750v-250h84v-83h-84v83h-83v167h-250v-667h167v-83h-417z" />
    <glyph glyph-name="uni0423" unicode="&#x423;" 
d="M583 717v83h334v-83h-167v-167h-83v-167h-84v-166h-83v-167h-83v-83h-84v-84h-166v84h166v83h84v167h83v166h83v167h84v167h-84zM83 717v83h334v-83h-84v-167h84v-333h-84v333h-83v167h-167zM167 -33h-84v166h84v-166z" />
    <glyph glyph-name="uni0424" unicode="&#x424;" 
d="M250 -33v83h167v83h-167v84h167v333h-167v-83h-83v-167h83v-83h-83v83h-84v167h84v83h83v83h167v84h-167v83h417v-83h-167v-84h167v-83h83v-83h83v-167h-83v-83h-83v-84h-167v-83h167v-83h-417zM500 217h167v83h83v167h-83v83h-167v-333z" />
    <glyph glyph-name="uni0425" unicode="&#x425;" 
d="M500 -33v83h83v167h84v-167h166v-83h-333zM83 -33v83h167v167h83v-167h84v-83h-334zM500 717v83h333v-83h-166v-167h-84v-83h-83v-167h83v-83h-83v83h-83v-83h-84v83h84v167h83v83h83v167h-83zM83 717v83h334v-83h-84v-167h84v-83h-84v83h-83v167h-167z" />
    <glyph glyph-name="uni0426" unicode="&#x426;" 
d="M83 -33v83h167v667h-167v83h334v-83h-84v-667h250v667h-83v83h333v-83h-166v-667h166v-83h84v-84h-84v84h-750z" />
    <glyph glyph-name="uni0427" unicode="&#x427;" 
d="M583 -33v83h84v250h-84v-83h-250v83h250v83h84v334h-84v83h334v-83h-167v-667h167v-83h-334zM83 717v83h334v-83h-84v-417h-83v417h-167z" />
    <glyph glyph-name="uni0428" unicode="&#x428;" 
d="M0 -33v83h167v667h-167v83h250v-750h167v667h-84v83h250v-83h-83v-667h167v750h250v-83h-167v-667h167v-83h-917z" />
    <glyph glyph-name="uni0429" unicode="&#x429;" 
d="M0 -33v83h167v667h-167v83h250v-750h167v667h-84v83h250v-83h-83v-667h167v750h250v-83h-167v-667h167v-83h83v-84h-83v84h-917z" />
    <glyph glyph-name="uni042A" unicode="&#x42a;" 
d="M167 -33v83h166v667h-166v-167h-84v250h500v-83h-166v-250h333v-84h83v-83h84v-167h-84v-83h-83v-83h-583zM417 50h333v83h83v167h-83v83h-333v-333z" />
    <glyph glyph-name="uni042B" unicode="&#x42b;" 
d="M0 -33v83h167v667h-167v83h417v-83h-167v-250h250v-84h83v-333h84v667h-167v83h417v-83h-167v-667h167v-83h-334v83h-83v-83h-500zM250 50h250v333h-250v-333z" />
    <glyph glyph-name="uni042C" unicode="&#x42c;" 
d="M83 -33v83h167v667h-167v83h417v-83h-167v-250h334v-84h83v-83h83v-167h-83v-83h-83v-83h-584zM333 50h334v83h83v167h-83v83h-334v-333z" />
    <glyph glyph-name="uni042D" unicode="&#x42d;" 
d="M333 300v83h84v-83h-84zM667 -33h-334v83h334v-83zM667 50v83h83v-83h-83zM333 50h-83v-83h-83v250h83v-84h83v-83zM750 133v167h-167v83h167v250h83v-500h-83zM583 383h-166v84h166v-84zM750 633h-83v84h83v-84zM250 633v-83h-83v250h83v-83h83v-84h-83zM667 717h-334
v83h334v-83z" />
    <glyph glyph-name="uni042E" unicode="&#x42e;" 
d="M0 -33v83h167v667h-167v83h333v-83h-83v-250h167v166h83v-500h83v-83h167v-83h-167v83h-83v83h-83v250h-167v-333h83v-83h-333zM750 50v83h83v-83h-83zM833 133v500h84v-500h-84zM833 633h-83v84h83v-84zM500 633v84h83v-84h-83zM750 717h-167v83h167v-83z" />
    <glyph glyph-name="uni042F" unicode="&#x42f;" 
d="M583 -33v83h84v250h-167v-83h-83v-84h-84v-83h-83v-83h-167v83h167v83h83v84h84v83h-84v83h334v334h-334v-84h-83v-166h83v-84h-83v84h-83v166h83v84h83v83h584v-83h-167v-667h167v-83h-334z" />
    <glyph glyph-name="uni0430" unicode="&#x430;" 
d="M250 467v83h83v-83h-83zM833 -33h-166v83h-84v-83h-250v83h250v83h84v167h-250v-83h-84v-167h-83v250h167v83h250v167h83v-500h83v-83zM667 550h-334v83h334v-83z" />
    <glyph glyph-name="uni0431" unicode="&#x431;" 
d="M583 -33h-166v83h166v-83zM583 50v83h84v-83h-84zM417 50h-84v83h84v-83zM667 133v250h83v-250h-83zM333 133h-83v500h83v-166h84v-84h-84v-250zM667 383h-84v84h84v-84zM583 467h-166v83h166v-83zM333 633v84h84v-84h-84zM583 717h-166v83h166v-83zM583 800v83h84v-83
h-84z" />
    <glyph glyph-name="uni0432" unicode="&#x432;" 
d="M167 -33v83h83v500h-83v83h416v-83h84v-167h-84v-83h84v-83h83v-84h-83v-83h-84v-83h-416zM333 50h250v83h84v84h-84v83h-250v-250zM333 383h250v167h-250v-167z" />
    <glyph glyph-name="uni0433" unicode="&#x433;" 
d="M250 -33v83h83v500h-83v83h417v-83h83v-83h83v-84h-83v84h-83v83h-250v-500h166v-83h-333z" />
    <glyph glyph-name="uni0434" unicode="&#x434;" 
d="M83 -117v84h84v-84h-84zM167 550v83h583v-83h-83v-417h83v-83h83v-167h-83v167h-500v-83h-83v83h83v167h83v-84h250v417h-166v-333h-84v333h-166z" />
    <glyph glyph-name="uni0435" unicode="&#x435;" 
d="M667 -33h-334v83h334v-83zM667 50v83h83v-83h-83zM333 50h-83v83h83v-83zM250 133h-83v334h83v-84h417v84h83v-167h-500v-167zM667 467h-84v83h84v-83zM250 467v83h83v-83h-83zM583 550h-250v83h250v-83z" />
    <glyph glyph-name="uni0436" unicode="&#x436;" 
d="M333 -33v83h84v250h-167v-333h-167v83h84v250h83v83h-83v84h166v-84h84v167h-84v83h250v-83h-83v-167h83v84h167v-84h-83v-83h83v-250h83v-83h-166v333h-167v-250h83v-83h-250zM750 467v166h83v-166h-83zM167 467h-84v166h84v-166z" />
    <glyph glyph-name="uni0437" unicode="&#x437;" 
d="M417 300v83h250v-83h83v-250h-83v-83h-334v83h334v250h-250zM167 467v83h83v-83h-83zM333 50h-166v167h83v-84h83v-83zM667 383v167h83v-167h-83zM667 550h-417v83h417v-83z" />
    <glyph glyph-name="uni0438" unicode="&#x438;" 
d="M583 -33v83h84v417h-84v-167h-83v-167h-83v-166h-250v83h83v500h-83v83h250v-83h-84v-417h84v167h83v167h83v166h250v-83h-83v-500h83v-83h-250z" />
    <glyph glyph-name="uni0439" unicode="&#x439;" 
d="M583 -33v83h84v417h-84v-167h-83v-167h-83v-166h-250v83h83v500h-83v83h250v-83h-84v-417h84v167h83v167h83v166h250v-83h-83v-500h83v-83h-250zM333 800v83h84v-83h166v-83h-166v83h-84zM583 800v83h84v-83h-84z" />
    <glyph glyph-name="uni043A" unicode="&#x43a;" 
d="M583 -33v83h84v83h83v-83h83v-83h-250zM167 -33v83h83v500h-83v83h250v-83h-84v-250h84v-83h-84v-167h84v-83h-250zM667 133h-84v84h84v-84zM583 217h-83v83h83v-83zM500 300h-83v83h83v-83zM500 383v167h83v-167h-83zM750 550h83v-83h-83v83zM750 550h-167v83h167v-83z
" />
    <glyph glyph-name="uni043B" unicode="&#x43b;" 
d="M583 -33v83h84v500h-167v-500h-83v-83h-167v83h167v500h-167v83h583v-83h-83v-500h83v-83h-250zM250 50h-83v167h83v-167z" />
    <glyph glyph-name="uni043C" unicode="&#x43c;" 
d="M583 -33v83h84v417h-84v-250h-83v-167h-83v167h83v250h83v166h250v-83h-83v-500h83v-83h-250zM83 -33v83h84v500h-84v83h250v-166h84v-250h-84v250h-83v-417h83v-83h-250z" />
    <glyph glyph-name="uni043D" unicode="&#x43d;" 
d="M583 -33v83h84v250h-334v-250h84v-83h-250v83h83v500h-83v83h250v-83h-84v-167h334v167h-84v83h250v-83h-83v-500h83v-83h-250z" />
    <glyph glyph-name="uni043E" unicode="&#x43e;" 
d="M667 -33h-334v83h334v-83zM667 50v83h83v-83h-83zM333 50h-83v83h83v-83zM750 133v334h83v-334h-83zM250 133h-83v334h83v-334zM750 467h-83v83h83v-83zM250 467v83h83v-83h-83zM667 550h-334v83h334v-83z" />
    <glyph glyph-name="uni043F" unicode="&#x43f;" 
d="M583 -33v83h84v500h-334v-500h84v-83h-250v83h83v500h-83v83h666v-83h-83v-500h83v-83h-250z" />
    <glyph glyph-name="uni0440" unicode="&#x440;" 
d="M167 -117v84h83v583h-83v83h166v-83h84v-83h-84v-250h84v-84h250v-83h-250v83h-84v-166h84v-84h-250zM667 133v84h83v-84h-83zM750 217v250h83v-250h-83zM750 467h-83v83h83v-83zM667 550h-250v83h250v-83z" />
    <glyph glyph-name="uni0441" unicode="&#x441;" 
d="M667 -33h-334v83h334v-83zM667 50v83h83v-83h-83zM333 50h-83v83h83v-83zM250 133h-83v334h83v-334zM750 550v-167h-83v167h83zM250 467v83h83v-83h-83zM667 550h-334v83h334v-83z" />
    <glyph glyph-name="uni0442" unicode="&#x442;" 
d="M333 -33v83h84v500h-167v-83h-83v-84h-84v84h84v166h583v-166h83v-84h-83v84h-83v83h-167v-500h83v-83h-250z" />
    <glyph glyph-name="uni0443" unicode="&#x443;" 
d="M583 550v83h250v-83h-83v-167h-83v-166h-84v-250h-83v-84h-167v84h167v250h83v166h84v167h-84zM250 550v83h250v-83h-83v-167h83v-166h-83v166h-84v167h-83zM333 -33h-83v166h83v-166z" />
    <glyph glyph-name="uni0444" unicode="&#x444;" 
d="M333 -33v83h84v167h-84v-84h-166v84h166v83h84v167h-84v83h84v167h-84v83h167v-250h83v-83h-83v-167h83v-83h167v-84h-167v84h-83v-167h83v-83h-250zM750 217v333h83v-333h-83zM167 217h-84v333h84v-333zM750 550h-167v83h167v-83zM333 550h-166v83h166v-83z" />
    <glyph glyph-name="uni0445" unicode="&#x445;" 
d="M500 -33v83h83v83h84v-83h83v-83h-250zM167 -33v83h83v83h83v-83h84v-83h-250zM500 550v83h250v-83h-83v-83h-84v-84h-83v-166h83v-84h-83v84h-83v-84h-84v84h84v166h83v84h83v83h-83zM167 550v83h250v-83h-84v-83h84v-84h-84v84h-83v83h-83z" />
    <glyph glyph-name="uni0446" unicode="&#x446;" 
d="M167 -33v83h83v500h-83v83h250v-83h-84v-500h250v500h-83v83h250v-83h-83v-500h83v-83h83v-84h-83v84h-583z" />
    <glyph glyph-name="uni0447" unicode="&#x447;" 
d="M500 -33v83h83v167h-83v-84h-167v84h167v83h83v250h-83v83h250v-83h-83v-500h83v-83h-250zM167 550v83h250v-83h-84v-333h-83v333h-83z" />
    <glyph glyph-name="uni0448" unicode="&#x448;" 
d="M83 -33v83h84v500h-84v83h167v-583h167v500h-84v83h250v-83h-83v-500h167v583h166v-83h-83v-500h83v-83h-750z" />
    <glyph glyph-name="uni0449" unicode="&#x449;" 
d="M83 -33v83h84v500h-84v83h167v-583h167v500h-84v83h250v-83h-83v-500h167v583h166v-83h-83v-500h83v-83h84v-84h-84v84h-750z" />
    <glyph glyph-name="uni044A" unicode="&#x44a;" 
d="M250 -33v83h167v500h-167v-167h-83v167h83v83h333v-83h-83v-167h250v-83h83v-250h-83v-83h-500zM500 50h250v250h-250v-250z" />
    <glyph glyph-name="uni044B" unicode="&#x44b;" 
d="M83 -33v83h84v500h-84v83h250v-83h-83v-167h250v-83h83v-250h84v500h-84v83h250v-83h-83v-500h83v-83h-250v83h-83v-83h-417zM250 50h250v250h-250v-250z" />
    <glyph glyph-name="uni044C" unicode="&#x44c;" 
d="M250 -33v83h83v500h-83v83h250v-83h-83v-167h250v-83h83v-250h-83v-83h-417zM417 50h250v250h-250v-250z" />
    <glyph glyph-name="uni044D" unicode="&#x44d;" 
d="M167 50v83h83v-83h333v-83h-333v83h-83zM250 217v83h83v-83h-83zM167 467v83h83v-83h-83zM583 50v83h84v-83h-84zM667 133v84h-167v83h167v167h83v-334h-83zM500 300h-167v83h167v-83zM667 467h-84v83h84v-83zM583 550h-333v83h333v-83z" />
    <glyph glyph-name="uni044E" unicode="&#x44e;" 
d="M167 -33v83h83v500h-83v83h250v-83h83v-500h250v-83h-250v83h-83v-83h-250zM750 50v500h83v-500h-83zM417 50v250h-84v-250h84zM417 383v167h-84v-167h84zM750 550h-250v83h250v-83z" />
    <glyph glyph-name="uni044F" unicode="&#x44f;" 
d="M500 -33v83h83v250h-83v-83h-83v-167h-84v-83h-166v83h166v167h84v83h-167v83h333v167h-333v-167h-83v167h83v83h500v-83h-83v-500h83v-83h-250z" />
    <glyph glyph-name="uni0451" unicode="&#x451;" 
d="M583 800v83h167v-83h-167zM167 800v83h166v-83h-166zM667 -33h-334v83h334v-83zM667 50v83h83v-83h-83zM333 50h-83v83h83v-83zM250 133h-83v334h83v-84h417v84h83v-167h-500v-167zM667 467h-84v83h84v-83zM250 467v83h83v-83h-83zM583 550h-250v83h250v-83z" />
    <glyph glyph-name="uni2010" unicode="&#x2010;" 
d="M333 300v83h250v-83h-250z" />
    <glyph glyph-name="uni2015" unicode="&#x2015;" 
d="M0 300v83h1000v-83h-1000z" />
    <glyph glyph-name="quoteleft" unicode="&#x2018;" 
d="M750 633h-167v167h84v83h166v-83h-83v-167z" />
    <glyph glyph-name="quoteright" unicode="&#x2019;" 
d="M83 633v84h84v166h166v-166h-83v-84h-167z" />
    <glyph glyph-name="quotedblleft" unicode="&#x201c;" 
d="M750 633h-167v167h84v83h166v-83h-83v-167zM500 633h-167v167h84v83h166v-83h-83v-167z" />
    <glyph glyph-name="quotedblright" unicode="&#x201d;" 
d="M83 633v84h84v166h166v-166h84v166h166v-166h-83v-84h-167v84h-83v-84h-167z" />
    <glyph glyph-name="dagger" unicode="&#x2020;" 
d="M250 633v84h167v166h83v-166h167v-84h-167v-166h83v-250h-83v-334h-83v334h-84v250h84v166h-167z" />
    <glyph glyph-name="daggerdbl" unicode="&#x2021;" 
d="M250 50v83h167v84h-84v83h84v167h-84v83h84v83h-167v84h167v166h83v-166h167v-84h-167v-83h83v-83h-83v-167h83v-83h-83v-84h167v-83h-167v-167h-83v167h-167z" />
    <glyph glyph-name="twodotenleader" unicode="&#x2025;" 
d="M750 217h-167v166h167v-166zM333 217h-166v166h166v-166z" />
    <glyph glyph-name="ellipsis" unicode="&#x2026;" 
d="M917 217h-167v166h167v-166zM583 217h-166v166h166v-166zM250 217h-167v166h167v-166z" />
    <glyph glyph-name="perthousand" unicode="&#x2030;" 
d="M833 -33h-166v83h166v-83zM583 -33h-166v83h166v-83zM833 50v250h84v-250h-84zM667 50h-84v250h84v-250zM417 50h-84v83h-83v-166h-83v166h83v167h83v167h84v-84h166v-83h-166v-250zM833 300h-166v83h166v-83zM250 383h-167v84h167v-84zM417 467v166h83v-166h-83z
M333 467h-83v250h83v-250zM83 467h-83v250h83v-250zM500 633v167h83v-167h-83zM250 717h-167v83h167v-83z" />
    <glyph glyph-name="minute" unicode="&#x2032;" 
d="M83 550v83h84v-83h-84zM167 633v84h83v-84h-83zM250 717v83h83v-83h-83z" />
    <glyph glyph-name="second" unicode="&#x2033;" 
d="M333 550v83h84v-83h-84zM83 550v83h84v-83h-84zM417 633v84h83v-84h-83zM167 633v84h83v-84h-83zM500 717v83h83v-83h-83zM250 717v83h83v-83h-83z" />
    <glyph glyph-name="uni203B" unicode="&#x203b;" 
d="M333 -33v83h84v83h83v-83h83v-83h-83v-84h-83v84h-84zM83 -33v83h84v-83h-84zM667 300v83h83v84h83v-84h84v-83h-84v-83h-83v83h-83zM0 300v83h83v84h84v-84h83v-83h-83v-83h-84v83h-83zM333 633v84h84v83h83v-83h83v-84h-83v-83h-83v83h-84zM83 633v84h84v-84h83v-83h83
v-83h84v-84h83v-83h83v-83h84v-84h83v-83h83v-83h-83v83h-83v83h-84v84h-83v83h-83v-83h-84v-84h-83v-83h-83v83h83v84h83v83h84v83h-84v84h-83v83h-83v83h-84zM500 383v84h83v-84h-83zM583 467v83h84v-83h-84zM667 550v83h83v-83h-83zM750 633v84h83v-84h-83z" />
    <glyph glyph-name="uni203E" unicode="&#x203e;" horiz-adv-x="500" 
d="M0 633v84h417v-84h-417z" />
    <glyph glyph-name="uni2103" unicode="&#x2103;" 
d="M750 -33h-250v83h250v-83zM750 50v83h83v-83h-83zM500 50h-83v83h83v-83zM417 133h-84v334h84v-334zM417 467v83h83v-83h-83zM750 550h83v-83h-83v83zM750 550h-250v83h250v-83zM333 550h-166v83h166v-83zM333 633v167h84v-167h-84zM167 633h-84v167h84v-167zM333 800
h-166v83h166v-83z" />
    <glyph glyph-name="uni2116" unicode="&#x2116;" 
d="M750 -33h-167v83h167v-83zM833 50h84v-83h-84v83zM833 50h-83v333h83v-333zM583 50h-83v333h83v-333zM417 717v-750h-84v166h-83v167h83v417h84zM83 467v-500h-83v750h83v-84h84v-166h83v-167h-83v167h-84zM750 383h-167v84h167v-84z" />
    <glyph glyph-name="uni2121" unicode="&#x2121;" 
d="M0 633v84h417v-84h-167v-666h-83v666h-167zM917 -33h-250v750h83v-667h167v-83zM583 -33h-250v583h250v-83h-166v-167h166v-83h-166v-167h166v-83z" />
    <glyph glyph-name="uni212B" unicode="&#x212b;" 
d="M750 133v-166h-83v166h83zM250 133v-166h-83v166h83zM667 133h-417v167h83v-83h250v83h84v-167zM583 300h-83v167h83v-167zM333 300v167h84v-167h-84zM500 467h-83v166h166v-83h-83v-83zM583 633v167h84v-167h-84zM417 633h-84v167h84v-167zM583 800h-166v83h166v-83z
" />
    <glyph glyph-name="uni2160" unicode="&#x2160;" 
d="M250 -33v83h167v667h-167v83h417v-83h-167v-667h167v-83h-417z" />
    <glyph glyph-name="uni2161" unicode="&#x2161;" 
d="M250 -33v83h83v667h-83v83h500v-83h-83v-667h83v-83h-500zM417 50h166v667h-166v-667z" />
    <glyph glyph-name="uni2162" unicode="&#x2162;" 
d="M83 -33v83h84v667h-84v83h750v-83h-83v-667h83v-83h-750zM500 50h167v667h-167v-667zM250 50h167v667h-167v-667z" />
    <glyph glyph-name="uni2163" unicode="&#x2163;" 
d="M83 -33v83h84v667h-84v83h417v-83h-83v-250h83v-250h83v-250h-83v250h-83v250h-84v250h-83v-667h83v-83h-250zM583 717v83h250v-83h-83v-250h-83v-250h-84v250h84v250h-84z" />
    <glyph glyph-name="uni2164" unicode="&#x2164;" 
d="M583 717v83h250v-83h-83v-167h-83v-250h-84v-167h-83v-166h-83v166h83v167h83v250h84v167h-84zM83 717v83h250v-83h-83v-167h83v-250h84v-167h-84v167h-83v250h-83v167h-84z" />
    <glyph glyph-name="uni2165" unicode="&#x2165;" 
d="M583 -33v83h84v667h-84v-250h-83v-250h-83v-250h-84v250h84v250h83v250h-83v83h416v-83h-83v-667h83v-83h-250zM83 717v83h250v-83h-83v-250h83v-250h-83v250h-83v250h-84z" />
    <glyph glyph-name="uni2166" unicode="&#x2166;" 
d="M500 -33v83h83v667h-83v-250h-83v-250h-84v-250h-83v250h83v250h84v250h-84v83h584v-83h-84v-667h84v-83h-417zM0 717v83h250v-83h-83v-250h83v-250h-83v250h-84v250h-83zM750 50v667h-83v-667h83z" />
    <glyph glyph-name="uni2167" unicode="&#x2167;" 
d="M333 -33v83h84v667h-84v-417h-83v-333h-83v333h83v500h667v-83h-84v-667h84v-83h-584zM0 717v83h167v-500h-84v417h-83zM750 50v667h-83v-667h83zM583 50v667h-83v-667h83z" />
    <glyph glyph-name="uni2168" unicode="&#x2168;" 
d="M583 -33v83h84v83h83v-83h83v-83h-250zM83 -33v83h84v667h-84v83h417v-83h-83v-84h83v-166h83v-167h84v-167h-84v167h-83v-167h-83v-83h83v-83h-417zM583 717v83h250v-83h-83v-84h-83v-166h-84v166h84v84h-84zM333 50v83h84v167h83v167h-83v166h-84v84h-83v-667h83z" />
    <glyph glyph-name="uni2169" unicode="&#x2169;" 
d="M583 -33v83h84v83h83v-83h83v-83h-250zM83 -33v83h84v83h83v-83h83v-83h-250zM583 717v83h250v-83h-83v-84h-83v-83h-84v-83h-83v-167h83v-83h84v-84h-84v84h-83v83h-83v-83h-84v-84h-83v84h83v83h84v167h83v83h83v83h84v84h-84zM83 717v83h250v-83h-83v-84h83v-83h84
v-83h-84v83h-83v83h-83v84h-84z" />
    <glyph glyph-name="arrowleft" unicode="&#x2190;" 
d="M0 300v83h83v84h84v-84h750v-83h-750v-83h83v-84h83v-83h84v-83h-84v83h-83v83h-83v84h-84v83h-83zM167 467v83h83v-83h-83zM250 550v83h83v-83h-83zM333 633v84h84v-84h-84z" />
    <glyph glyph-name="arrowup" unicode="&#x2191;" 
d="M83 383v84h84v-84h-84zM500 633v-750h-83v750h-84v-83h-83v-83h-83v83h83v83h83v84h84v83h83v-83h83v-84h84v-83h83v-83h83v-84h-83v84h-83v83h-84v83h-83z" />
    <glyph glyph-name="arrowright" unicode="&#x2192;" 
d="M500 -33v83h83v-83h-83zM0 300v83h750v84h83v-84h84v-83h-84v-83h-83v-84h-83v-83h-84v83h84v84h83v83h-750zM500 633v84h83v-84h84v-83h83v-83h-83v83h-84v83h-83z" />
    <glyph glyph-name="arrowdown" unicode="&#x2193;" 
d="M83 217v83h84v-83h83v-84h83v-83h84v750h83v-750h83v-83h-83v-84h-83v84h-84v83h-83v83h-83v84h-84zM583 50v83h84v-83h-84zM667 133v84h83v-84h-83zM750 217v83h83v-83h-83z" />
    <glyph glyph-name="arrowdblright" unicode="&#x21d2;" 
d="M583 50v83h84v-83h-84zM0 217v83h833v-83h-83v-84h-83v84h-667zM0 383v84h667v83h83v-83h83v-84h84v-83h-84v83h-833zM583 550v83h84v-83h-84z" />
    <glyph glyph-name="arrowdblboth" unicode="&#x21d4;" 
d="M583 50v83h84v-83h-84zM0 300v83h83v-83h750v-83h-83v-84h-83v84h-417v-84h83v-83h-83v83h-83v84h-84v83h-83zM583 550v83h84v-83h83v-83h83v-84h84v-83h-84v83h-750v84h84v83h83v-83h417v83h-84zM250 550v83h83v-83h-83z" />
    <glyph glyph-name="universal" unicode="&#x2200;" 
d="M500 133v-166h-83v166h83zM500 133v167h83v-167h-83zM417 133h-84v167h84v-167zM583 300v167h-250v-167h-83v167h-83v166h83v-83h417v83h83v-166h-83v-167h-84zM750 633v167h83v-167h-83zM167 633h-84v167h84v-167z" />
    <glyph glyph-name="partialdiff" unicode="&#x2202;" 
d="M333 550v83h84v-83h-84zM500 -33h-250v83h250v-83zM500 50v83h83v-83h-83zM250 50h-83v167h83v-167zM583 133v167h84v-167h-84zM250 217v83h83v-83h-83zM667 300v333h83v-333h-83zM583 300h-250v83h250v-83zM667 633h-250v84h250v-84z" />
    <glyph glyph-name="existential" unicode="&#x2203;" 
d="M167 -33v83h500v333h-500v84h500v250h-500v83h583v-833h-583z" />
    <glyph glyph-name="gradient" unicode="&#x2207;" 
d="M500 50v-83h-83v83h-84v167h-83v166h-83v167h-84v167h750v-167h-83v-167h-83v-166h-84v-167h-83zM500 133v84h83v166h84v167h-334v-167h84v-250h83z" />
    <glyph glyph-name="element" unicode="&#x2208;" 
d="M833 50h-583v83h583v-83zM250 133h-83v84h83v-84zM167 217h-84v250h84v-84h666v-83h-666v-83zM167 467v83h83v-83h-83zM833 550h-583v83h583v-83z" />
    <glyph glyph-name="suchthat" unicode="&#x220b;" 
d="M83 50v83h584v-83h-584zM83 300v83h667v84h83v-250h-83v-84h-83v84h83v83h-667zM83 550v83h584v-83h83v-83h-83v83h-584z" />
    <glyph glyph-name="summation" unicode="&#x2211;" 
d="M83 -33v83h84v83h83v-83h583v-83h-750zM83 633v84h750v-84h-583v-83h83v-83h84v-84h83v-83h-83v-83h-84v-84h-83v84h83v83h84v83h-84v84h-83v83h-83v83h-84z" />
    <glyph glyph-name="radical" unicode="&#x221a;" 
d="M333 133v-166h-83v166h83zM333 133v250h84v-250h-84zM250 133h-83v167h83v-167zM83 300v-167h-83v167h83zM167 300h-84v167h84v-167zM417 383v250h83v-250h-83zM500 633v250h417v-83h-334v-167h-83z" />
    <glyph glyph-name="proportional" unicode="&#x221d;" 
d="M750 133h-167v84h167v-84zM333 133h-166v84h166v-84zM750 217v83h83v-83h-83zM583 217h-83v83h83v-83zM333 217v83h84v-83h-84zM167 217h-84v83h84v-83zM500 300h-83v167h83v-167zM83 300h-83v167h83v-167zM500 467v83h83v-83h-83zM417 467h-84v83h84v-83zM83 467v83h84
v-83h-84zM750 550h83v-83h-83v83zM750 550h-167v83h167v-83zM333 550h-166v83h166v-83z" />
    <glyph glyph-name="infinity" unicode="&#x221e;" 
d="M750 50h-167v83h167v-83zM333 50h-166v83h166v-83zM750 133v84h83v-84h-83zM583 133h-83v84h83v-84zM333 133v84h84v-84h-84zM167 133h-84v84h84v-84zM833 217v166h84v-166h-84zM500 217h-83v166h83v-166zM83 217h-83v166h83v-166zM833 383h-83v84h83v-84zM500 383v84h83
v-84h-83zM417 383h-84v84h84v-84zM83 383v84h84v-84h-84zM750 467h-167v83h167v-83zM333 467h-166v83h166v-83z" />
    <glyph glyph-name="orthogonal" unicode="&#x221f;" 
d="M833 50h-666v667h83v-584h583v-83z" />
    <glyph glyph-name="angle" unicode="&#x2220;" 
d="M83 50v83h84v84h83v-84h583v-83h-750zM250 217v83h83v-83h-83zM333 300v83h84v-83h-84zM417 383v84h83v-84h-83zM500 467v83h83v-83h-83zM583 550v83h84v-83h-84zM667 633v84h83v-84h-83z" />
    <glyph glyph-name="uni2225" unicode="&#x2225;" 
d="M583 883v-1083h-83v1083h83zM417 883v-1083h-84v1083h84z" />
    <glyph glyph-name="logicaland" unicode="&#x2227;" 
d="M833 133v-166h-83v166h83zM167 133v-166h-84v166h84zM750 133h-83v167h83v-167zM167 133v167h83v-167h-83zM667 300h-84v167h84v-167zM250 300v167h83v-167h-83zM583 467h-83v166h83v-166zM333 467v166h84v-166h-84zM500 633h-83v167h83v-167z" />
    <glyph glyph-name="logicalor" unicode="&#x2228;" 
d="M500 133v-166h-83v166h83zM500 133v167h83v-167h-83zM417 133h-84v167h84v-167zM583 300v167h84v-167h-84zM333 300h-83v167h83v-167zM667 467v166h83v-166h-83zM250 467h-83v166h83v-166zM750 633v167h83v-167h-83zM167 633h-84v167h84v-167z" />
    <glyph glyph-name="intersection" unicode="&#x2229;" 
d="M750 550v-583h-83v583h83zM250 550v-583h-83v583h83zM667 550h-84v83h84v-83zM250 550v83h83v-83h-83zM583 633h-250v84h250v-84z" />
    <glyph glyph-name="union" unicode="&#x222a;" 
d="M583 -33h-250v83h250v-83zM583 50v83h84v-83h-84zM333 50h-83v83h83v-83zM667 133v584h83v-584h-83zM250 133h-83v584h83v-584z" />
    <glyph glyph-name="integral" unicode="&#x222b;" 
d="M500 -117h-167v167h84v-83h83v-84zM500 -33v333h83v-333h-83zM500 300h-83v167h83v-167zM417 467h-84v333h84v-333zM583 883v-166h-83v83h-83v83h166z" />
    <glyph glyph-name="uni222C" unicode="&#x222c;" 
d="M667 -117h-167v167h83v-83h84v-84zM333 -117h-166v167h83v-83h83v-84zM667 -33v333h83v-333h-83zM333 -33v333h84v-333h-84zM667 300h-84v167h84v-167zM333 300h-83v167h83v-167zM583 467h-83v333h83v-333zM250 467h-83v333h83v-333zM750 883v-166h-83v83h-84v83h167z
M417 883v-166h-84v83h-83v83h167z" />
    <glyph glyph-name="uni222E" unicode="&#x222e;" 
d="M333 -33v83h84v-83h83v-84h-83v84h-84zM500 -33v166h-167v84h84v333h-84v-333h-83v333h83v250h84v-167h166v-83h84v-333h-84v-250h-83zM583 217v333h-83v-333h83zM500 800h83v-83h-83v83zM500 800h-83v83h83v-83z" />
    <glyph glyph-name="therefore" unicode="&#x2234;" 
d="M583 133v84h84v83h83v-83h83v-84h-83v-83h-83v83h-84zM83 133v84h84v83h83v-83h83v-84h-83v-83h-83v83h-84zM333 550v83h84v84h83v-84h83v-83h-83v-83h-83v83h-84z" />
    <glyph glyph-name="uni2235" unicode="&#x2235;" 
d="M333 133v84h84v83h83v-83h83v-84h-83v-83h-83v83h-84zM583 550v83h84v84h83v-84h83v-83h-83v-83h-83v83h-84zM83 550v83h84v84h83v-84h83v-83h-83v-83h-83v83h-84z" />
    <glyph glyph-name="uni223D" unicode="&#x223d;" 
d="M667 133v84h83v-84h-83zM333 133h-166v84h166v-84zM750 217v83h83v-83h-83zM333 217v83h84v-83h-84zM167 217h-84v83h84v-83zM833 300v167h84v-167h-84zM417 300v167h83v-167h-83zM83 300h-83v167h83v-167zM833 467h-83v83h83v-83zM500 467v83h83v-83h-83zM83 467v83h84
v-83h-84zM750 550h-167v83h167v-83zM167 550v83h83v-83h-83z" />
    <glyph glyph-name="uni2252" unicode="&#x2252;" 
d="M83 217v83h750v-83h-750zM83 383v84h750v-84h-750zM750 -33h-167v166h167v-166zM333 550h-166v167h166v-167z" />
    <glyph glyph-name="notequal" unicode="&#x2260;" 
d="M83 -33v83h84v-83h-84zM83 133v84h250v83h84v-83h416v-84h-583v-83h-83v83h-84zM83 383v84h500v83h84v-83h166v-84h-333v-83h-83v83h-334zM667 550v83h83v-83h-83z" />
    <glyph glyph-name="equivalence" unicode="&#x2261;" 
d="M83 50v83h750v-83h-750zM83 300v83h750v-83h-750zM83 550v83h750v-83h-750z" />
    <glyph glyph-name="uni2266" unicode="&#x2266;" 
d="M83 -33v83h750v-83h-750zM83 133v84h750v-84h-750zM83 467v83h250v-83h250v-84h250v-83h-250v83h-250v84h-250zM583 550h-250v83h250v-83zM833 633h-250v84h250v-84z" />
    <glyph glyph-name="uni2267" unicode="&#x2267;" 
d="M83 -33v83h750v-83h-750zM83 133v84h750v-84h-750zM83 300v83h250v-83h-250zM83 633v84h250v-84h250v-83h250v-83h-250v-84h-250v84h250v83h-250v83h-250z" />
    <glyph glyph-name="uni226A" unicode="&#x226a;" 
d="M417 300v83h83v-83h83v-83h84v-84h83v-83h83v-83h-83v83h-83v83h-84v84h-83v83h-83zM83 300v83h84v-83h83v-83h83v-84h84v-83h83v-83h-83v83h-84v83h-83v84h-83v83h-84zM500 383v84h83v-84h-83zM167 383v84h83v-84h-83zM583 467v83h84v-83h-84zM250 467v83h83v-83h-83z
M667 550v83h83v-83h-83zM333 550v83h84v-83h-84zM750 633v84h83v-84h-83zM417 633v84h83v-84h-83z" />
    <glyph glyph-name="uni226B" unicode="&#x226b;" 
d="M333 -33v83h84v-83h-84zM0 -33v83h83v-83h-83zM333 633v84h84v-84h83v-83h83v-83h84v-84h83v-83h-83v-83h-84v-84h-83v-83h-83v83h83v84h83v83h84v83h-84v84h-83v83h-83v83h-84zM0 633v84h83v-84h84v-83h83v-83h83v-84h84v-83h-84v-83h-83v-84h-83v-83h-84v83h84v84h83
v83h83v83h-83v84h-83v83h-84v83h-83z" />
    <glyph glyph-name="propersubset" unicode="&#x2282;" 
d="M833 50h-583v83h583v-83zM250 133h-83v84h83v-84zM167 217h-84v250h84v-250zM167 467v83h83v-83h-83zM833 550h-583v83h583v-83z" />
    <glyph glyph-name="propersuperset" unicode="&#x2283;" 
d="M83 50v83h584v-83h-584zM83 550v83h584v-83h83v-83h83v-250h-83v-84h-83v84h83v250h-83v83h-584z" />
    <glyph glyph-name="reflexsubset" unicode="&#x2286;" 
d="M83 -33v83h750v-83h-750zM833 217h-583v83h583v-83zM250 300h-83v83h83v-83zM167 383h-84v167h84v-167zM167 550v83h83v-83h-83zM833 633h-583v84h583v-84z" />
    <glyph glyph-name="reflexsuperset" unicode="&#x2287;" 
d="M83 -33v83h750v-83h-750zM83 217v83h584v-83h-584zM83 633v84h584v-84h83v-83h83v-167h-83v-83h-83v83h83v167h-83v83h-584z" />
    <glyph glyph-name="perpendicular" unicode="&#x22a5;" 
d="M83 50v83h334v584h83v-584h333v-83h-750z" />
    <glyph glyph-name="uni22BF" unicode="&#x22bf;" 
d="M83 50v83h84v84h83v-84h417v417h-84v-83h-83v-84h-83v-83h-84v-83h-83v83h83v83h84v84h83v83h83v83h84v84h83v-667h-667z" />
    <glyph glyph-name="uni2312" unicode="&#x2312;" 
d="M0 633v84h83v-84h-83zM833 717h84v-84h-84v84zM833 717h-166v83h166v-83zM250 717h-167v83h167v-83zM667 800h-417v83h417v-83z" />
    <glyph glyph-name="uni2460" unicode="&#x2460;" 
d="M250 383v84h83v-84h-83zM583 -117h-250v84h250v-84zM750 -33h-167v83h167v-83zM333 -33h-166v83h166v-83zM750 50v167h83v-167h-83zM167 50h-84v167h84v-167zM500 633v-583h-83v417h-84v83h84v83h83zM833 217v250h84v-250h-84zM83 217h-83v250h83v-250zM833 467h-83v166
h83v-166zM83 467v166h84v-166h-84zM750 633h-167v84h167v-84zM333 633h-166v84h166v-84zM583 717h-250v83h250v-83z" />
    <glyph glyph-name="uni2461" unicode="&#x2461;" 
d="M250 467v83h83v-83h-83zM583 -117h-250v84h250v-84zM750 -33h-167v83h-250v-83h-166v83h83v167h83v-84h334v-83h83v-83zM750 50v167h83v-167h-83zM167 50h-84v167h84v-167zM833 217v250h84v-250h-84zM333 217v83h84v-83h-84zM83 217h-83v250h83v-250zM583 300h-166v83
h166v-83zM583 383v167h84v-167h-84zM833 467h-83v166h83v-166zM83 467v166h84v-166h-84zM583 550h-250v83h250v-83zM750 633h-167v84h167v-84zM333 633h-166v84h166v-84zM583 717h-250v83h250v-83z" />
    <glyph glyph-name="uni2462" unicode="&#x2462;" 
d="M250 133v84h83v-84h250v-83h167v-83h-167v-84h-250v84h250v83h-250v-83h-166v83h166v83h-83zM417 300v83h166v-83h84v-167h-84v167h-166zM250 467v83h83v-83h-83zM750 50v167h83v-167h-83zM167 50h-84v167h84v-167zM833 217v250h84v-250h-84zM83 217h-83v250h83v-250z
M583 383v167h84v-167h-84zM833 467h-83v166h83v-166zM83 467v166h84v-166h-84zM583 550h-250v83h250v-83zM750 633h-167v84h167v-84zM333 633h-166v84h166v-84zM583 717h-250v83h250v-83z" />
    <glyph glyph-name="uni2463" unicode="&#x2463;" 
d="M583 -117h-250v84h250v-84zM750 -33h-167v83h167v-83zM333 -33h-166v83h166v-83zM750 50v167h83v-167h-83zM583 50h-83v83h-250v167h83v-83h167v250h-83v-167h-84v167h84v166h166v-416h84v-84h-84v-83zM167 50h-84v167h84v-167zM833 217v250h84v-250h-84zM83 217h-83v250
h83v-250zM833 467h-83v166h83v-166zM83 467v166h84v-166h-84zM750 633h-167v84h167v-84zM333 633h-166v84h166v-84zM583 717h-250v83h250v-83z" />
    <glyph glyph-name="uni2464" unicode="&#x2464;" 
d="M250 133v84h83v-84h250v-83h167v-83h-167v-84h-250v84h250v83h-250v-83h-166v83h166v83h-83zM750 50v167h83v-167h-83zM167 50h-84v167h84v-167zM583 133v250h84v-250h-84zM833 217v250h84v-250h-84zM83 217h-83v250h83v-250zM583 383h-333v250h-83v-166h-84v166h84v84
h166v-84h250v84h167v-84h83v-166h-83v166h-83v-83h-334v-83h250v-84zM583 717h-250v83h250v-83z" />
    <glyph glyph-name="uni2465" unicode="&#x2465;" 
d="M583 -117h-250v84h250v-84zM750 -33h-167v83h167v-83zM333 -33h-166v83h166v-83zM750 50v167h83v-167h-83zM583 50h-250v83h250v-83zM167 50h-84v167h84v-167zM583 133v250h84v-250h-84zM333 133h-83v417h83v-83h250v-84h-250v-250zM833 217v250h84v-250h-84zM83 217h-83
v250h83v-250zM833 467h-83v166h83v-166zM83 467v166h84v-166h-84zM583 550h-250v83h250v-83zM750 633h-167v84h167v-84zM333 633h-166v84h166v-84zM583 717h-250v83h250v-83z" />
    <glyph glyph-name="uni2466" unicode="&#x2466;" 
d="M583 -117h-250v84h250v-84zM750 -33h-167v83h167v-83zM333 -33h-166v83h166v-83zM750 50v167h83v-167h-83zM333 50v167h84v-167h-84zM167 50h-84v167h84v-167zM833 217v250h84v-250h-84zM417 217v166h83v-166h-83zM83 217h-83v250h83v-250zM500 383v84h83v-84h-83z
M833 467h-83v166h83v-166zM583 467v83h-333v83h-83v-166h-84v166h84v84h166v-84h250v84h167v-84h-83v-166h-84zM583 717h-250v83h250v-83z" />
    <glyph glyph-name="uni2467" unicode="&#x2467;" 
d="M583 -117h-250v84h250v-84zM750 -33h-167v83h167v-83zM333 -33h-166v83h166v-83zM750 50v167h83v-167h-83zM583 50h-250v83h250v-83zM167 50h-84v167h84v-167zM583 133v167h84v-167h-84zM333 133h-83v167h83v-167zM833 217v250h84v-250h-84zM83 217h-83v250h83v-250z
M583 300h-250v83h250v-83zM583 383v167h84v-167h-84zM333 383h-83v167h83v-167zM833 467h-83v166h83v-166zM83 467v166h84v-166h-84zM583 550h-250v83h250v-83zM750 633h-167v84h167v-84zM333 633h-166v84h166v-84zM583 717h-250v83h250v-83z" />
    <glyph glyph-name="uni2468" unicode="&#x2468;" 
d="M583 -117h-250v84h250v-84zM750 -33h-167v83h167v-83zM333 -33h-166v83h166v-83zM750 50v167h83v-167h-83zM583 50h-250v83h250v-83zM167 50h-84v167h84v-167zM583 133v84h-250v83h250v250h84v-417h-84zM833 217v250h84v-250h-84zM83 217h-83v250h83v-250zM333 300h-83
v250h83v-250zM833 467h-83v166h83v-166zM83 467v166h84v-166h-84zM583 550h-250v83h250v-83zM750 633h-167v84h167v-84zM333 633h-166v84h166v-84zM583 717h-250v83h250v-83z" />
    <glyph glyph-name="uni2469" unicode="&#x2469;" 
d="M583 -117h-250v84h250v-84zM750 -33h-167v83h-83v83h167v-83h83v-83zM333 -33h-166v83h83v417h-167v-250h84v-167h-84v167h-83v250h83v166h84v-83h83v83h-83v84h166v-750zM750 50v83h-83v417h83v83h83v-166h84v-250h-84v-167h-83zM500 133h-83v417h83v-417zM833 217v250
h-83v-250h83zM667 550h-167v83h83v84h167v-84h-83v-83zM583 717h-250v83h250v-83z" />
    <glyph glyph-name="uni246A" unicode="&#x246a;" 
d="M500 467v83h83v167h167v-84h83v-166h84v-250h-84v-167h-83v-83h-167v-84h-250v84h250v500h-83zM333 -33h-166v83h83v417h-167v-250h84v-167h-84v167h-83v250h83v166h84v-83h83v83h-83v84h166v-750zM750 50v167h83v250h-83v166h-83v-583h83zM583 717h-250v83h250v-83z" />
    <glyph glyph-name="uni246B" unicode="&#x246b;" 
d="M417 467v83h83v-83h-83zM583 -117h-250v84h250v-84zM750 -33h-167v83h-166v167h83v-84h250v84h83v-167h-83v-83zM333 -33h-166v83h83v417h-167v-250h84v-167h-84v167h-83v250h83v166h84v-83h83v83h-83v84h166v-750zM833 217v250h84v-250h-84zM500 217v83h83v-83h-83z
M583 300v83h84v-83h-84zM667 383v167h83v83h83v-166h-83v-84h-83zM667 550h-167v83h83v84h167v-84h-83v-83zM583 717h-250v83h250v-83z" />
    <glyph glyph-name="uni246C" unicode="&#x246c;" 
d="M417 133v84h83v-84h167v-83h83v-83h-167v-84h-250v84h250v83h-83v83h-83zM500 300v83h167v-83h83v-83h83v-167h-83v83h-83v167h-167zM417 467v83h83v-83h-83zM333 -33h-166v83h83v417h-167v-250h84v-167h-84v167h-83v250h83v166h84v-83h83v83h-83v84h166v-750zM833 217
v250h84v-250h-84zM667 383v167h83v83h83v-166h-83v-84h-83zM667 550h-167v83h83v84h167v-84h-83v-83zM583 717h-250v83h250v-83z" />
    <glyph glyph-name="uni246D" unicode="&#x246d;" 
d="M583 -117h-250v84h250v-84zM750 -33h-167v166h-166v334h83v-250h83v250h-83v166h83v84h167v-84h83v-166h84v-250h-84v-167h-83v-83zM333 -33h-166v83h83v417h-167v-250h84v-167h-84v167h-83v250h83v166h84v-83h83v83h-83v84h166v-750zM750 50v83h-83v-83h83zM667 217h166
v250h-83v166h-83v-416zM583 717h-250v83h250v-83z" />
    <glyph glyph-name="uni246E" unicode="&#x246e;" 
d="M417 133v84h83v-84h167v-83h83v-83h-167v-84h-250v84h250v83h-83v83h-83zM333 -33h-166v83h83v417h-167v-250h84v-167h-84v167h-83v250h83v166h84v-83h83v83h-83v84h166v-750zM750 50v83h-83v250h83v-166h83v-167h-83zM833 217v250h84v-250h-84zM667 383h-250v250h166v84
h167v-84h83v-166h-83v83h-250v-83h167v-84zM583 717h-250v83h250v-83z" />
    <glyph glyph-name="uni246F" unicode="&#x246f;" 
d="M583 -117h-250v84h250v-84zM750 -33h-167v83h-83v83h167v-83h83v-83zM333 -33h-166v83h83v417h-167v-250h84v-167h-84v167h-83v250h83v166h84v-83h83v83h-83v84h166v-750zM750 50v83h-83v250h83v-166h83v-167h-83zM500 133h-83v417h83v-83h167v-84h-167v-250zM833 217
v250h84v-250h-84zM833 467h-83v166h83v-166zM667 550h-167v83h83v84h167v-84h-83v-83zM583 717h-250v83h250v-83z" />
    <glyph glyph-name="uni2470" unicode="&#x2470;" 
d="M417 550v83h166v84h167v-84h83v-166h84v-250h-84v-167h-83v-83h-167v-84h-250v84h250v83h167v167h83v250h-166v-167h-84v-250h-83v250h83v167h84v83h-250zM333 -33h-166v83h83v417h-167v-250h84v-167h-84v167h-83v250h83v166h84v-83h83v83h-83v84h166v-750zM583 717h-250
v83h250v-83z" />
    <glyph glyph-name="uni2471" unicode="&#x2471;" 
d="M583 -117h-250v84h250v-84zM750 -33h-167v83h-83v83h167v-83h83v-83zM333 -33h-166v83h83v417h-167v-250h84v-167h-84v167h-83v250h83v166h84v-83h83v83h-83v84h166v-750zM750 50v83h-83v167h83v-83h83v-167h-83zM500 133h-83v167h83v-167zM833 217v250h84v-250h-84z
M667 300h-167v83h167v-83zM667 383v167h83v83h83v-166h-83v-84h-83zM500 383h-83v167h83v-167zM667 550h-167v83h83v84h167v-84h-83v-83zM583 717h-250v83h250v-83z" />
    <glyph glyph-name="uni2472" unicode="&#x2472;" 
d="M417 50v83h250v-83h83v-83h-167v-84h-250v84h250v83h-166zM333 -33h-166v83h83v417h-167v-250h84v-167h-84v167h-83v250h83v166h84v-83h83v83h-83v84h166v-750zM750 50v83h-83v84h-167v83h167v250h83v83h83v-166h84v-250h-84v-167h-83zM833 217v250h-83v-250h83zM500 300
h-83v250h83v-250zM667 550h-167v83h83v84h167v-84h-83v-83zM583 717h-250v83h250v-83z" />
    <glyph glyph-name="uni2473" unicode="&#x2473;" 
d="M583 -117h-250v84h250v-84zM750 -33h-167v166h84v-83h83v-83zM333 -33h-166v83h83v250h83v-167h167v-83h-167v-83zM750 50v83h-83v417h83v83h83v-166h84v-250h-84v-167h-83zM167 50h-84v167h84v-167zM583 133h-83v250h-83v-83h-84v83h84v167h-84v-83h-83v166h-83v-166
h-84v-250h-83v250h83v166h84v84h166v-84h167v-83h83v-417zM833 217v250h-83v-250h83zM667 550h-84v167h167v-84h-83v-83zM583 717h-250v83h250v-83z" />
    <glyph glyph-name="SF100000" unicode="&#x2500;" 
d="M0 300v83h1000v-83h-1000z" />
    <glyph glyph-name="uni2501" unicode="&#x2501;" 
d="M1000 300h-1000v167h1000v-167z" />
    <glyph glyph-name="SF110000" unicode="&#x2502;" 
d="M500 883v-1083h-83v1083h83z" />
    <glyph glyph-name="uni2503" unicode="&#x2503;" 
d="M583 -200h-166v1083h166v-1083z" />
    <glyph glyph-name="SF010000" unicode="&#x250c;" 
d="M500 300v-500h-83v583h583v-83h-500z" />
    <glyph glyph-name="uni250F" unicode="&#x250f;" 
d="M583 -200h-166v667h583v-167h-417v-500z" />
    <glyph glyph-name="SF030000" unicode="&#x2510;" 
d="M0 300v83h500v-583h-83v500h-417z" />
    <glyph glyph-name="uni2513" unicode="&#x2513;" 
d="M583 -200h-166v500h-417v167h583v-667z" />
    <glyph glyph-name="SF020000" unicode="&#x2514;" 
d="M1000 300h-583v583h83v-500h500v-83z" />
    <glyph glyph-name="uni2517" unicode="&#x2517;" 
d="M1000 300h-583v583h166v-416h417v-167z" />
    <glyph glyph-name="SF040000" unicode="&#x2518;" 
d="M0 300v83h417v500h83v-583h-500z" />
    <glyph glyph-name="uni251B" unicode="&#x251b;" 
d="M583 300h-583v167h417v416h166v-583z" />
    <glyph glyph-name="SF080000" unicode="&#x251c;" 
d="M500 300v-500h-83v1083h83v-500h500v-83h-500z" />
    <glyph glyph-name="uni251D" unicode="&#x251d;" 
d="M500 300v-500h-83v1083h83v-416h500v-167h-500z" />
    <glyph glyph-name="uni2520" unicode="&#x2520;" 
d="M583 -200h-166v1083h166v-500h417v-83h-417v-500z" />
    <glyph glyph-name="uni2523" unicode="&#x2523;" 
d="M583 -200h-166v1083h166v-416h417v-167h-417v-500z" />
    <glyph glyph-name="SF090000" unicode="&#x2524;" 
d="M0 300v83h417v500h83v-1083h-83v500h-417z" />
    <glyph glyph-name="uni2525" unicode="&#x2525;" 
d="M500 883v-1083h-83v500h-417v167h417v416h83z" />
    <glyph glyph-name="uni2528" unicode="&#x2528;" 
d="M0 300v83h417v500h166v-1083h-166v500h-417z" />
    <glyph glyph-name="uni252B" unicode="&#x252b;" 
d="M583 -200h-166v500h-417v167h417v416h166v-1083z" />
    <glyph glyph-name="SF060000" unicode="&#x252c;" 
d="M0 300v83h1000v-83h-500v-500h-83v500h-417z" />
    <glyph glyph-name="uni252F" unicode="&#x252f;" 
d="M500 300v-500h-83v500h-417v167h1000v-167h-500z" />
    <glyph glyph-name="uni2530" unicode="&#x2530;" 
d="M0 300v83h1000v-83h-417v-500h-166v500h-417z" />
    <glyph glyph-name="uni2533" unicode="&#x2533;" 
d="M583 -200h-166v500h-417v167h1000v-167h-417v-500z" />
    <glyph glyph-name="SF070000" unicode="&#x2534;" 
d="M0 300v83h417v500h83v-500h500v-83h-1000z" />
    <glyph glyph-name="uni2537" unicode="&#x2537;" 
d="M1000 300h-1000v167h417v416h83v-416h500v-167z" />
    <glyph glyph-name="uni2538" unicode="&#x2538;" 
d="M0 300v83h417v500h166v-500h417v-83h-1000z" />
    <glyph glyph-name="uni253B" unicode="&#x253b;" 
d="M1000 300h-1000v167h417v416h166v-416h417v-167z" />
    <glyph glyph-name="SF050000" unicode="&#x253c;" 
d="M0 300v83h417v500h83v-500h500v-83h-500v-500h-83v500h-417z" />
    <glyph glyph-name="uni253F" unicode="&#x253f;" 
d="M500 300v-500h-83v500h-417v167h417v416h83v-416h500v-167h-500z" />
    <glyph glyph-name="uni2542" unicode="&#x2542;" 
d="M0 300v83h417v500h166v-500h417v-83h-417v-500h-166v500h-417z" />
    <glyph glyph-name="uni254B" unicode="&#x254b;" 
d="M583 -200h-166v500h-417v167h417v416h166v-416h417v-167h-417v-500z" />
    <glyph glyph-name="filledbox" unicode="&#x25a0;" 
d="M833 -33h-750v750h750v-750z" />
    <glyph glyph-name="H22073" unicode="&#x25a1;" 
d="M833 -33h-750v750h750v-750zM167 50h583v583h-583v-583z" />
    <glyph glyph-name="triagup" unicode="&#x25b2;" 
d="M833 -33h-750v166h84v167h83v167h83v166h84v84h83v-84h83v-166h84v-167h83v-167h83v-166z" />
    <glyph glyph-name="uni25B3" unicode="&#x25b3;" 
d="M833 -33h-750v166h84v-83h583v83h83v-166zM750 133h-83v167h83v-167zM167 133v167h83v-167h-83zM667 300h-84v167h84v-167zM250 300v167h83v-167h-83zM583 467h-83v166h83v-166zM333 467v166h84v-166h-84zM500 633h-83v84h83v-84z" />
    <glyph glyph-name="uni25B6" unicode="&#x25b6;" 
d="M250 -33h-167v750h167v-84h167v-83h166v-83h167v-84h83v-83h-83v-83h-167v-84h-166v-83h-167v-83z" />
    <glyph glyph-name="uni25B7" unicode="&#x25b7;" 
d="M250 -33h-167v750h167v-84h167v-83h166v-83h167v-84h83v-83h-83v-83h-167v-84h-166v-83h-167v-83zM250 133h167v84h166v83h167v83h-167v84h-166v83h-167v83h-83v-583h83v83z" />
    <glyph glyph-name="triagdn" unicode="&#x25bc;" 
d="M500 50v-83h-83v83h-84v167h-83v166h-83v167h-84v167h750v-167h-83v-167h-83v-166h-84v-167h-83z" />
    <glyph glyph-name="uni25BD" unicode="&#x25bd;" 
d="M500 50v-83h-83v83h83zM500 50v167h83v-167h-83zM417 50h-84v167h84v-167zM583 217v166h84v-166h-84zM333 217h-83v166h83v-166zM667 383v167h83v-167h-83zM250 383h-83v167h83v-167zM750 550v83h-583v-83h-84v167h750v-167h-83z" />
    <glyph glyph-name="uni25C0" unicode="&#x25c0;" 
d="M83 300v83h84v84h166v83h167v83h167v84h166v-750h-166v83h-167v83h-167v84h-166v83h-84z" />
    <glyph glyph-name="uni25C1" unicode="&#x25c1;" 
d="M83 300v83h84v-83h166v-83h167v-84h167v-83h83v583h-83v-83h-167v-83h-167v-84h-166v84h166v83h167v83h167v84h166v-750h-166v83h-167v83h-167v84h-166v83h-84z" />
    <glyph glyph-name="uni25C6" unicode="&#x25c6;" 
d="M0 300v83h83v84h84v83h83v83h83v84h84v83h83v-83h83v-84h84v-83h83v-83h83v-84h84v-83h-84v-83h-83v-84h-83v-83h-84v-83h-83v-84h-83v84h-84v83h-83v83h-83v84h-84v83h-83z" />
    <glyph glyph-name="uni25C7" unicode="&#x25c7;" 
d="M0 300v83h83v-83h84v-83h83v-84h83v-83h84v-83h83v-84h-83v84h-84v83h-83v83h-83v84h-84v83h-83zM500 -33v83h83v-83h-83zM583 50v83h84v-83h-84zM667 133v84h83v-84h-83zM750 217v83h83v-83h-83zM833 300v83h84v-83h-84zM833 383h-83v84h83v-84zM83 383v84h84v-84h-84z
M750 467h-83v83h83v-83zM167 467v83h83v-83h-83zM667 550h-84v83h84v-83zM250 550v83h83v-83h-83zM583 633h-83v84h83v-84zM333 633v84h84v-84h-84zM500 717h-83v83h83v-83z" />
    <glyph glyph-name="circle" unicode="&#x25cb;" 
d="M583 -33h-166v83h166v-83zM750 50h-167v83h167v-83zM417 50h-167v83h167v-83zM750 133v167h83v-167h-83zM250 133h-83v167h83v-167zM833 300v167h84v-167h-84zM167 300h-84v167h84v-167zM833 467h-83v166h83v-166zM167 467v166h83v-166h-83zM750 633h-167v84h167v-84z
M417 633h-167v84h167v-84zM583 717h-166v83h166v-83z" />
    <glyph glyph-name="uni25CE" unicode="&#x25ce;" 
d="M583 -33h-166v83h166v-83zM750 50h-167v83h167v-83zM417 50h-167v83h167v-83zM750 133v167h83v-167h-83zM250 133h-83v167h83v-167zM583 217h-166v83h166v-83zM833 300v167h84v-167h-84zM583 300v167h84v-167h-84zM417 300h-84v167h84v-167zM167 300h-84v167h84v-167z
M833 467h-83v166h83v-166zM583 467h-166v83h166v-83zM167 467v166h83v-166h-83zM750 633h-167v84h167v-84zM417 633h-167v84h167v-84zM583 717h-166v83h166v-83z" />
    <glyph glyph-name="H18533" unicode="&#x25cf;" 
d="M583 -33h-166v83h-167v83h-83v167h-84v167h84v166h83v84h167v83h166v-83h167v-84h83v-166h84v-167h-84v-167h-83v-83h-167v-83z" />
    <glyph glyph-name="uni25EF" unicode="&#x25ef;" 
d="M583 -117h-250v84h250v-84zM750 -33h-167v83h167v-83zM333 -33h-166v83h166v-83zM750 50v167h83v-167h-83zM167 50h-84v167h84v-167zM833 217v250h84v-250h-84zM83 217h-83v250h83v-250zM833 467h-83v166h83v-166zM83 467v166h84v-166h-84zM750 633h-167v84h167v-84z
M333 633h-166v84h166v-84zM583 717h-250v83h250v-83z" />
    <glyph glyph-name="uni2600" unicode="&#x2600;" 
d="M417 -33v83h83v-83h-83zM667 50v83h83v-83h-83zM167 50v83h83v-83h-83zM667 550v83h83v-83h-83zM167 550v83h83v-83h-83zM417 633v84h83v-84h-83zM583 133h-250v84h-83v250h83v83h250v-83h84v-250h-84v-84z" />
    <glyph glyph-name="uni2602" unicode="&#x2602;" 
d="M667 -33h-417v83h-83v250h83v83h83v84h84v166h83v-166h83v-84h84v-83h83v-250h-83v-83z" />
    <glyph glyph-name="uni2605" unicode="&#x2605;" 
d="M83 -33v83h84v-83h-84zM0 467v83h333v167h84v166h83v-166h83v-167h334v-83h-167v-84h-83v-166h83v-167h83v-83h-83v83h-167v83h-83v84h-83v-84h-84v-83h-166v167h83v166h-83v84h-167z" />
    <glyph glyph-name="uni2606" unicode="&#x2606;" 
d="M83 -33v83h84v-83h-84zM0 467v83h333v167h84v-250h-167v-84h83v-166h84v-84h-84v-83h-166v167h83v-84h83v84h-83v166h-83v84h-167zM750 50h83v-83h-83v83zM750 50h-167v83h84v84h83v-167zM583 133h-83v84h83v-84zM667 217h-84v166h84v-166zM500 217h-83v83h83v-83z
M667 383v84h-167v250h83v-167h334v-83h-167v-84h-83zM500 717h-83v166h83v-166z" />
    <glyph glyph-name="female" unicode="&#x2640;" 
d="M167 133v84h250v166h-84v84h250v-84h-83v-166h250v-84h-250v-166h-83v166h-250zM583 467v250h84v-250h-84zM333 467h-83v250h83v-250zM583 717h-250v83h250v-83z" />
    <glyph glyph-name="male" unicode="&#x2642;" 
d="M417 633v84h416v-417h-83v250h-83v-83h-84v-84h-83v-333h-83v-83h-250v83h250v250h-250v-250h-84v250h84v83h333v84h83v83h84v83h-250z" />
    <glyph glyph-name="spade" unicode="&#x2660;" 
d="M250 -33v83h167v167h-84v-84h-166v84h-84v250h84v83h83v83h83v84h84v83h83v-83h83v-84h84v-83h83v-83h83v-250h-83v-84h-167v84h-83v-167h167v-83h-417z" />
    <glyph glyph-name="uni2661" unicode="&#x2661;" 
d="M500 50v-83h-83v83h83zM500 50v83h83v-83h-83zM417 50h-84v83h84v-83zM583 133v84h84v-84h-84zM333 133h-83v84h83v-84zM667 217v83h83v-83h-83zM250 217h-83v83h83v-83zM750 300v250h83v-250h-83zM167 300h-84v250h84v-250zM750 550h-250v-83h-83v83h83v83h250v-83z
M417 550h-250v83h250v-83z" />
    <glyph glyph-name="uni2662" unicode="&#x2662;" 
d="M500 50v-83h-83v83h83zM500 50v83h83v-83h-83zM417 50h-84v83h84v-83zM583 133v84h84v-84h-84zM333 133h-83v84h83v-84zM667 217v83h83v-83h-83zM250 217h-83v83h83v-83zM750 300v167h83v-167h-83zM167 300h-84v167h84v-167zM750 467h-83v83h83v-83zM167 467v83h83v-83
h-83zM667 550h-84v83h84v-83zM250 550v83h83v-83h-83zM583 633h-83v84h83v-84zM333 633v84h84v-84h-84zM500 717h-83v83h83v-83z" />
    <glyph glyph-name="club" unicode="&#x2663;" 
d="M250 -33v83h167v167h-84v-84h-166v84h-84v166h84v84h166v83h-83v167h83v83h250v-83h84v-167h-84v-83h167v-84h83v-166h-83v-84h-167v84h-83v-167h167v-83h-417z" />
    <glyph glyph-name="uni2664" unicode="&#x2664;" 
d="M250 -33v83h83v83h-166v84h166v83h84v-250h83v250h83v-83h167v-84h-167v-83h84v-83h-417zM750 217v250h83v-250h-83zM167 217h-84v250h84v-250zM750 467h-83v83h83v-83zM167 467v83h83v-83h-83zM667 550h-84v83h84v-83zM250 550v83h83v-83h-83zM583 633h-83v84h83v-84z
M333 633v84h84v-84h-84zM500 717h-83v83h83v-83z" />
    <glyph glyph-name="heart" unicode="&#x2665;" 
d="M500 50v-83h-83v83h-84v83h-83v84h-83v83h-84v250h84v83h250v-83h83v83h250v-83h83v-250h-83v-83h-83v-84h-84v-83h-83z" />
    <glyph glyph-name="diamond" unicode="&#x2666;" 
d="M500 50v-83h-83v83h-84v83h-83v84h-83v83h-84v167h84v83h83v83h83v84h84v83h83v-83h83v-84h84v-83h83v-83h83v-167h-83v-83h-83v-84h-84v-83h-83z" />
    <glyph glyph-name="uni2667" unicode="&#x2667;" 
d="M250 -33v83h83v83h-166v84h166v83h84v-250h83v250h83v-83h167v-84h-167v-83h84v-83h-417zM500 467v83h83v167h84v-167h83v-83h83v-250h-83v250h-250zM167 217h-84v250h84v-250zM417 467h-250v83h83v167h83v-167h84v-83zM583 717h-250v83h250v-83z" />
    <glyph glyph-name="uni2668" unicode="&#x2668;" 
d="M167 133v84h250v83h83v250h-83v83h166v-83h84v-83h83v-334h-83v-83h-84v-83h-250v83h-83v83h-83z" />
    <glyph glyph-name="musicalnote" unicode="&#x266a;" 
d="M583 300v83h84v-83h-84zM417 -33h-250v166h83v84h167v583h83v-83h83v-84h84v-83h83v-167h-83v167h-84v83h-83v-583h-83v-83z" />
    <glyph glyph-name="uni266D" unicode="&#x266d;" 
d="M417 -33h-167v833h83v-333h84v-84h-84v-333h84v-83zM417 50v83h83v-83h-83zM500 133v84h83v-84h-83zM583 217v250h84v-250h-84zM583 467h-166v83h166v-83z" />
    <glyph glyph-name="uni266F" unicode="&#x266f;" 
d="M167 133v84h166v166h-166v84h166v333h84v-250h166v250h84v-167h166v-83h-166v-167h166v-83h-166v-333h-84v250h-166v-250h-84v166h-166zM417 300h166v167h-166v-167z" />
    <glyph glyph-name="uni3000" unicode="&#x3000;" 
 />
    <glyph glyph-name="uni3001" unicode="&#x3001;" 
d="M83 -33v83h84v-83h83v-84h-83v84h-84z" />
    <glyph glyph-name="uni3002" unicode="&#x3002;" 
d="M333 -117h-166v84h166v-84zM333 -33v166h84v-166h-84zM167 -33h-84v166h84v-166zM333 133h-166v84h166v-84z" />
    <glyph glyph-name="uni3003" unicode="&#x3003;" 
d="M583 383v-250h-83v250h83zM333 383v-250h-83v250h83zM583 383v250h84v-250h-84zM333 383v250h84v-250h-84z" />
    <glyph glyph-name="uni3005" unicode="&#x3005;" 
d="M333 133v84h84v-84h83v-83h83v-83h-83v83h-83v83h-84zM500 133v84h83v-84h-83zM583 217v83h84v-83h-84zM667 300v167h-417v-167h-83v167h83v250h83v-167h417v-250h-83z" />
    <glyph glyph-name="uni3006" unicode="&#x3006;" 
d="M167 50v-83h-84v416h84v-250h83v-83h-83zM250 133v84h83v-84h-83zM750 217h83v-84h-83v84zM750 217h-83v83h83v-83zM333 217v83h84v-83h-84zM667 300h-84v83h84v-83zM417 300v83h83v-83h-83zM583 383h-83v84h83v-84zM167 383v84h83v-84h-83zM583 467v83h84v-83h-84z
M500 467h-250v83h250v-83zM667 550v83h83v-83h-83zM750 633v84h83v-84h-83z" />
    <glyph glyph-name="uni3007" unicode="&#x3007;" 
d="M583 -33h-250v83h250v-83zM750 50h-167v83h167v-83zM333 50h-166v83h166v-83zM750 133v84h83v-84h-83zM167 133h-84v84h84v-84zM833 217v250h84v-250h-84zM83 217h-83v250h83v-250zM833 467h-83v83h83v-83zM83 467v83h84v-83h-84zM750 550h-167v83h167v-83zM333 550h-166
v83h166v-83zM583 633h-250v84h250v-84z" />
    <glyph glyph-name="uni3008" unicode="&#x3008;" 
d="M833 50v-167h-83v167h83zM750 50h-83v167h83v-167zM667 217h-84v250h84v-250zM667 467v166h83v-166h-83zM750 633v167h83v-167h-83z" />
    <glyph glyph-name="uni3009" unicode="&#x3009;" 
d="M167 50v-167h-84v167h84zM167 50v167h83v-167h-83zM250 217v250h83v-250h-83zM250 467h-83v166h83v-166zM167 633h-84v167h84v-167z" />
    <glyph glyph-name="uni300A" unicode="&#x300a;" 
d="M917 50v-167h-84v167h84zM667 50v-167h-84v167h84zM833 50h-83v167h83v-167zM583 50h-83v167h83v-167zM750 217h-83v250h83v-250zM500 217h-83v250h83v-250zM750 467v166h83v-166h-83zM500 467v166h83v-166h-83zM833 633v167h84v-167h-84zM583 633v167h84v-167h-84z" />
    <glyph glyph-name="uni300B" unicode="&#x300b;" 
d="M333 50v-167h-83v167h83zM83 50v-167h-83v167h83zM333 50v167h84v-167h-84zM83 50v167h84v-167h-84zM417 217v250h83v-250h-83zM167 217v250h83v-250h-83zM417 467h-84v166h84v-166zM167 467h-84v166h84v-166zM333 633h-83v167h83v-167zM83 633h-83v167h83v-167z" />
    <glyph glyph-name="uni300C" unicode="&#x300c;" 
d="M583 800v-583h-83v666h333v-83h-250z" />
    <glyph glyph-name="uni300D" unicode="&#x300d;" 
d="M83 -200v83h250v584h84v-667h-334z" />
    <glyph glyph-name="uni300E" unicode="&#x300e;" 
d="M583 133h-250v750h500v-250h-250v-500zM500 217v500h250v83h-333v-583h83z" />
    <glyph glyph-name="uni300F" unicode="&#x300f;" 
d="M583 -200h-500v250h250v500h250v-750zM167 -117h333v584h-83v-500h-250v-84z" />
    <glyph glyph-name="uni3010" unicode="&#x3010;" 
d="M833 -200h-333v1083h333v-83h-83v-83h-83v-167h-84v-417h84v-166h83v-84h83v-83z" />
    <glyph glyph-name="uni3011" unicode="&#x3011;" 
d="M83 -200v83h84v84h83v166h83v417h-83v167h-83v83h-84v83h334v-1083h-334z" />
    <glyph glyph-name="uni3012" unicode="&#x3012;" 
d="M83 383v84h750v-84h-333v-416h-83v416h-334zM83 717v83h750v-83h-750z" />
    <glyph glyph-name="uni3013" unicode="&#x3013;" 
d="M833 50h-750v250h750v-250zM833 383h-750v250h750v-250z" />
    <glyph glyph-name="uni3014" unicode="&#x3014;" 
d="M750 -117h83v-83h-83v83zM750 -117h-83v84h83v-84zM667 -33h-84v750h84v-750zM667 717v83h83v-83h-83zM750 800v83h83v-83h-83z" />
    <glyph glyph-name="uni3015" unicode="&#x3015;" 
d="M83 -200v83h84v-83h-84zM83 800v83h84v-83h83v-83h83v-750h-83v-84h-83v84h83v750h-83v83h-84z" />
    <glyph glyph-name="uni301D" unicode="&#x301d;" 
d="M750 717v-167h-83v167h83zM583 717v-167h-83v167h83zM750 717v166h83v-166h-83zM667 717h-84v166h84v-166z" />
    <glyph glyph-name="uni301F" unicode="&#x301f;" 
d="M333 133v-166h-83v166h83zM167 133v-166h-84v166h84zM333 133v167h84v-167h-84zM250 133h-83v167h83v-167z" />
    <glyph glyph-name="uni3020" unicode="&#x3020;" 
d="M667 133v-166h-84v83h-83v-83h-83v83h-84v-83h-83v166h-83v500h83v84h417v-84h83v-500h-83zM500 217h167v166h-167v-166zM500 133v84h-83v-84h83zM250 217h167v166h-167v-166z" />
    <glyph glyph-name="uni303C" unicode="&#x303c;" 
d="M917 -200h-167v83h167v-83zM917 -117v167h83v-167h-83zM750 -117h-83v167h83v-167zM917 50h-167v83h167v-83z" />
    <glyph glyph-name="uni3041" unicode="&#x3041;" 
d="M583 -117v84h84v-84h-84zM167 383v84h250v83h83v-83h250v-84h-333v-83h250v-83h83v-250h-83v250h-84v-167h-83v-83h-83v-84h-167v84h83v166h-83v-166h-83v166h83v84h83v166h-166zM500 50v167h-83v-167h83z" />
    <glyph glyph-name="uni3042" unicode="&#x3042;" 
d="M583 -117v84h167v-84h-167zM83 550v83h334v167h83v-167h167v-83h-250v-83h333v-84h83v-83h84v-250h-84v-83h-83v83h83v250h-83v83h-83v-166h-84v-84h-83v-166h-83v83h-84v-83h-166v83h166v250h-83v-83h-83v-167h-84v167h84v83h83v83h83v167h-250zM500 133v84h83v166h-166
v-250h83zM833 633h-166v84h166v-84z" />
    <glyph glyph-name="uni3043" unicode="&#x3043;" 
d="M417 -33h-167v83h167v-83zM417 50v83h83v-83h-83zM250 50h-83v417h83v-417zM750 300v-250h-83v250h83zM667 300h-84v167h84v-167z" />
    <glyph glyph-name="uni3044" unicode="&#x3044;" 
d="M667 467v83h83v-83h83v-167h84v-167h-84v167h-83v167h-83zM417 -33h-167v83h167v-83zM417 50v83h83v-83h-83zM250 50h-83v83h83v-83zM500 133v84h83v-84h-83zM167 133h-84v334h84v-334zM167 467v166h83v-166h-83z" />
    <glyph glyph-name="uni3045" unicode="&#x3045;" 
d="M417 -117v84h166v-84h-166zM250 133v84h167v-84h-167zM333 467v83h167v-83h167v-84h-167v84h-167zM583 -33v83h84v-83h-84zM667 50v167h83v-167h-83zM667 217h-250v83h250v-83z" />
    <glyph glyph-name="uni3046" unicode="&#x3046;" 
d="M250 -117v84h167v-84h-167zM167 383v84h166v-84h-166zM250 717v83h250v-83h167v-84h-167v84h-250zM583 -33h-166v83h166v-83zM583 50v83h84v-83h-84zM667 133v250h83v-250h-83zM667 383h-84v84h84v-84zM583 467h-250v83h250v-83z" />
    <glyph glyph-name="uni3047" unicode="&#x3047;" 
d="M250 -117v84h83v-84h-83zM250 217v83h417v-83h-84v-84h-83v-83h83v-83h167v-84h-167v84h-83v83h-83v-83h-84v83h84v83h83v84h-250zM333 467v83h167v-83h167v-84h-167v84h-167z" />
    <glyph glyph-name="uni3048" unicode="&#x3048;" 
d="M83 -117v84h84v-84h-84zM167 467v83h500v-167h-84v-83h-83v-167h83v-166h250v-84h-250v84h-83v166h-167v-83h-83v-83h-83v83h83v83h83v84h84v83h83v83h83v84h-416zM333 717v83h167v-83h167v-84h-167v84h-167z" />
    <glyph glyph-name="uni3049" unicode="&#x3049;" 
d="M500 -117v84h167v-84h-167zM167 300v83h166v167h84v-167h166v-83h-166v-83h250v-84h83v-166h-83v166h-250v-166h-84v-84h-166v250h83v-166h83v166h-83v84h83v83h-166zM667 383v84h83v-84h83v-83h-83v83h-83z" />
    <glyph glyph-name="uni304A" unicode="&#x304a;" 
d="M583 -117v84h167v-84h-167zM83 550v83h250v167h84v-167h166v-83h-166v-167h333v-83h83v-83h84v-167h-84v-83h-83v83h83v167h-83v83h-333v-333h-84v-84h-166v84h166v250h-83v-84h-83v-166h-84v166h84v84h83v83h83v250h-250zM667 633v84h166v-84h84v-83h-84v83h-166z" />
    <glyph glyph-name="uni304B" unicode="&#x304b;" 
d="M250 -117v84h250v-84h-250zM83 467v83h167v250h83v-250h167v-83h83v-500h-83v500h-167v-167h-83v-167h-83v-166h-84v166h84v167h83v167h-167zM917 383v-166h-84v166h84zM833 383h-83v167h83v-167zM750 550h-83v167h83v-167z" />
    <glyph glyph-name="uni304C" unicode="&#x304c;" 
d="M250 -117v84h250v-84h-250zM83 467v83h167v250h83v-250h167v-83h83v-500h-83v500h-167v-167h-83v-167h-83v-166h-84v166h84v167h83v167h-167zM583 633v84h84v-84h83v-83h-83v83h-84zM750 717v83h83v-83h84v-84h-84v84h-83zM917 300v-167h-84v167h84zM833 300h-83v167h83
v-167z" />
    <glyph glyph-name="uni304D" unicode="&#x304d;" 
d="M83 383v84h417v83h-417v83h334v167h83v-167h83v-83h250v-83h-250v-84h84v-83h83v-167h-167v84h84v83h-84v-83h-333v-167h83v-83h334v-84h-334v84h-83v83h-83v167h83v83h333v83h-500zM750 633h-167v84h167v-84z" />
    <glyph glyph-name="uni304E" unicode="&#x304e;" 
d="M83 383v84h417v83h-417v83h334v167h83v-167h83v-83h250v-83h-250v-84h84v-83h83v-167h-167v84h84v83h-84v-83h-333v-167h83v-83h334v-84h-334v84h-83v83h-83v167h83v83h333v83h-500zM583 717v83h84v-83h83v-84h-83v84h-84zM750 800v83h83v-83h84v-83h-84v83h-83z" />
    <glyph glyph-name="uni304F" unicode="&#x304f;" 
d="M667 -33h83v-84h-83v84zM667 -33h-84v83h84v-83zM583 50h-83v83h83v-83zM500 133h-167v84h167v-84zM333 217h-83v166h83v-166zM333 383v84h84v-84h-84zM417 467v83h83v-83h-83zM500 550v83h83v-83h-83zM583 633v84h84v-84h-84z" />
    <glyph glyph-name="uni3050" unicode="&#x3050;" 
d="M583 467v83h84v-83h83v-84h-83v84h-84zM750 550v83h83v-83h84v-83h-84v83h-83zM583 -33h84v-84h-84v84zM583 -33h-83v83h83v-83zM500 50h-83v83h83v-83zM417 133h-167v84h167v-84zM250 217h-83v166h83v-166zM250 383v84h83v-84h-83zM333 467v83h84v-83h-84zM417 550v83
h83v-83h-83zM500 633v84h83v-84h-83z" />
    <glyph glyph-name="uni3051" unicode="&#x3051;" 
d="M417 -117v84h166v-84h-166zM333 467v83h334v250h83v-250h167v-83h-167v-417h-83v-83h-84v83h84v417h-334zM250 50v-167h-83v167h83zM167 50h-84v500h84v-500zM167 550v167h83v-167h-83z" />
    <glyph glyph-name="uni3052" unicode="&#x3052;" 
d="M333 -117v84h167v-84h-167zM250 467v83h333v250h84v-167h83v-83h83v-83h-83v83h-83v-500h-84v-83h-83v83h83v417h-333zM750 717v83h83v-83h84v-84h-84v84h-83zM167 50v-167h-84v167h84zM83 50h-83v500h83v-500zM83 550v167h84v-167h-84z" />
    <glyph glyph-name="uni3053" unicode="&#x3053;" 
d="M250 633v84h500v-84h-500zM750 -33h-500v83h500v-83zM750 50v83h83v-83h-83zM250 50h-83v167h83v-167zM250 217v83h83v-83h-83z" />
    <glyph glyph-name="uni3054" unicode="&#x3054;" 
d="M667 467v83h83v-83h83v-84h-83v84h-83zM750 633v84h83v-84h84v-83h-84v83h-83zM167 633v84h500v-84h-500zM667 -33h-500v83h500v-83zM667 50v83h83v-83h-83zM167 50h-84v167h84v-167zM167 217v83h83v-83h-83z" />
    <glyph glyph-name="uni3055" unicode="&#x3055;" 
d="M83 467v83h417v250h83v-250h84v-250h83v-167h-167v84h84v83h-84v-83h-333v-167h83v-83h334v-84h-334v84h-83v83h-83v167h83v83h333v167h-500zM833 550h-166v83h166v-83z" />
    <glyph glyph-name="uni3056" unicode="&#x3056;" 
d="M0 467v83h333v250h84v-167h166v-83h-166v-83h83v-84h83v-83h84v-167h-167v84h83v83h-83v-83h-333v-167h83v-83h333v-84h-333v84h-83v83h-84v167h84v83h333v83h-83v84h-417zM750 717v83h83v-83h84v-84h-84v84h-83zM667 633h83v-83h-83v83zM667 633h-84v84h84v-84z" />
    <glyph glyph-name="uni3057" unicode="&#x3057;" 
d="M667 -117h-250v84h250v-84zM667 -33v83h83v-83h-83zM417 -33h-84v83h84v-83zM750 50v167h83v-167h-83zM333 50h-83v417h83v-417zM333 467v250h84v-250h-84z" />
    <glyph glyph-name="uni3058" unicode="&#x3058;" 
d="M500 550v83h83v-83h84v-83h-84v83h-83zM667 633v84h83v-84h83v-83h-83v83h-83zM583 -117h-250v84h250v-84zM583 -33v83h84v-83h-84zM333 -33h-83v83h83v-83zM667 50v167h83v-167h-83zM250 50h-83v417h83v-417zM250 467v250h83v-250h-83z" />
    <glyph glyph-name="uni3059" unicode="&#x3059;" 
d="M250 -117v84h167v-84h-167zM0 550v83h500v167h83v-167h334v-83h-334v-500h-83v-83h-83v83h83v83h-167v84h167v166h-167v-166h-83v166h83v84h167v83h-500z" />
    <glyph glyph-name="uni305A" unicode="&#x305a;" 
d="M250 -117v84h167v-84h-167zM667 217v83h83v-83h83v-84h-83v84h-83zM750 383v84h83v-84h84v-83h-84v83h-83zM0 550v83h500v167h83v-167h334v-83h-334v-500h-83v-83h-83v83h83v83h-167v84h167v166h-167v-166h-83v166h83v84h167v83h-500z" />
    <glyph glyph-name="uni305B" unicode="&#x305b;" 
d="M500 133v84h167v250h-167v-84h-167v-416h500v-84h-500v84h-83v416h-167v84h167v250h83v-250h167v83h167v250h83v-250h167v-83h-167v-334h-250z" />
    <glyph glyph-name="uni305C" unicode="&#x305c;" 
d="M417 133v84h166v250h-166v-84h-167v-416h500v-84h-500v84h-83v416h-167v84h167v250h83v-250h167v83h166v250h84v-250h83v-83h83v-84h-83v84h-83v-334h-250zM750 633v84h83v-84h84v-83h-84v83h-83z" />
    <glyph glyph-name="uni305D" unicode="&#x305d;" 
d="M83 300v83h334v84h83v-84h417v-83h-417v-83h-83v-250h333v-84h-333v84h-84v250h84v83h-334zM250 633v84h500v-84h-83v-83h-84v-83h-83v83h83v83h-333z" />
    <glyph glyph-name="uni305E" unicode="&#x305e;" 
d="M0 300v83h333v84h84v-84h416v-83h-416v-83h-84v-250h334v-84h-334v84h-83v250h83v83h-333zM750 633v84h83v-84h84v-83h-84v83h-83zM167 633v84h416v-84h84v-83h83v-83h-83v83h-167v-83h-83v83h83v83h-333z" />
    <glyph glyph-name="uni305F" unicode="&#x305f;" 
d="M500 383v84h333v-84h-333zM83 550v83h167v167h83v-167h417v-83h-417v-250h-83v-250h-83v-167h-84v167h84v250h83v250h-167zM917 -33h-417v83h417v-83zM500 50h-83v167h83v-167zM500 217v83h83v-83h-83z" />
    <glyph glyph-name="uni3060" unicode="&#x3060;" 
d="M500 383v84h333v-84h-333zM83 550v83h167v167h83v-167h334v-83h-334v-250h-83v-250h-83v-167h-84v167h84v250h83v250h-167zM583 717v83h84v-83h83v-84h-83v84h-84zM750 800v83h83v-83h84v-83h-84v83h-83zM917 -33h-417v83h417v-83zM500 50h-83v167h83v-167zM500 217v83
h83v-83h-83z" />
    <glyph glyph-name="uni3061" unicode="&#x3061;" 
d="M333 -117v84h334v-84h-334zM83 550v83h334v167h83v-167h417v-83h-500v-167h250v-83h83v-83h83v-167h-83v-83h-83v83h83v167h-83v83h-250v-83h-167v166h83v-83h84v83h-84v167h-250z" />
    <glyph glyph-name="uni3062" unicode="&#x3062;" 
d="M250 -117v84h333v-84h-333zM0 550v83h333v167h84v-167h250v-83h-334v-167h250v-83h84v-83h83v-167h-83v-83h-84v83h84v167h-84v83h-250v-83h-166v166h83v-83h83v83h-83v167h-250zM583 717v83h84v-83h83v-84h-83v84h-84zM750 800v83h83v-83h84v-83h-84v83h-83z" />
    <glyph glyph-name="uni3063" unicode="&#x3063;" 
d="M333 -117v84h250v-84h-250zM167 217v83h166v-83h-166zM583 -33v83h84v-83h-84zM667 50v167h83v-167h-83zM667 217h-84v83h84v-83zM583 300h-250v83h250v-83z" />
    <glyph glyph-name="uni3064" unicode="&#x3064;" 
d="M250 -33v83h250v-83h-250zM83 467v83h250v-83h-250zM667 50h-167v83h167v-83zM667 133v84h83v-84h-83zM750 217v250h83v-250h-83zM750 467h-83v83h83v-83zM667 550h-334v83h334v-83z" />
    <glyph glyph-name="uni3065" unicode="&#x3065;" 
d="M250 -33v83h250v-83h-250zM83 467v83h250v-83h-250zM583 717v83h84v-83h83v-84h-83v-83h83v-83h83v-250h-83v-84h-83v-83h-167v83h167v84h83v250h-83v83h-334v83h334v84h-84zM750 800v83h83v-83h84v-83h-84v83h-83z" />
    <glyph glyph-name="uni3066" unicode="&#x3066;" 
d="M0 467v83h333v-83h-333zM750 -117h-250v84h250v-84zM500 -33h-83v83h83v-83zM417 50h-84v333h84v-333zM417 383v84h83v-84h-83zM500 467v83h-167v83h500v-83h-250v-83h-83z" />
    <glyph glyph-name="uni3067" unicode="&#x3067;" 
d="M583 300v83h84v-83h83v-83h-83v83h-84zM750 383v84h83v-84h84v-83h-84v83h-83zM0 467v83h333v-83h-333zM750 -117h-250v84h250v-84zM500 -33h-83v83h83v-83zM417 50h-84v333h84v-333zM417 383v84h83v-84h-83zM500 467v83h-167v83h500v-83h-250v-83h-83z" />
    <glyph glyph-name="uni3068" unicode="&#x3068;" 
d="M750 -117h-417v84h417v-84zM333 -33h-83v83h83v-83zM250 50h-83v167h83v-167zM250 217v83h83v-83h-83zM500 300h-167v83h84v167h83v-83h250v-84h-250v-83zM417 550h-84v250h84v-250z" />
    <glyph glyph-name="uni3069" unicode="&#x3069;" 
d="M500 717v83h83v-83h84v-84h-84v84h-83zM667 800v83h83v-83h83v-83h-83v83h-83zM667 -117h-417v84h417v-84zM250 -33h-83v83h83v-83zM167 50h-84v167h84v-167zM167 217v83h83v-83h-83zM417 300h-167v83h83v167h84v-83h250v-84h-250v-83zM333 550h-83v250h83v-250z" />
    <glyph glyph-name="uni306A" unicode="&#x306a;" 
d="M0 550v83h333v167h84v-167h166v-83h-250v-167h-83v-166h-83v-167h-84v167h84v166h83v167h-250zM667 633v84h166v-84h84v-83h-84v83h-166zM667 -117h-250v84h250v-84zM667 -33v166h-250v-166h-84v166h84v84h250v250h83v-334h83v-83h84v-83h-84v83h-83v-83h-83z" />
    <glyph glyph-name="uni306B" unicode="&#x306b;" 
d="M500 550v83h333v-83h-333zM917 -33h-417v83h417v-83zM250 50v-167h-83v167h83zM500 50h-83v167h83v-167zM167 50h-84v500h84v-500zM500 217v83h83v-83h-83zM167 550v167h83v-167h-83z" />
    <glyph glyph-name="uni306C" unicode="&#x306c;" 
d="M750 -117h-167v84h167v-84zM833 -33h84v-84h-84v84zM833 -33h-83v166h83v250h84v-333h-84v-83zM583 -33h-83v166h83v-166zM333 -33h-166v83h166v-83zM333 50v83h84v-83h-84zM167 50h-84v250h84v-250zM750 133h-167v84h167v-84zM500 133h-83v167h83v-167zM333 133h-83v167
h83v-167zM500 300v167h-167v-84h-83v-83h-83v333h83v-166h83v83h167v250h83v-250h167v-83h83v-84h-83v84h-167v-167h-83z" />
    <glyph glyph-name="uni306D" unicode="&#x306d;" 
d="M83 50v83h84v-83h-84zM83 467v83h167v250h83v-417h84v-83h-84v-417h-83v250h-83v84h83v250h-167zM750 -117h-167v84h167v-84zM833 -33h84v-84h-84v84zM833 -33h-83v166h83v250h84v-333h-84v-83zM583 -33h-83v166h83v-166zM750 133h-167v84h167v-84zM833 383h-83v84h83
v-84zM417 383v84h83v-84h-83zM750 467h-250v83h250v-83z" />
    <glyph glyph-name="uni306E" unicode="&#x306e;" 
d="M583 -33v83h167v-83h-167zM750 50v83h83v-83h-83zM333 50h-166v83h166v-83zM833 133v334h84v-334h-84zM333 133v167h84v-167h-84zM167 133h-84v250h84v-250zM417 300v250h-84v-83h-83v-84h-83v84h83v83h83v83h417v-83h83v-83h-83v83h-250v-250h-83z" />
    <glyph glyph-name="uni306F" unicode="&#x306f;" 
d="M333 467v83h334v250h83v-250h167v-83h-167v-334h83v-83h84v-83h-84v83h-83v-83h-83v-84h-250v84h250v166h-250v-166h-84v166h84v84h250v250h-334zM250 50v-167h-83v167h83zM167 50h-84v500h84v-500zM167 550v167h83v-167h-83z" />
    <glyph glyph-name="uni3070" unicode="&#x3070;" 
d="M250 467v83h333v250h84v-167h83v-83h83v-83h-83v83h-83v-417h83v-83h83v-83h-83v83h-83v-83h-84v-84h-250v84h250v166h-250v-166h-83v166h83v84h250v250h-333zM750 717v83h83v-83h84v-84h-84v84h-83zM167 50v-167h-84v167h84zM83 50h-83v500h83v-500zM83 550v167h84v-167
h-84z" />
    <glyph glyph-name="uni3071" unicode="&#x3071;" 
d="M250 467v83h333v167h84v-167h166v-83h-166v-334h83v-83h83v-83h-83v83h-83v-83h-84v-84h-250v84h250v166h-250v-166h-83v166h83v84h250v250h-333zM167 50v-167h-84v167h84zM83 50h-83v500h83v-500zM833 550v167h84v-167h-84zM83 550v167h84v-167h-84zM833 717h-166v83
h166v-83z" />
    <glyph glyph-name="uni3072" unicode="&#x3072;" 
d="M83 633v84h334v-167h-84v-83h-83v-167h-83v-250h83v-83h250v-84h-250v84h-83v83h-84v250h84v167h83v83h83v83h-250zM500 -33v83h83v-83h-83zM583 50v167h84v-167h-84zM667 217v333h83v-83h83v-84h84v-83h-84v83h-83v-166h-83zM667 550h-84v167h84v-167z" />
    <glyph glyph-name="uni3073" unicode="&#x3073;" 
d="M583 633v84h84v-84h83v-83h-83v83h-84zM83 633v84h334v-167h-84v-83h-83v-167h-83v-250h83v-83h250v-84h-250v84h-83v83h-84v250h84v167h83v83h83v83h-250zM750 717v83h83v-83h84v-84h-84v84h-83zM500 -33v83h83v-83h-83zM583 50v167h84v-167h-84zM667 217v250h83v-84h83
v-83h84v-83h-84v83h-83v-83h-83z" />
    <glyph glyph-name="uni3074" unicode="&#x3074;" 
d="M83 633v84h334v-167h-84v-83h-83v-167h-83v-250h83v-83h250v-84h-250v84h-83v83h-84v250h84v167h83v83h83v83h-250zM500 -33v83h83v-83h-83zM583 50v167h84v-167h-84zM667 217v333h166v-83h84v-84h-84v84h-83v-250h-83zM833 550v167h84v-167h-84zM667 550h-84v167h84
v-167zM833 717h-166v83h166v-83z" />
    <glyph glyph-name="uni3075" unicode="&#x3075;" 
d="M333 -117v84h167v-84h-167zM250 633v84h417v-167h-84v-83h-83v-250h83v-250h-83v250h-83v250h83v83h83v83h-333zM917 217v-250h-84v250h84zM167 133v-166h-84v166h84zM167 133v250h83v-250h-83zM833 217h-83v166h83v-166z" />
    <glyph glyph-name="uni3076" unicode="&#x3076;" 
d="M333 -117v84h167v-84h-167zM250 633v84h417v-84h83v-83h83v-83h-83v83h-167v-83h-83v-250h83v-250h-83v250h-83v250h83v83h83v83h-333zM750 717v83h83v-83h84v-84h-84v84h-83zM917 133v-166h-84v166h84zM167 133v-166h-84v166h84zM833 133h-83v167h83v-167zM167 133v250
h83v-250h-83z" />
    <glyph glyph-name="uni3077" unicode="&#x3077;" 
d="M333 -117v84h167v-84h-167zM250 633v84h417v-167h166v-83h-166v83h-84v-83h-83v-250h83v-250h-83v250h-83v250h83v83h83v83h-333zM917 133v-166h-84v166h84zM167 133v-166h-84v166h84zM833 133h-83v167h83v-167zM167 133v250h83v-250h-83zM833 550v167h84v-167h-84z
M833 717h-166v83h166v-83z" />
    <glyph glyph-name="uni3078" unicode="&#x3078;" 
d="M0 217v83h83v-83h-83zM917 50h-167v83h167v-83zM750 133h-167v84h167v-84zM583 217h-83v83h83v-83zM500 300h-83v83h83v-83zM83 300v83h84v-83h-84zM417 383h-250v84h250v-84z" />
    <glyph glyph-name="uni3079" unicode="&#x3079;" 
d="M0 217v83h83v-83h-83zM500 550v83h83v-83h84v-83h-84v83h-83zM667 633v84h83v-84h83v-83h-83v83h-83zM917 50h-167v83h167v-83zM750 133h-167v84h167v-84zM583 217h-83v83h83v-83zM500 300h-83v83h83v-83zM83 300v83h84v-83h-84zM417 383h-250v84h250v-84z" />
    <glyph glyph-name="uni307A" unicode="&#x307a;" 
d="M0 217v83h83v-83h-83zM917 50h-167v83h167v-83zM750 133h-167v84h167v-84zM583 217h-83v83h83v-83zM500 300h-83v83h83v-83zM83 300v83h84v-83h-84zM750 383h-167v84h167v-84zM417 383h-250v84h250v-84zM750 467v166h83v-166h-83zM583 467h-83v166h83v-166zM750 633h-167
v84h167v-84z" />
    <glyph glyph-name="uni307B" unicode="&#x307b;" 
d="M333 383v84h334v166h-334v84h584v-84h-167v-166h167v-84h-167v-250h83v-83h84v-83h-84v83h-83v-83h-83v-84h-250v84h250v166h-250v-166h-84v166h84v84h250v166h-334zM250 50v-167h-83v167h83zM167 50h-84v500h84v-500zM167 550v167h83v-167h-83z" />
    <glyph glyph-name="uni307C" unicode="&#x307c;" 
d="M250 383v84h333v166h-333v84h417v-84h83v-83h-83v-83h166v-84h-166v-250h83v-83h83v-83h-83v83h-83v-83h-84v-84h-250v84h250v166h-250v-166h-83v166h83v84h250v166h-333zM750 717v83h83v-83h84v-84h-84v84h-83zM167 50v-167h-84v167h84zM83 50h-83v500h83v-500zM83 550
v167h84v-167h-84z" />
    <glyph glyph-name="uni307D" unicode="&#x307d;" 
d="M250 383v84h333v166h-333v84h417v-167h166v-83h-166v-334h83v-83h83v-83h-83v83h-83v-83h-84v-84h-250v84h250v166h-250v-166h-83v166h83v84h250v166h-333zM167 50v-167h-84v167h84zM83 50h-83v500h83v-500zM833 550v167h84v-167h-84zM83 550v167h84v-167h-84zM833 717
h-166v83h166v-83z" />
    <glyph glyph-name="uni307E" unicode="&#x307e;" 
d="M167 383v84h333v83h-417v83h417v167h83v-167h250v-83h-250v-83h250v-84h-250v-250h167v-83h83v-83h-83v83h-167v-83h-83v-84h-250v84h250v166h-250v-166h-83v166h83v84h250v166h-333z" />
    <glyph glyph-name="uni307F" unicode="&#x307f;" 
d="M417 -117v84h166v-84h-166zM83 633v84h417v-334h167v250h83v-333h83v-83h84v-84h-84v84h-83v-167h-83v-83h-84v83h84v250h-250v-167h-84v-83h-83v-83h-167v83h167v83h83v167h-166v-83h-84v-167h-83v167h83v83h84v83h250v250h-334z" />
    <glyph glyph-name="uni3080" unicode="&#x3080;" 
d="M667 550v83h166v-83h84v-83h-84v83h-166zM83 550v83h250v167h84v-167h166v-83h-166v-583h333v-84h-333v84h-84v83h-166v83h166v167h-166v-167h-84v167h84v83h166v167h-250zM750 -33v250h83v-250h-83z" />
    <glyph glyph-name="uni3081" unicode="&#x3081;" 
d="M583 -117v84h167v-84h-167zM750 -33v83h83v-83h-83zM333 -33h-166v83h166v-83zM833 50v333h84v-333h-84zM333 50v167h84v83h83v-167h-83v-83h-84zM167 50h-84v250h84v-250zM333 217h-83v83h-83v83h83v84h83v-250zM500 300v167h-167v83h167v250h83v-250h167v-83h83v-84
h-83v84h-167v-167h-83zM250 467h-83v166h83v-166z" />
    <glyph glyph-name="uni3082" unicode="&#x3082;" 
d="M83 300v83h250v167h-250v83h250v167h84v-167h333v-83h-333v-167h333v-83h-417v-250h84v-83h250v-84h-250v84h-84v83h-83v250h-167zM667 -33v83h83v-83h-83zM750 50v167h83v-167h-83z" />
    <glyph glyph-name="uni3083" unicode="&#x3083;" 
d="M583 50v83h84v-83h-84zM167 217v83h83v167h83v-167h84v-250h83v-167h-83v167h-84v167h-166zM667 133v167h83v-167h-83zM667 300h-84v-83h-83v83h-83v83h83v167h83v-167h84v-83z" />
    <glyph glyph-name="uni3084" unicode="&#x3084;" 
d="M667 217v83h166v-83h-166zM83 300v83h167v-83h-167zM583 50v-167h-83v167h83zM500 50h-83v250h83v-250zM833 300v250h84v-250h-84zM417 300h-84v83h-83v334h83v-250h84v-167zM667 550v-167h-84v84h-166v83h166v250h84v-167h166v-83h-166z" />
    <glyph glyph-name="uni3085" unicode="&#x3085;" 
d="M500 -117v84h83v-84h-83zM417 50v83h166v167h-166v-83h-84v-250h-83v166h-83v334h83v-250h83v83h84v83h83v167h83v-167h167v-83h83v-167h-83v-83h-83v-83h-84v83h-166zM750 133v167h-83v-167h83z" />
    <glyph glyph-name="uni3086" unicode="&#x3086;" 
d="M417 -117v84h166v-84h-166zM417 133v84h166v333h-166v-83h-84v-167h-83v-250h-83v250h83v167h83v83h84v83h166v167h84v-167h166v-83h84v-333h-84v-84h-166v-166h-84v166h-166zM667 217h166v333h-166v-333zM167 300h-84v333h84v-333z" />
    <glyph glyph-name="uni3087" unicode="&#x3087;" 
d="M500 -117h-167v84h167v-84zM500 -33v166h-167v-166h-83v166h83v84h167v333h83v-167h167v-83h-167v-167h84v-83h83v-83h-83v83h-84v-83h-83z" />
    <glyph glyph-name="uni3088" unicode="&#x3088;" 
d="M417 -117h-250v84h250v-84zM417 -33v166h-250v-166h-84v166h84v84h250v583h83v-250h250v-83h-250v-334h167v-83h83v-83h-83v83h-167v-83h-83z" />
    <glyph glyph-name="uni3089" unicode="&#x3089;" 
d="M333 -117v84h250v-84h-250zM333 717v83h167v-83h167v-84h-167v84h-167zM750 -33h-167v83h167v-83zM750 50v167h83v-167h-83zM750 217h-83v83h83v-83zM417 217h-250v333h83v-250h167v-83zM667 300h-250v83h250v-83z" />
    <glyph glyph-name="uni308A" unicode="&#x308a;" 
d="M417 -117v84h166v-84h-166zM583 -33v83h84v-83h-84zM667 50v667h83v-667h-83zM417 217v-84h-84v84h84zM417 217v83h83v-83h-83zM333 217h-83v500h83v-500z" />
    <glyph glyph-name="uni308B" unicode="&#x308b;" 
d="M167 217v83h83v-83h-83zM250 633v84h500v-84h-83v-83h-84v-83h84v-84h83v-83h83v-250h-83v-83h-83v-84h-334v84h167v166h83v-166h84v83h83v250h-83v83h-250v-83h-167v83h167v84h83v83h83v83h-333zM333 -33h-83v166h83v-166zM500 133h-167v84h167v-84z" />
    <glyph glyph-name="uni308C" unicode="&#x308c;" 
d="M83 50v83h84v-83h-84zM83 467v83h167v250h83v-417h84v-83h-84v-417h-83v250h-83v84h83v250h-167zM917 -117h-167v84h167v-84zM750 -33h-83v250h83v-250zM750 217v250h83v-250h-83zM417 383v84h83v-84h-83zM750 467h-250v83h250v-83z" />
    <glyph glyph-name="uni308D" unicode="&#x308d;" 
d="M333 -117v84h250v-84h-250zM167 217v83h83v-83h-83zM250 633v84h500v-84h-83v-83h-84v-83h84v-84h83v-83h83v-250h-83v-83h-167v83h167v250h-83v83h-250v-83h-167v83h167v84h83v83h83v83h-333z" />
    <glyph glyph-name="uni308E" unicode="&#x308e;" 
d="M500 -117v84h167v-84h-167zM167 -33v83h83v-83h-83zM167 300v83h166v167h84v-250h83v-83h-83v-334h-84v167h-83v83h83v167h-166zM667 -33v333h83v-333h-83zM667 300h-167v83h167v-83z" />
    <glyph glyph-name="uni308F" unicode="&#x308f;" 
d="M583 -117v84h167v-84h-167zM83 50v83h84v-83h-84zM83 467v83h167v250h83v-417h84v-83h-84v-417h-83v250h-83v84h83v250h-167zM750 -33v83h83v-83h-83zM833 50v333h84v-333h-84zM833 383h-83v84h83v-84zM417 383v84h83v-84h-83zM750 467h-250v83h250v-83z" />
    <glyph glyph-name="uni3090" unicode="&#x3090;" 
d="M167 633v84h416v-167h167v-83h83v-84h84v-416h-84v-84h-166v84h166v166h-166v-166h-84v166h84v84h166v166h-83v84h-250v-250h-83v-167h-84v-83h-166v83h166v167h84v166h-167v-83h-83v-250h-84v250h84v83h83v84h250v166h-333z" />
    <glyph glyph-name="uni3091" unicode="&#x3091;" 
d="M83 -117v84h84v-84h-84zM167 383v84h166v-84h250v-83h167v-83h-83v-84h-250v-166h166v-84h-166v84h-250v83h166v83h-83v167h83v-83h250v83h-250v83h-166zM167 717v83h666v-83h-166v-84h-84v-83h167v-83h83v-167h-83v167h-417v83h167v83h83v84h-416zM833 -33h84v-84h-84
v84zM833 -33h-250v83h250v-83z" />
    <glyph glyph-name="uni3092" unicode="&#x3092;" 
d="M83 550v83h250v167h84v-167h333v-83h-417v-83h167v-84h83v-83h84v-83h-84v-167h-83v167h-83v-84h-84v-166h417v-84h-417v84h-83v166h83v84h84v83h83v83h-250v-83h-83v-167h-84v167h84v83h83v167h-167zM833 300h-166v83h166v-83z" />
    <glyph glyph-name="uni3093" unicode="&#x3093;" 
d="M833 -117h-166v84h166v-84zM833 -33v166h84v-166h-84zM667 -33h-84v333h84v-333zM167 50v-167h-84v167h84zM167 50v167h83v-167h-83zM417 217h-167v166h83v-83h84v-83zM583 300h-166v83h166v-83zM417 383h-84v167h84v-167zM417 550v167h83v-167h-83z" />
    <glyph glyph-name="uni3094" unicode="&#x3094;" 
d="M167 -117v84h166v-84h-166zM83 383v84h167v-84h-167zM583 633v84h84v-84h83v-83h-83v83h-84zM167 717v83h166v-83h167v-84h-167v84h-166zM667 800v83h83v-83h83v-83h-83v83h-83zM500 -33h-167v83h167v-83zM500 50v83h83v-83h-83zM583 133v250h84v-250h-84zM583 383h-83
v84h83v-84zM500 467h-250v83h250v-83z" />
    <glyph glyph-name="uni309B" unicode="&#x309b;" 
d="M83 717v83h84v-83h83v-84h-83v84h-84zM250 800v83h83v-83h84v-83h-84v83h-83z" />
    <glyph glyph-name="uni309C" unicode="&#x309c;" 
d="M333 550h-166v83h166v-83zM333 633v167h84v-167h-84zM167 633h-84v167h84v-167zM333 800h-166v83h166v-83z" />
    <glyph glyph-name="uni309D" unicode="&#x309d;" 
d="M333 133v84h250v83h84v-167h-334zM333 550v83h84v-83h83v-83h83v-167h-83v167h-83v83h-84z" />
    <glyph glyph-name="uni309E" unicode="&#x309e;" 
d="M250 133v84h250v83h83v-167h-333zM250 550v83h83v-83h84v-83h83v-167h-83v167h-84v83h-83zM500 633v84h83v-84h84v-83h-84v83h-83zM667 717v83h83v-83h83v-84h-83v84h-83z" />
    <glyph glyph-name="uni30A1" unicode="&#x30a1;" 
d="M250 -117v84h83v-84h-83zM583 133v84h84v-84h-84zM167 383v84h583v-250h-83v166h-500zM333 -33v83h84v-83h-84zM417 50v250h83v-250h-83z" />
    <glyph glyph-name="uni30A2" unicode="&#x30a2;" 
d="M167 -117v84h166v-84h-166zM667 383v84h83v-84h-83zM83 633v84h834v-167h-84v-83h-83v83h83v83h-750zM333 -33v83h84v-83h-84zM417 50v417h83v-417h-83z" />
    <glyph glyph-name="uni30A3" unicode="&#x30a3;" 
d="M250 133v84h167v-84h-167zM583 300v-417h-83v334h-83v83h166zM583 300v83h84v-83h-84zM667 383v84h83v-84h-83z" />
    <glyph glyph-name="uni30A4" unicode="&#x30a4;" 
d="M83 217v83h167v-83h-167zM583 467v-584h-83v500h-83v-83h-167v83h167v84h166zM583 467v83h84v-83h-84zM667 550v83h83v-83h-83zM750 633v84h83v-84h-83z" />
    <glyph glyph-name="uni30A5" unicode="&#x30a5;" 
d="M333 -117v84h250v-84h-250zM583 -33v83h84v-83h-84zM667 50v250h-417v-167h-83v250h250v167h83v-167h250v-333h-83z" />
    <glyph glyph-name="uni30A6" unicode="&#x30a6;" 
d="M250 -117v84h167v-84h-167zM583 -33h-166v83h166v-83zM583 50v83h84v-83h-84zM667 133v167h83v-167h-83zM750 300v250h-583v-250h-84v333h334v167h83v-167h333v-333h-83z" />
    <glyph glyph-name="uni30A7" unicode="&#x30a7;" 
d="M167 -33v83h250v333h-250v84h583v-84h-250v-333h250v-83h-583z" />
    <glyph glyph-name="uni30A8" unicode="&#x30a8;" 
d="M0 -33v83h417v500h-334v83h750v-83h-333v-500h417v-83h-917z" />
    <glyph glyph-name="uni30A9" unicode="&#x30a9;" 
d="M417 -117v84h83v166h-83v-83h-84v-83h-166v83h166v83h84v84h83v83h-333v83h333v167h83v-167h167v-83h-167v-417h-166z" />
    <glyph glyph-name="uni30AA" unicode="&#x30aa;" 
d="M417 -117v84h166v333h-83v-83h-83v-84h-167v-83h-167v83h167v84h167v83h83v83h83v84h-500v83h500v250h84v-250h250v-83h-250v-584h-250z" />
    <glyph glyph-name="uni30AB" unicode="&#x30ab;" 
d="M583 -117v84h250v-84h-250zM83 -117v84h167v-84h-167zM83 467v83h334v250h83v-250h417v-583h-84v500h-333v-250h-83v-167h-84v-83h-83v83h83v167h84v250h-334z" />
    <glyph glyph-name="uni30AC" unicode="&#x30ac;" 
d="M500 -117v84h250v-84h-250zM0 -117v84h167v-84h-167zM0 467v83h333v250h84v-250h416v-583h-83v500h-333v-250h-84v-167h-83v-83h-83v83h83v167h83v250h-333zM583 717v83h84v-83h83v-84h-83v84h-84zM750 800v83h83v-83h84v-83h-84v83h-83z" />
    <glyph glyph-name="uni30AD" unicode="&#x30ad;" 
d="M83 133v84h334v250h-334v83h334v250h83v-250h333v-83h-333v-250h417v-84h-334v-250h-83v250h-417z" />
    <glyph glyph-name="uni30AE" unicode="&#x30ae;" 
d="M0 133v84h333v250h-333v83h333v250h84v-250h250v-83h-250v-250h416v-84h-333v-250h-83v250h-417zM583 633v84h84v-84h83v-83h-83v83h-84zM750 717v83h83v-83h84v-84h-84v84h-83z" />
    <glyph glyph-name="uni30AF" unicode="&#x30af;" 
d="M167 -117v84h250v-84h-250zM167 300v83h83v-83h-83zM583 -33h-166v83h166v-83zM583 50v83h84v-83h-84zM667 133v167h83v-167h-83zM750 300v250h-333v-83h-84v-84h-83v84h83v83h84v250h83v-167h333v-333h-83z" />
    <glyph glyph-name="uni30B0" unicode="&#x30b0;" 
d="M83 -117v84h250v-84h-250zM83 300v83h84v-83h-84zM583 717v83h84v-83h83v-417h-83v-167h-84v-83h-83v-83h-167v83h167v83h83v167h84v250h-334v-83h-83v-84h-83v84h83v83h83v250h84v-167h250v84h-84zM750 800v83h83v-83h84v-83h-84v83h-83z" />
    <glyph glyph-name="uni30B1" unicode="&#x30b1;" 
d="M167 -117v84h166v-84h-166zM83 300v83h84v-83h-84zM500 -33h-167v83h167v-83zM500 50v167h83v-167h-83zM583 217v250h-333v-84h-83v84h83v333h83v-250h584v-83h-250v-250h-84z" />
    <glyph glyph-name="uni30B2" unicode="&#x30b2;" 
d="M83 -117v84h167v-84h-167zM0 300v83h83v-83h-83zM583 717v83h84v-83h83v-84h-83v84h-84zM750 800v83h83v-83h84v-83h-84v83h-83zM417 -33h-167v83h167v-83zM417 50v167h83v-167h-83zM500 217v250h-333v-84h-84v84h84v333h83v-250h583v-83h-250v-250h-83z" />
    <glyph glyph-name="uni30B3" unicode="&#x30b3;" 
d="M83 -33v83h667v500h-667v83h750v-750h-83v84h-667z" />
    <glyph glyph-name="uni30B4" unicode="&#x30b4;" 
d="M83 -33v83h667v500h-667v83h500v84h84v-84h166v-750h-83v84h-667zM500 717v83h83v-83h-83zM750 800v83h83v-83h84v-83h-84v83h-83z" />
    <glyph glyph-name="uni30B5" unicode="&#x30b5;" 
d="M250 -117v84h167v-84h-167zM83 467v83h167v250h83v-250h334v250h83v-250h167v-83h-167v-250h-83v-167h-84v-83h-166v83h166v167h84v250h-334v-250h-83v250h-167z" />
    <glyph glyph-name="uni30B6" unicode="&#x30b6;" 
d="M167 -117v84h166v-84h-166zM0 467v83h167v250h83v-250h333v250h84v-167h83v-83h83v-83h-83v83h-83v-333h-84v-167h-83v-83h-167v83h167v167h83v250h-333v-250h-83v250h-167zM750 717v83h83v-83h84v-84h-84v84h-83z" />
    <glyph glyph-name="uni30B7" unicode="&#x30b7;" 
d="M167 -117v84h250v-84h-250zM83 383v84h167v-84h167v-83h-167v83h-167zM167 633v84h166v-84h167v-83h-167v83h-166zM583 -33h-166v83h166v-83zM583 50v83h84v-83h-84zM667 133v84h83v-84h-83zM750 217v166h83v-166h-83zM833 383v167h84v-167h-84z" />
    <glyph glyph-name="uni30B8" unicode="&#x30b8;" 
d="M167 -117v84h250v-84h-250zM83 383v84h167v-84h167v-83h-167v83h-167zM167 633v84h166v-84h167v-83h-167v83h-166zM583 717v83h84v-83h83v-84h-83v84h-84zM750 800v83h83v-83h84v-83h-84v83h-83zM583 -33h-166v83h166v-83zM583 50v83h84v-83h-84zM667 133v84h83v-84h-83z
M750 217v166h83v-166h-83zM833 383v167h84v-167h-84z" />
    <glyph glyph-name="uni30B9" unicode="&#x30b9;" 
d="M83 -117v84h167v-84h-167zM167 633v84h583v-334h-83v-250h83v-83h83v-83h84v-84h-84v84h-83v83h-83v83h-167v-83h-83v-83h-167v83h167v83h83v84h83v166h84v250h-500z" />
    <glyph glyph-name="uni30BA" unicode="&#x30ba;" 
d="M0 -117v84h167v-84h-167zM83 633v84h500v83h84v-417h-84v-250h84v-83h83v-83h83v-84h-83v84h-83v83h-84v83h-166v-83h-84v-83h-166v83h166v83h84v84h83v166h83v250h-500zM750 800v83h83v-83h84v-83h-84v83h-83zM500 800v83h83v-83h-83z" />
    <glyph glyph-name="uni30BB" unicode="&#x30bb;" 
d="M667 217v83h83v-83h-83zM0 300v83h250v-83h-250zM917 -117h-500v84h500v-84zM417 -33h-84v416h-83v84h83v333h84v-333h83v-84h-83v-416zM750 300v167h83v-167h-83zM833 467v83h-166v-83h-167v83h167v83h250v-166h-84z" />
    <glyph glyph-name="uni30BC" unicode="&#x30bc;" 
d="M667 217v83h83v-83h-83zM0 300v83h250v-83h-250zM583 717v83h84v-83h83v-84h167v-166h-84v-167h-83v167h83v83h-166v-83h-167v-84h-83v-416h500v-84h-500v84h-84v416h-83v84h83v333h84v-333h83v83h167v167h-84zM750 800v83h83v-83h84v-83h-84v83h-83z" />
    <glyph glyph-name="uni30BD" unicode="&#x30bd;" 
d="M250 -117v84h167v-84h-167zM583 -33h-166v83h166v-83zM583 50v83h84v-83h-84zM667 133v167h83v-167h-83zM750 300v417h83v-417h-83zM250 550v-167h-83v167h83zM167 550h-84v167h84v-167z" />
    <glyph glyph-name="uni30BE" unicode="&#x30be;" 
d="M167 -117v84h166v-84h-166zM583 717v83h84v-83h83v-84h-83v84h-84zM750 800v83h83v-83h84v-83h-84v83h-83zM500 -33h-167v83h167v-83zM500 50v83h83v-83h-83zM583 133v167h84v-167h-84zM667 300v250h83v-250h-83zM167 550v-167h-84v167h84zM83 550h-83v167h83v-167z" />
    <glyph glyph-name="uni30BF" unicode="&#x30bf;" 
d="M167 -117v84h250v-84h-250zM417 300v83h166v-83h167v-167h-83v-83h-84v-83h-166v83h166v83h84v84h-84v83h-166zM167 300v83h83v-83h-83zM750 300v250h-333v-83h-84v-84h-83v84h83v83h84v250h83v-167h333v-333h-83z" />
    <glyph glyph-name="uni30C0" unicode="&#x30c0;" 
d="M83 -117v84h250v-84h-250zM333 300v83h167v-83h167v-167h-84v-83h-83v-83h-167v83h167v83h83v84h-83v83h-167zM83 300v83h84v-83h-84zM583 717v83h84v-83h83v-417h-83v250h-334v-83h-83v-84h-83v84h83v83h83v250h84v-167h250v84h-84zM750 800v83h83v-83h84v-83h-84v83
h-83z" />
    <glyph glyph-name="uni30C1" unicode="&#x30c1;" 
d="M167 -117v84h166v-84h-166zM0 300v83h417v167h-334v83h417v-250h417v-83h-417v-250h-83v-83h-84v83h84v250h-417zM833 633h-333v84h333v-84z" />
    <glyph glyph-name="uni30C2" unicode="&#x30c2;" 
d="M167 -117v84h166v-84h-166zM0 300v83h417v167h-334v83h417v-250h417v-83h-417v-250h-83v-83h-84v83h84v250h-417zM750 717v83h83v-83h84v-84h-84v84h-83zM667 633h83v-83h-83v83zM667 633h-167v84h167v-84z" />
    <glyph glyph-name="uni30C3" unicode="&#x30c3;" 
d="M250 -117v84h167v-84h-167zM583 -33h-166v83h166v-83zM583 50v167h84v-167h-84zM667 217v250h83v-250h-83zM500 467v-250h-83v250h83zM250 467v-250h-83v250h83z" />
    <glyph glyph-name="uni30C4" unicode="&#x30c4;" 
d="M250 -117v84h167v-84h-167zM583 -33h-166v83h166v-83zM583 50v83h84v-83h-84zM667 133v167h83v-167h-83zM750 300v417h83v-417h-83zM500 550v-167h-83v167h83zM250 550v-167h-83v167h83zM417 550h-84v167h84v-167zM167 550h-84v167h84v-167z" />
    <glyph glyph-name="uni30C5" unicode="&#x30c5;" 
d="M167 -117v84h166v-84h-166zM583 717v83h84v-83h83v-84h-83v84h-84zM750 800v83h83v-83h84v-83h-84v83h-83zM500 -33h-167v83h167v-83zM500 50v83h83v-83h-83zM583 133v167h84v-167h-84zM667 300v250h83v-250h-83zM417 550v-167h-84v167h84zM167 550v-167h-84v167h84z
M333 550h-83v167h83v-167zM83 550h-83v167h83v-167z" />
    <glyph glyph-name="uni30C6" unicode="&#x30c6;" 
d="M250 -117v84h167v-84h-167zM83 383v84h834v-84h-334v-333h-83v-83h-83v83h83v333h-417zM167 633v84h666v-84h-666z" />
    <glyph glyph-name="uni30C7" unicode="&#x30c7;" 
d="M167 -117v84h166v-84h-166zM0 383v84h833v-84h-333v-333h-83v-83h-84v83h84v333h-417zM83 633v84h500v-84h-500zM750 800v83h83v-83h84v-83h-84v83h-83zM667 717h83v-84h-83v84zM667 717h-84v83h84v-83z" />
    <glyph glyph-name="uni30C8" unicode="&#x30c8;" 
d="M333 383v-500h-83v917h83v-333h167v-84h167v-83h166v-83h-166v83h-167v83h-167z" />
    <glyph glyph-name="uni30C9" unicode="&#x30c9;" 
d="M500 633v84h83v-84h84v-83h-84v83h-83zM667 717v83h83v-83h83v-84h-83v84h-83zM250 383v-500h-83v917h83v-333h167v-84h166v-83h167v-83h-167v83h-166v83h-167z" />
    <glyph glyph-name="uni30CA" unicode="&#x30ca;" 
d="M167 -117v84h166v-84h-166zM83 467v83h417v250h83v-250h334v-83h-334v-250h-83v-167h-83v-83h-84v83h84v167h83v250h-417z" />
    <glyph glyph-name="uni30CB" unicode="&#x30cb;" 
d="M83 -33v83h834v-83h-834zM167 550v83h666v-83h-666z" />
    <glyph glyph-name="uni30CC" unicode="&#x30cc;" 
d="M83 -117v84h250v-84h-250zM333 383v84h84v-84h83v-83h167v-167h83v-83h83v-83h-83v83h-83v83h-84v-83h-83v-83h-167v83h167v83h83v84h-83v83h-83v83h-84zM167 633v84h666v-250h-83v-167h-83v167h83v166h-583z" />
    <glyph glyph-name="uni30CD" unicode="&#x30cd;" 
d="M0 50v83h250v-83h-250zM83 550v83h334v167h83v-167h250v-166h-83v-84h-84v-166h167v-84h167v-83h-167v83h-167v84h-83v-334h-83v250h-167v84h167v83h83v83h83v84h84v83h-584z" />
    <glyph glyph-name="uni30CE" unicode="&#x30ce;" 
d="M167 -117v84h166v-84h-166zM500 -33h-167v83h167v-83zM500 50v83h83v-83h-83zM583 133v167h84v-167h-84zM667 300v417h83v-417h-83z" />
    <glyph glyph-name="uni30CF" unicode="&#x30cf;" 
d="M917 217v-334h-84v334h84zM167 133v-250h-84v250h84zM167 133v250h83v-250h-83zM833 217h-83v250h83v-250zM250 383v334h83v-334h-83zM750 467h-83v166h83v-166z" />
    <glyph glyph-name="uni30D0" unicode="&#x30d0;" 
d="M583 633v84h84v-84h83v-83h-83v83h-84zM750 717v83h83v-83h84v-84h-84v84h-83zM917 50v-167h-84v167h84zM167 50v-167h-84v167h84zM833 50h-83v167h83v-167zM167 50v250h83v-250h-83zM750 217h-83v166h83v-166zM250 300v333h83v-333h-83z" />
    <glyph glyph-name="uni30D1" unicode="&#x30d1;" 
d="M917 50v-167h-84v167h84zM167 50v-167h-84v167h84zM833 50h-83v167h83v-167zM167 50v250h83v-250h-83zM750 217h-83v166h83v-166zM250 300v333h83v-333h-83zM833 467h-166v83h166v-83zM833 550v167h84v-167h-84zM667 550h-84v167h84v-167zM833 717h-166v83h166v-83z" />
    <glyph glyph-name="uni30D2" unicode="&#x30d2;" 
d="M833 -117h-583v84h583v-84zM250 -33h-83v833h83v-333h333v-84h-333v-416zM833 467h-250v83h250v-83z" />
    <glyph glyph-name="uni30D3" unicode="&#x30d3;" 
d="M583 633v84h84v-84h83v-83h-83v83h-84zM750 717v83h83v-83h84v-84h-84v84h-83zM833 -117h-583v84h583v-84zM250 -33h-83v750h83v-334h333v-83h-333v-333zM833 383h-250v84h250v-84z" />
    <glyph glyph-name="uni30D4" unicode="&#x30d4;" 
d="M750 -117h-583v84h583v-84zM167 -33h-84v750h84v-334h250v-83h-250v-333zM583 383h-166v84h166v-84zM833 467h-166v83h166v-83zM833 550v167h84v-167h-84zM667 550h-84v167h84v-167zM833 717h-166v83h166v-83z" />
    <glyph glyph-name="uni30D5" unicode="&#x30d5;" 
d="M167 -117v84h250v-84h-250zM83 633v84h750v-417h-83v-167h-83v-83h-84v-83h-166v83h166v83h84v167h83v333h-667z" />
    <glyph glyph-name="uni30D6" unicode="&#x30d6;" 
d="M167 -117v84h166v-84h-166zM0 550v83h583v84h84v-84h83v-333h-83v-167h-84v-83h-83v-83h-167v83h167v83h83v167h84v250h-667zM500 717v83h83v-83h-83zM750 800v83h83v-83h84v-83h-84v83h-83z" />
    <glyph glyph-name="uni30D7" unicode="&#x30d7;" 
d="M167 -117v84h166v-84h-166zM0 633v84h583v83h84v-167h166v-83h-83v-250h-83v-167h-84v-83h-83v-83h-167v83h167v83h83v167h84v333h-667zM833 633v167h84v-167h-84zM833 800h-166v83h166v-83z" />
    <glyph glyph-name="uni30D8" unicode="&#x30d8;" 
d="M0 217v83h83v-83h-83zM833 133h84v-83h-84v83zM833 133h-83v84h83v-84zM750 217h-83v83h83v-83zM667 300h-84v83h84v-83zM83 300v83h84v-83h-84zM583 383h-83v84h83v-84zM167 383v84h83v-84h-83zM500 467h-250v83h250v-83z" />
    <glyph glyph-name="uni30D9" unicode="&#x30d9;" 
d="M0 133v84h83v-84h-83zM583 633v84h84v-84h83v-83h-83v83h-84zM750 717v83h83v-83h84v-84h-84v84h-83zM833 50h84v-83h-84v83zM833 50h-83v83h83v-83zM750 133h-83v84h83v-84zM667 217h-84v83h84v-83zM83 217v83h84v-83h-84zM583 300h-83v83h83v-83zM167 300v83h83v-83
h-83zM500 383h-250v84h250v-84z" />
    <glyph glyph-name="uni30DA" unicode="&#x30da;" 
d="M0 133v84h83v-84h-83zM833 50h84v-83h-84v83zM833 50h-83v83h83v-83zM750 133h-83v84h83v-84zM667 217h-84v83h84v-83zM83 217v83h84v-83h-84zM583 300h-83v83h83v-83zM167 300v83h83v-83h-83zM500 383h-250v84h250v-84zM833 467h-166v83h166v-83zM833 550v167h84v-167
h-84zM667 550h-84v167h84v-167zM833 717h-166v83h166v-83z" />
    <glyph glyph-name="uni30DB" unicode="&#x30db;" 
d="M333 -117v84h84v500h-417v83h417v250h83v-250h417v-83h-417v-584h-167zM0 50v83h83v-83h-83zM667 217v83h83v-83h83v-84h84v-83h-84v83h-83v84h-83zM83 133v84h84v-84h-84zM167 217v83h83v-83h-83z" />
    <glyph glyph-name="uni30DC" unicode="&#x30dc;" 
d="M333 -117v84h84v500h-417v83h417v250h83v-250h417v-83h-417v-584h-167zM0 50v83h83v-83h-83zM667 217v83h83v-83h83v-84h84v-83h-84v83h-83v84h-83zM583 717v83h84v-83h83v-84h-83v84h-84zM750 800v83h83v-83h84v-83h-84v83h-83zM83 133v84h84v-84h-84zM167 217v83h83
v-83h-83z" />
    <glyph glyph-name="uni30DD" unicode="&#x30dd;" 
d="M333 -117v84h84v500h-417v83h417v250h83v-250h83v167h84v-167h166v-83h-333v-584h-167zM0 50v83h83v-83h-83zM667 217v83h83v-83h83v-84h84v-83h-84v83h-83v84h-83zM83 133v84h84v-84h-84zM167 217v83h83v-83h-83zM833 550v167h84v-167h-84zM833 717h-166v83h166v-83z
" />
    <glyph glyph-name="uni30DE" unicode="&#x30de;" 
d="M250 217v83h83v-83h84v-84h83v-83h83v-83h84v-84h-84v84h-83v83h-83v83h-84v84h-83zM83 550v83h834v-166h-84v-84h-83v-83h-83v-83h-84v-84h-83v84h83v83h84v83h83v84h83v83h-750z" />
    <glyph glyph-name="uni30DF" unicode="&#x30df;" 
d="M167 -33v83h333v-83h250v-84h-250v84h-333zM250 300v83h250v-83h167v-83h-167v83h-250zM250 633v84h250v-84h250v-83h-250v83h-250z" />
    <glyph glyph-name="uni30E0" unicode="&#x30e0;" 
d="M0 -33v83h167v167h83v-167h167v-83h-417zM833 133v-250h-83v250h83zM667 50h-250v83h250v-83zM750 133h-83v250h83v-250zM250 217v250h83v-250h-83zM333 467v333h84v-333h-84z" />
    <glyph glyph-name="uni30E1" unicode="&#x30e1;" 
d="M83 -117v84h167v-84h-167zM167 383v84h166v-84h250v-83h167v-83h167v-84h-167v84h-167v-84h-83v-83h-83v-83h-167v83h167v83h83v167h-167v83h-166zM583 383v417h84v-417h-84z" />
    <glyph glyph-name="uni30E2" unicode="&#x30e2;" 
d="M0 300v83h333v250h-250v84h667v-84h-333v-250h500v-83h-500v-333h333v-84h-333v84h-84v333h-333z" />
    <glyph glyph-name="uni30E3" unicode="&#x30e3;" 
d="M167 217v83h166v250h84v-250h83v-83h-83v-84h83v-250h-83v250h-84v84h-166zM667 217v-167h-84v167h84zM667 217v83h-167v83h250v-166h-83z" />
    <glyph glyph-name="uni30E4" unicode="&#x30e4;" 
d="M0 383v84h250v-84h-250zM500 133v-250h-83v250h83zM417 133h-84v334h-83v333h83v-250h250v-83h-166v-334zM750 383v-166h-83v166h83zM750 383v167h-167v83h250v-250h-83z" />
    <glyph glyph-name="uni30E5" unicode="&#x30e5;" 
d="M83 -33v83h417v333h-333v84h416v-417h167v-83h-667z" />
    <glyph glyph-name="uni30E6" unicode="&#x30e6;" 
d="M0 -33v83h583v500h-416v83h500v-583h250v-83h-917z" />
    <glyph glyph-name="uni30E7" unicode="&#x30e7;" 
d="M250 -117v84h417v166h-417v84h417v166h-417v84h500v-584h-500z" />
    <glyph glyph-name="uni30E8" unicode="&#x30e8;" 
d="M167 -33v83h583v250h-583v83h583v250h-583v84h666v-834h-83v84h-583z" />
    <glyph glyph-name="uni30E9" unicode="&#x30e9;" 
d="M250 -117v84h167v-84h-167zM83 383v84h750v-250h-83v-84h-83v-83h-84v-83h-166v83h166v83h84v84h83v166h-667zM167 633v84h583v-84h-583z" />
    <glyph glyph-name="uni30EA" unicode="&#x30ea;" 
d="M333 -117v84h167v-84h-167zM500 -33v83h83v-83h-83zM583 50v167h84v-167h-84zM667 217v583h83v-583h-83zM250 800v-500h-83v500h83z" />
    <glyph glyph-name="uni30EB" unicode="&#x30eb;" 
d="M667 -117h-167v917h83v-833h84v-84zM667 -33v83h83v-83h-83zM167 50v-167h-84v167h84zM750 50v167h83v-167h-83zM167 50v167h83v-167h-83zM833 217v166h84v-166h-84zM250 217v500h83v-500h-83z" />
    <glyph glyph-name="uni30EC" unicode="&#x30ec;" 
d="M417 -117h-250v834h83v-750h167v-84zM583 -33h-166v83h166v-83zM583 50v83h84v-83h-84zM667 133v84h83v-84h-83zM750 217v83h83v-83h-83z" />
    <glyph glyph-name="uni30ED" unicode="&#x30ed;" 
d="M833 633v-750h-83v84h-583v-84h-84v750h750zM167 50h583v500h-583v-500z" />
    <glyph glyph-name="uni30EE" unicode="&#x30ee;" 
d="M333 -117v84h250v-84h-250zM583 -33v83h84v-83h-84zM667 50v333h-417v-166h-83v250h583v-417h-83z" />
    <glyph glyph-name="uni30EF" unicode="&#x30ef;" 
d="M250 -117v84h167v-84h-167zM583 -33h-166v83h166v-83zM583 50v83h84v-83h-84zM667 133v167h83v-167h-83zM750 300v333h-583v-250h-84v334h750v-417h-83z" />
    <glyph glyph-name="uni30F0" unicode="&#x30f0;" 
d="M83 133v84h167v250h-83v83h416v250h84v-250h166v-83h-166v-250h250v-84h-250v-250h-84v250h-500zM333 217h250v250h-250v-250z" />
    <glyph glyph-name="uni30F1" unicode="&#x30f1;" 
d="M83 -33v83h334v333h166v-83h-83v-250h417v-83h-834zM167 550v83h666v-83h-83v-83h-83v-84h-84v84h84v83h-500z" />
    <glyph glyph-name="uni30F2" unicode="&#x30f2;" 
d="M250 -117v84h167v-84h-167zM167 383v84h583v166h-583v84h666v-417h-83v-167h-83v-83h-84v-83h-166v83h166v83h84v167h83v83h-583z" />
    <glyph glyph-name="uni30F3" unicode="&#x30f3;" 
d="M167 -117v84h250v-84h-250zM167 633v84h166v-84h167v-83h-167v83h-166zM583 -33h-166v83h166v-83zM583 50v83h84v-83h-84zM667 133v84h83v-84h-83zM750 217v166h83v-166h-83zM833 383v167h84v-167h-84z" />
    <glyph glyph-name="uni30F4" unicode="&#x30f4;" 
d="M250 -117v84h167v-84h-167zM583 717v83h84v-83h83v-84h83v-333h-83v-167h-83v-83h-84v-83h-166v83h166v83h84v167h83v250h-583v-250h-84v333h334v167h83v-167h167v84h-84zM750 800v83h83v-83h84v-83h-84v83h-83z" />
    <glyph glyph-name="uni30F5" unicode="&#x30f5;" 
d="M500 -117v84h167v-84h-167zM167 300v83h166v167h84v-167h333v-416h-83v333h-250v-250h-84v-167h-83v167h83v250h-166z" />
    <glyph glyph-name="uni30F6" unicode="&#x30f6;" 
d="M250 -117v84h167v-84h-167zM417 -33v83h83v-83h-83zM500 50v250h-250v-167h-83v167h83v250h83v-167h417v-83h-167v-250h-83z" />
    <glyph glyph-name="uni30FB" unicode="&#x30fb;" 
d="M500 217h-167v166h167v-166z" />
    <glyph glyph-name="uni30FC" unicode="&#x30fc;" 
d="M83 383v84h84v-84h666v-83h-666v83h-84z" />
    <glyph glyph-name="uni30FD" unicode="&#x30fd;" 
d="M250 550v83h83v-83h84v-83h83v-167h83v-167h-83v167h-83v167h-84v83h-83z" />
    <glyph glyph-name="uni30FE" unicode="&#x30fe;" 
d="M167 550v83h83v-83h83v-83h84v-167h83v-167h-83v167h-84v167h-83v83h-83zM500 633v84h83v-84h84v-83h-84v83h-83zM667 717v83h83v-83h83v-84h-83v84h-83z" />
    <glyph glyph-name="uni30FF" unicode="&#x30ff;" 
d="M667 -117v84h83v-84h83v-83h-83v83h-83zM833 -33v83h84v-83h83v-84h-83v84h-84z" />
    <glyph glyph-name="uni3231" unicode="&#x3231;" 
d="M417 50v83h83v-83h-83zM750 -33v-84h-83v84h83zM750 -33v166h83v167h-166v-83h83v-84h-83v-166h-84v166h-83v84h83v83h-166v-83h-84v-250h-83v-84h-83v84h83v333h-83v-83h-84v-167h84v-83h-84v83h-83v583h83v-83h167v167h83v-167h84v167h83v-167h83v167h84v-167h166v83
h84v-583h-84v-83h-83zM667 383h166v84h-166v-84zM417 300v167h-84v-167h84zM167 300v83h83v84h-167v-167h84zM583 383v84h-83v-84h83zM833 633h-83v84h83v-84zM83 633v84h84v-84h-84zM750 717h-83v83h83v-83zM250 717h-83v83h83v-83z" />
    <glyph glyph-name="uni3232" unicode="&#x3232;" 
d="M167 217v83h83v-83h-83zM667 717v83h83v-83h83v-84h84v-583h-84v-83h-83v-84h-83v84h83v83h83v583h-83v-83h-333v-83h250v-500h-84v83h-166v-83h-84v333h-83v83h83v167h-166v83h166v84h84v-84h333v84h-83zM167 -33h83v-84h-83v84zM167 -33h-84v83h84v-83zM417 133h166v84
h-166v-84zM83 50h-83v583h83v-583zM417 300h166v83h-166v-83zM167 633h-84v84h84v-84zM167 717v83h83v-83h-83z" />
    <glyph glyph-name="uni3239" unicode="&#x3239;" 
d="M667 550v83h83v-83h-83zM667 717v83h83v-83h83v-84h84v-583h-84v-83h-83v-84h-83v84h83v83h83v583h-83v84h-83zM667 -33h-84v83h84v-83zM250 -33v-84h-83v84h83zM250 -33v333h-83v-83h-84v-167h84v-83h-84v83h-83v583h83v-333h84v83h83v167h83v-83h167v250h83v-250h167
v-84h-167v-333h-83v333h-167v-416h-83zM333 550v167h84v-167h-84zM83 633v84h84v-84h-84zM167 717v83h83v-83h-83z" />
    <glyph glyph-name="uni32A4" unicode="&#x32a4;" 
d="M583 -117h-250v84h250v-84zM750 -33h-167v83h167v-83zM333 -33h-166v83h166v-83zM750 50v83h-583v-83h-84v167h334v416h83v-166h167v-84h-167v-166h333v-167h-83zM833 217v250h84v-250h-84zM83 217h-83v250h83v-250zM833 467h-83v166h83v-166zM83 467v166h84v-166h-84z
M750 633h-167v84h167v-84zM333 633h-166v84h166v-84zM583 717h-250v83h250v-83z" />
    <glyph glyph-name="uni32A5" unicode="&#x32a5;" 
d="M583 -117h-250v84h250v-84zM750 -33h-167v83h167v-83zM333 -33h-166v83h166v-83zM750 50v167h83v-167h-83zM167 50h-84v167h84v-167zM500 217v-167h-83v167h-250v250h-84v-250h-83v250h83v166h84v-83h250v83h83v-83h250v83h83v-166h84v-250h-84v250h-83v-250h-250z
M500 300h167v167h-167v-167zM250 300h167v167h-167v-167zM750 633h-167v84h167v-84zM333 633h-166v84h166v-84zM583 717h-250v83h250v-83z" />
    <glyph glyph-name="uni32A6" unicode="&#x32a6;" 
d="M583 -117h-250v84h250v-84zM750 -33h-167v83h167v-83zM333 -33h-166v83h166v-83zM750 50v167h83v-167h-83zM167 50h-84v167h84v-167zM500 300v-250h-83v417h-334v-250h-83v250h83v166h84v-83h583v83h83v-166h84v-250h-84v250h-333v-84h83v-83h84v-83h-84v83h-83zM750 633
h-167v84h167v-84zM333 633h-166v84h166v-84zM583 717h-250v83h250v-83z" />
    <glyph glyph-name="uni32A7" unicode="&#x32a7;" 
d="M583 -117h-250v84h250v-84zM750 -33h-167v83h-250v-83h-166v83h166v83h167v167h-167v-83h-83v-84h-83v-83h-84v167h167v83h83v167h-250v-250h-83v250h83v166h84v-83h166v83h84v-83h333v83h83v-166h84v-250h-84v-167h-83v-83zM583 133h167v84h83v250h-416v-84h250v-83h-84
v-167zM750 633h-167v84h167v-84zM333 633h-166v84h166v-84zM583 717h-250v83h250v-83z" />
    <glyph glyph-name="uni32A8" unicode="&#x32a8;" 
d="M583 -117h-250v84h250v-84zM750 -33h-167v83h-250v-83h-166v83h166v250h-83v-83h-83v-167h-84v167h84v83h83v83h83v84h-250v-250h-83v250h83v166h84v-83h166v83h84v-83h333v83h83v-166h84v-250h-84v-167h-83v-83zM750 50v167h83v250h-416v-84h250v-333h83zM417 133h166
v167h-166v-167zM750 633h-167v84h167v-84zM333 633h-166v84h166v-84zM583 717h-250v83h250v-83z" />
    <glyph glyph-name="uni3303" unicode="&#x3303;" 
d="M0 -117v84h83v-84h-83zM83 300v83h84v-83h-84zM500 467v83h417v-83h-417zM333 550v83h84v-83h-84zM0 717v83h500v-167h-83v84h-417zM500 -117h-250v417h83v-333h167v-84zM500 -33v166h83v-166h-83zM83 -33v250h84v-250h-84zM167 383v250h83v-250h-83z" />
    <glyph glyph-name="uni330D" unicode="&#x330d;" 
d="M167 -117v84h166v-84h-166zM500 50v83h417v-83h-417zM250 383v84h83v166h-166v-166h-84v-84h-83v84h83v166h-83v84h83v83h84v-83h250v-334h-167zM333 -33v333h84v-333h-84zM167 300v-250h-84v250h84zM917 383h-417v334h417v-334zM583 467h250v166h-250v-166z" />
    <glyph glyph-name="uni3314" unicode="&#x3314;" 
d="M0 383v84h167v166h-167v84h167v83h83v-83h167v-84h-167v-166h250v-84h-167v-166h-83v166h-250zM917 -117h-417v417h417v-417zM583 -33h250v250h-250v-250z" />
    <glyph glyph-name="uni3318" unicode="&#x3318;" 
d="M0 -117v84h83v166h84v-166h250v83h83v-167h-500zM333 50v83h84v-83h-84zM583 300v83h250v-83h-250zM0 300v83h250v-250h-83v167h-167zM500 550v83h417v-250h-84v167h-333zM0 550v83h83v-83h-83zM583 717v83h250v-83h-250zM250 383v84h83v-84h-83zM333 467v166h-250v167
h84v-83h83v83h83v-83h84v-250h-84zM417 717v83h83v-83h-83z" />
    <glyph glyph-name="uni3322" unicode="&#x3322;" 
d="M83 -117v84h167v-84h-167zM0 50v83h250v84h-167v83h334v-83h-84v-84h167v-83h-167v-83h-83v83h-250zM500 383v84h250v-84h-250zM0 633v84h83v83h84v-83h250v-167h-84v83h-166v-166h250v-84h-250v84h-84v166h-83zM500 717v83h83v-83h84v-84h-84v84h-83zM750 467v83h83v-83
h-83zM833 550v167h84v-167h-84z" />
    <glyph glyph-name="uni3323" unicode="&#x3323;" 
d="M500 383v84h250v-84h-250zM0 633v84h83v83h84v-83h250v-167h-84v83h-166v-166h250v-84h-250v84h-84v166h-83zM500 717v83h83v-83h84v-84h-84v84h-83zM167 50v-167h-84v417h84v-167h250v-83h-250zM750 467v83h83v-83h-83zM833 550v167h84v-167h-84z" />
    <glyph glyph-name="uni3326" unicode="&#x3326;" 
d="M417 -117v84h83v-84h-83zM833 -117h-166v500h83v-416h83v-84zM833 -33v166h84v-166h-84zM500 -33v416h83v-416h-83zM167 467v-250h-84v583h84v-250h250v-83h-250zM500 800v-167h-83v167h83zM333 800v-167h-83v167h83z" />
    <glyph glyph-name="uni3327" unicode="&#x3327;" 
d="M417 -117v84h333v-84h-333zM417 217v83h166v-83h84v-84h-84v84h-166zM750 -33v83h83v-83h-83zM833 50v250h84v-250h-84zM167 467v-250h-84v583h84v-250h250v-83h-250z" />
    <glyph glyph-name="uni332B" unicode="&#x332b;" 
d="M417 -117v84h166v-84h-166zM0 133v84h83v83h84v-83h166v-167h-83v83h-83v-166h166v-84h-250v250h-83zM0 383v84h83v-84h-83zM417 633v84h83v-84h83v-83h334v-83h-334v83h-83v83h-83zM833 50v-167h-83v417h83v-167h84v-83h-84zM583 -33v333h84v-333h-84zM417 217h83v-84
h-83v84zM417 217h-84v83h84v-83zM417 550v-167h-84v167h84zM83 467v333h84v-333h-84zM333 550h-83v250h83v-250zM583 633v84h84v-84h-84zM583 717h-83v83h83v-83z" />
    <glyph glyph-name="uni3336" unicode="&#x3336;" 
d="M0 -117v84h167v-84h-167zM0 133v84h83v-84h84v-83h83v-83h-83v83h-84v83h-83zM583 300v83h167v-83h83v-333h84v-84h-167v417h-167zM500 550v83h83v167h84v-83h250v-250h-84v-84h-83v84h83v166h-166v-83h-167zM667 217v-334h-84v84h-250v83h250v167h84zM333 50h-83v167
h-167v166h84v-83h166v-250zM417 467h83v-84h-83v84zM417 467h-84v83h84v-83zM333 550h-83v83h83v-83zM83 633v-166h-83v166h83zM250 633h-167v84h167v-84z" />
    <glyph glyph-name="uni333B" unicode="&#x333b;" 
d="M0 -117v84h250v-84h-250zM0 50v83h167v-83h-167zM0 217v83h167v-83h-167zM583 467v83h334v-83h-334zM250 -33v83h83v-83h-83zM333 50v167h84v-167h-84zM750 300v-167h-83v167h83zM583 300v-167h-83v167h83zM417 467h83v-84h-83v84zM417 467h-84v83h84v-83zM417 550v83h83
v-83h-83zM333 550h-83v83h83v-83zM83 633v-166h-83v166h83zM500 633v84h83v-84h-83zM417 633h-84v84h84v-84zM250 633h-167v84h167v-84zM500 717h-83v83h83v-83z" />
    <glyph glyph-name="uni3349" unicode="&#x3349;" 
d="M583 -117v84h167v-84h-167zM0 383v84h250v-84h167v-83h-167v83h-250zM0 550v83h250v-83h167v-83h-167v83h-250zM0 717v83h250v-83h167v-84h-167v84h-250zM750 -33v83h83v-83h-83zM833 50v333h84v-333h-84zM583 383v-333h-83v333h83z" />
    <glyph glyph-name="uni334A" unicode="&#x334a;" 
d="M167 50v83h83v-83h83v-167h-83v167h-83zM333 217v83h84v-83h-84zM167 217v83h83v-83h-83zM583 383v84h167v-84h-167zM0 383v84h333v-84h-333zM0 550v83h333v-83h-333zM0 717v83h333v-83h-333zM917 -117h-167v417h83v-333h84v-84zM667 300v-417h-84v167h-250v83h250v167
h84zM83 300v-417h-83v417h83zM750 467v333h83v-333h-83zM583 800v-250h-83v250h83z" />
    <glyph glyph-name="uni334D" unicode="&#x334d;" 
d="M417 -117v84h83v-84h-83zM0 383v84h250v-84h-250zM500 550v83h417v-83h-417zM83 633v84h84v-84h166v-83h84v-83h83v-84h-83v84h-167v83h-83v83h-84zM833 -117h-166v417h83v-333h83v-84zM833 -33v83h84v-83h-84zM500 -33v333h83v-333h-83zM167 50v-167h-84v417h84v-167
h250v-83h-250zM333 633v167h84v-167h-84z" />
    <glyph glyph-name="uni3351" unicode="&#x3351;" 
d="M583 383v84h250v-84h-250zM83 383v84h167v-84h-167zM833 -117h-166v417h83v-333h83v-84zM833 -33v83h84v-83h-84zM500 300v-417h-83v417h83zM83 50v-167h-83v417h83v-167h250v-83h-250zM833 467v250h84v-250h-84zM250 467v333h83v-333h-83zM750 717v-167h-83v167h83z
M583 717v-167h-83v167h83zM83 800v-250h-83v250h83z" />
    <glyph glyph-name="uni3357" unicode="&#x3357;" 
d="M583 383v84h250v-84h-250zM83 383v84h250v-84h-250zM167 50v-167h-84v417h84v-167h250v-83h-250zM833 467v250h84v-250h-84zM333 467v250h-250v-167h-83v250h417v-333h-84zM750 717v-167h-83v167h83zM583 717v-167h-83v167h83z" />
    <glyph glyph-name="uni337B" unicode="&#x337b;" 
d="M0 133v84h167v416h-167v84h417v-84h-167v-416h250v-167h83v167h-83v500h167v83h83v-83h83v83h84v-167h-167v-250h83v-333h84v-167h-84v167h-83v-167h-83v84h-167v83h-83v-167h-84v167h84v83h-167v-250h-83v250h-167zM750 50v333h-83v-333h83zM833 383v167h84v-167h-84z
M667 383v250h-84v-250h84zM417 550v-250h-84v250h84zM83 550v-250h-83v250h83z" />
    <glyph glyph-name="uni337C" unicode="&#x337c;" 
d="M83 717v83h250v-83h84v-167h83v167h-83v83h250v-83h-84v-167h84v83h250v-750h-250v250h-84v-250h-83v334h-83v-334h-250v84h-167v666h167v84h-84zM833 -33v583h-83v-583h83zM333 -33v250h-83v-250h83zM167 50v250h-84v-250h84zM667 217v250h-84v-250h84zM250 300h250v167
h-83v-84h-167v-83zM167 383v167h-84v-167h84zM333 467v250h-83v-250h83z" />
    <glyph glyph-name="uni337D" unicode="&#x337d;" 
d="M0 467v83h167v250h83v-250h167v-83h-167v-167h83v-250h84v-83h83v500h83v-500h84v666h-250v84h500v-84h-167v-250h167v-83h-167v-333h167v-84h-584v167h-83v250h-83v-250h-84v-167h-83v167h83v250h84v167h-167z" />
    <glyph glyph-name="uni337E" unicode="&#x337e;" 
d="M83 -117v84h84v-84h-84zM917 -117h-334v167h-83v-83h-83v-84h-84v334h-83v-250h-83v166h-167v584h167v83h250v-83h83v-84h83v-83h84v-167h166v167h84v-250h-417v83h83v167h-83v83h-83v-166h83v-84h-83v-333h83v83h83v84h334v-334zM667 -33h166v166h-166v-166zM167 217
v166h-84v-166h84zM333 300v167h-83v-167h83zM167 467v166h-84v-166h84zM667 550v250h83v-250h-83zM333 550v167h-83v-167h83z" />
    <glyph glyph-name="uni338E" unicode="&#x338e;" 
d="M500 -33v83h83v-83h250v-84h-250v84h-83zM500 133v84h83v-84h250v-83h84v-83h-84v83h-250v83h-83zM500 300v83h83v-83h167v-83h-167v83h-83zM417 383v-416h-84v416h84zM250 383v-416h-83v416h-84v-416h-83v500h333v-84h-83zM750 300v83h83v-83h-83zM750 383h-167v84h167
v-84zM917 467h-167v83h167v-83z" />
    <glyph glyph-name="uni338F" unicode="&#x338f;" 
d="M500 -33v83h83v-83h250v-84h-250v84h-83zM500 133v84h83v-84h250v-83h84v-83h-84v83h-250v83h-83zM500 300v83h83v-83h167v-83h-167v83h-83zM333 50h84v-83h-84v83zM333 50h-83v83h83v-83zM83 217v-250h-83v750h83v-417h84v-83h83v-84h-83v84h-84zM750 300v83h83v-83h-83
zM167 300v83h83v-83h-83zM750 383h-167v84h167v-84zM250 383v84h83v-84h-83zM917 467h-167v83h167v-83z" />
    <glyph glyph-name="uni339C" unicode="&#x339c;" 
d="M917 383v-416h-84v416h84zM750 383v-416h-83v416h-84v-416h-83v500h333v-84h-83zM417 383v-416h-84v416h84zM250 383v-416h-83v416h-84v-416h-83v500h333v-84h-83z" />
    <glyph glyph-name="uni339D" unicode="&#x339d;" 
d="M333 -33h-250v83h250v-83zM917 383v-416h-84v416h84zM750 383v-416h-83v416h-84v-416h-83v500h333v-84h-83zM333 50v83h84v-83h-84zM83 50h-83v333h83v-333zM333 383h84v-83h-84v83zM333 383h-250v84h250v-84z" />
    <glyph glyph-name="uni339E" unicode="&#x339e;" 
d="M917 383v-416h-84v416h84zM750 383v-416h-83v416h-84v-416h-83v500h333v-84h-83zM333 50h84v-83h-84v83zM333 50h-83v83h83v-83zM83 217v-250h-83v750h83v-417h84v-83h83v-84h-83v84h-84zM167 300v83h83v-83h-83zM250 383v84h83v-84h-83z" />
    <glyph glyph-name="uni33A1" unicode="&#x33a1;" 
d="M583 633v84h84v-84h-84zM583 383v-416h-83v416h83zM333 383v-416h-83v416h-167v-416h-83v500h500v-84h-167zM917 383h-334v84h84v83h83v-83h167v-84zM750 550v83h83v-83h-83zM833 633v84h84v-84h-84zM833 717h-166v83h166v-83z" />
    <glyph glyph-name="uni33C4" unicode="&#x33c4;" 
d="M833 -33h-250v83h250v-83zM333 -33h-250v83h250v-83zM833 50v83h84v-83h-84zM583 50h-83v333h83v-333zM333 50v83h84v-83h-84zM83 50h-83v333h83v-333zM833 383h84v-83h-84v83zM833 383h-250v84h250v-84zM333 383h84v-83h-84v83zM333 383h-250v84h250v-84z" />
    <glyph glyph-name="uni33CD" unicode="&#x33cd;" 
d="M833 133v-166h-83v166h83zM583 300v-333h-83v750h83v-334h84v-83h83v-167h-83v167h-84zM417 133v-166h-84v166h84zM167 300v-333h-84v750h84v-334h83v-83h83v-167h-83v167h-83zM667 383v167h83v-167h-83zM250 383v167h83v-167h-83zM750 550v167h83v-167h-83zM333 550v167
h84v-167h-84z" />
    <glyph glyph-name="uni4E00" unicode="&#x4e00;" 
d="M0 300v83h833v84h84v-167h-917z" />
    <glyph glyph-name="uni4E01" unicode="&#x4e01;" 
d="M250 -117v84h250v750h-500v83h917v-83h-334v-834h-333z" />
    <glyph glyph-name="uni4E03" unicode="&#x4e03;" 
d="M0 383v84h250v416h83v-333h334v-83h-334v-500h417v166h83v-250h-500v84h-83v416h-250zM917 550h-250v83h250v-83z" />
    <glyph glyph-name="uni4E07" unicode="&#x4e07;" 
d="M417 -117v84h250v-84h-250zM0 717v83h917v-83h-500v-250h416v-417h-83v-83h-83v83h83v333h-333v-83h-84v-167h-83v-166h-83v166h83v167h83v417h-333z" />
    <glyph glyph-name="uni4E08" unicode="&#x4e08;" 
d="M0 -117v84h167v-84h-167zM250 300v83h83v-83h84v-83h83v-84h83v-83h167v-83h167v-84h-167v84h-167v83h-83v83h-83v-83h-84v-83h-166v83h166v83h84v84h-84v83h-83zM0 550v83h500v250h83v-250h334v-83h-334v-333h-83v333h-500z" />
    <glyph glyph-name="uni4E09" unicode="&#x4e09;" 
d="M0 -117v84h833v83h84v-167h-917zM167 300v83h583v-83h-583zM83 633v84h750v-84h-750z" />
    <glyph glyph-name="uni4E0A" unicode="&#x4e0a;" 
d="M0 -117v84h417v916h83v-333h333v-83h-333v-500h417v-84h-917z" />
    <glyph glyph-name="uni4E0B" unicode="&#x4e0b;" 
d="M0 717v83h917v-83h-417v-250h167v-84h166v-83h-166v83h-167v-500h-83v834h-417z" />
    <glyph glyph-name="uni4E0D" unicode="&#x4e0d;" 
d="M0 217v83h167v-83h-167zM583 383v84h84v-84h83v-83h83v-83h84v-84h-84v84h-83v83h-83v83h-84zM0 717v83h917v-83h-250v-84h-84v-83h-83v-667h-83v500h-84v-83h-166v83h166v84h84v83h83v83h83v84h-583z" />
    <glyph glyph-name="uni4E0E" unicode="&#x4e0e;" 
d="M333 -117v84h250v-84h-250zM0 217v83h667v83h-417v500h83v-166h500v-84h-500v-166h417v-167h167v-83h-167v-167h-83v-83h-84v83h84v167h-667z" />
    <glyph glyph-name="uni4E10" unicode="&#x4e10;" 
d="M500 -117v84h250v-84h-250zM0 717v83h917v-83h-417v-167h333v-83h-333v-167h417v-250h-84v-83h-83v83h83v167h-750v-167h-83v167h83v333h84v-250h250v417h-417z" />
    <glyph glyph-name="uni4E11" unicode="&#x4e11;" 
d="M0 -117v84h250v333h-250v83h333v334h-250v83h667v-417h167v-83h-250v-333h250v-84h-917zM333 -33h250v333h-250v-333zM417 383h250v334h-250v-334z" />
    <glyph glyph-name="uni4E14" unicode="&#x4e14;" 
d="M0 -117v84h167v833h583v-833h167v-84h-917zM250 -33h417v250h-417v-250zM250 300h417v167h-417v-167zM250 550h417v167h-417v-167z" />
    <glyph glyph-name="uni4E15" unicode="&#x4e15;" 
d="M0 -117v84h917v-84h-917zM0 217v83h167v-83h-167zM667 383v84h83v-84h83v-83h84v-83h-84v83h-83v83h-83zM0 717v83h917v-83h-250v-84h-84v-83h-83v-500h-83v333h-84v-83h-166v83h166v84h84v83h83v83h83v84h-583z" />
    <glyph glyph-name="uni4E16" unicode="&#x4e16;" 
d="M0 467v83h167v250h83v-250h167v333h83v-333h167v250h83v-250h167v-83h-167v-334h-333v334h-167v-500h583v-84h-666v584h-167zM500 217h167v250h-167v-250z" />
    <glyph glyph-name="uni4E17" unicode="&#x4e17;" 
d="M0 383v84h83v333h84v-333h250v333h83v-333h250v333h83v-333h84v-84h-84v-500h-750v500h-83zM500 -33h250v416h-250v-416zM167 -33h250v416h-250v-416z" />
    <glyph glyph-name="uni4E18" unicode="&#x4e18;" 
d="M0 -117v84h167v750h416v-84h-333v-166h583v-84h-166v-416h250v-84h-917zM250 -33h333v416h-333v-416zM750 717h-167v83h167v-83z" />
    <glyph glyph-name="uni4E19" unicode="&#x4e19;" 
d="M750 -117v84h83v500h-333v-167h83v-83h84v-84h83v-83h-83v83h-84v84h-83v83h-83v-83h-84v-84h-83v-83h-83v83h83v84h83v83h84v167h-334v-584h-83v667h417v167h-417v83h917v-83h-417v-167h417v-667h-167z" />
    <glyph glyph-name="uni4E1E" unicode="&#x4e1e;" 
d="M0 -117v84h917v-84h-917zM250 50v83h167v417h83v-500h-250zM0 133v84h83v-84h-83zM0 467v83h333v-167h-83v-83h-83v-83h-84v83h84v83h83v84h-250zM167 717v83h583v-83h-83v-84h-84v-83h84v-167h83v-83h83v-83h84v-84h-84v84h-83v83h-83v83h-84v167h-83v83h83v84h-416z
M750 383v84h83v-84h-83zM833 467v83h84v-83h-84z" />
    <glyph glyph-name="uni4E21" unicode="&#x4e21;" 
d="M750 -117v84h83v500h-333v-334h167v250h83v-333h-583v333h83v-250h167v334h-334v-584h-83v667h417v167h-417v83h917v-83h-417v-167h417v-667h-167z" />
    <glyph glyph-name="uni4E26" unicode="&#x4e26;" 
d="M83 -117v84h250v583h-250v83h500v84h84v-84h250v-83h-250v-583h250v-84h-834zM750 217v83h83v-83h-83zM83 300v83h84v-83h83v-83h-83v83h-84zM250 800v83h83v-83h84v-83h-84v83h-83zM417 -33h166v583h-166v-583zM833 300v83h84v-83h-84zM667 717v166h83v-166h-83z" />
    <glyph glyph-name="uni4E2A" unicode="&#x4e2a;" 
d="M0 467v83h83v-83h-83zM500 633v-750h-83v750h83zM833 550h84v-83h-84v83zM833 550h-83v83h83v-83zM83 550v83h84v-83h-84zM750 633h-83v84h83v-84zM167 633v84h83v-84h-83zM667 717h-84v83h84v-83zM250 717v83h83v-83h-83zM583 800h-250v83h250v-83z" />
    <glyph glyph-name="uni4E2D" unicode="&#x4e2d;" 
d="M500 217v-334h-83v334h-417v416h417v250h83v-250h417v-416h-417zM500 300h333v250h-333v-250zM83 300h334v250h-334v-250z" />
    <glyph glyph-name="uni4E31" unicode="&#x4e31;" 
d="M83 -117v84h167v-84h-167zM667 217v-334h-84v1000h84v-583h166v417h84v-584h-84v84h-166zM250 -33v83h83v-83h-83zM333 50v167h-250v-84h-83v584h83v-417h250v500h84v-750h-84z" />
    <glyph glyph-name="uni4E32" unicode="&#x4e32;" 
d="M500 50v-167h-83v167h-417v250h417v83h-334v334h334v166h83v-166h333v-334h-333v-83h417v-250h-417zM500 133h333v84h-333v-84zM83 133h334v84h-334v-84zM500 467h250v166h-250v-166zM167 467h250v166h-250v-166z" />
    <glyph glyph-name="uni4E36" unicode="&#x4e36;" 
d="M250 383v84h167v-84h166v-83h84v-83h-84v83h-166v83h-167z" />
    <glyph glyph-name="uni4E38" unicode="&#x4e38;" 
d="M0 -117v84h83v-84h-83zM83 300v83h84v-83h83v250h-250v83h250v250h83v-250h334v-666h166v166h84v-250h-334v667h-250v-417h84v-83h83v-83h-83v83h-84v83h-83v-83h-83v-83h-84v83h84v83h83v84h-83v83h-84z" />
    <glyph glyph-name="uni4E39" unicode="&#x4e39;" 
d="M583 -117v84h167v333h-500v-250h-83v-167h-84v167h84v250h-167v83h167v417h666v-417h84v-83h-84v-417h-250zM417 550v83h83v-83h83v-83h-83v83h-83zM250 383h500v334h-500v-334z" />
    <glyph glyph-name="uni4E3B" unicode="&#x4e3b;" 
d="M0 -117v84h417v250h-334v83h334v250h-417v83h917v-83h-417v-250h333v-83h-333v-250h417v-84h-917zM333 800v83h84v-83h83v-83h-83v83h-84z" />
    <glyph glyph-name="uni4E3C" unicode="&#x4e3c;" 
d="M0 133v84h250v333h-250v83h250v250h83v-250h250v250h84v-250h250v-83h-250v-333h250v-84h-250v-250h-84v250h-333v-83h-83v-167h-84v167h84v83h-167zM333 217h250v333h-250v-83h84v-84h83v-83h-83v83h-84v-166z" />
    <glyph glyph-name="uni4E3F" unicode="&#x4e3f;" 
d="M83 -117v84h167v-84h-167zM417 -33h-167v83h167v-83zM417 50v167h83v-167h-83zM500 217v583h83v-583h-83z" />
    <glyph glyph-name="uni4E42" unicode="&#x4e42;" 
d="M0 -117v84h167v-84h-167zM917 -117h-167v84h167v-84zM750 -33h-167v83h167v-83zM333 -33h-166v83h166v-83zM583 50h-83v83h83v-83zM333 50v83h84v-83h-84zM500 133h-83v84h83v-84zM500 217v166h83v-166h-83zM417 217h-84v166h84v-166zM583 383v167h84v-167h-84zM333 383
h-83v167h83v-167zM667 550v250h83v-250h-83zM250 550h-83v167h83v-167z" />
    <glyph glyph-name="uni4E43" unicode="&#x4e43;" 
d="M500 -117v84h250v-84h-250zM83 717v83h667v-333h167v-417h-84v-83h-83v83h83v333h-166v334h-250v-334h-84v-166h-83v-167h-83v-167h-84v167h84v167h83v166h83v334h-250z" />
    <glyph glyph-name="uni4E45" unicode="&#x4e45;" 
d="M0 -117v84h167v-84h-167zM833 -33h84v-84h-84v84zM833 -33h-83v83h83v-83zM333 -33h-166v83h166v-83zM750 50h-83v83h83v-83zM333 50v83h84v-83h-84zM667 133h-84v84h84v-84zM417 133v84h83v-84h-83zM583 217h-83v83h83v-83zM583 300v167h84v-167h-84zM667 467v166h-334
v-83h-83v-167h-83v167h83v333h83v-166h417v-250h-83z" />
    <glyph glyph-name="uni4E4B" unicode="&#x4e4b;" 
d="M83 550v83h334v250h83v-250h333v-166h-83v-84h-83v-83h-84v-83h-83v-84h-83v-83h166v-83h334v-84h-334v84h-166v83h-167v83h167v84h83v83h83v83h84v84h83v83h-667zM83 50v-167h-83v167h83zM83 50v83h84v-83h-84zM250 133h-83v167h83v-167z" />
    <glyph glyph-name="uni4E4D" unicode="&#x4e4d;" 
d="M500 133v-250h-83v750h-167v-83h-83v-167h-84v-166h-83v166h83v167h84v333h83v-166h667v-84h-417v-166h333v-84h-333v-166h417v-84h-417z" />
    <glyph glyph-name="uni4E4E" unicode="&#x4e4e;" 
d="M250 -117v84h167v250h-417v83h417v333h-334v84h417v-417h417v-83h-417v-334h-250zM667 383v84h83v-84h-83zM83 467v83h84v-83h83v-84h-83v84h-84zM750 467v83h83v-83h-83zM833 717h-333v83h333v-83z" />
    <glyph glyph-name="uni4E4F" unicode="&#x4e4f;" 
d="M0 -117v84h83v-84h-83zM0 383v84h417v166h-334v84h417v-250h333v-84h-83v-83h-83v-83h-84v-84h-83v-83h-83v-83h500v-84h-500v84h-167v83h167v83h83v84h83v83h84v83h-667zM83 -33v83h84v-83h-84zM250 50h-83v167h83v-167zM833 717h-333v83h333v-83z" />
    <glyph glyph-name="uni4E55" unicode="&#x4e55;" 
d="M750 -33v83h83v167h-250v-334h-83v334h-167v-250h-83v333h250v83h-333v-250h-84v-166h-83v166h83v667h834v-83h-334v-84h334v-83h-334v-83h334v-84h-334v-83h334v-333h-167zM167 467h333v83h-333v-83zM167 633h333v84h-333v-84z" />
    <glyph glyph-name="uni4E56" unicode="&#x4e56;" 
d="M0 -33v83h167v-83h-167zM0 300v83h250v84h83v-500h-83v83h-83v83h83v167h-250zM0 550v83h417v84h-334v83h750v-83h-333v-84h417v-83h-417v-667h-83v667h-417zM917 -33h-250v83h166v83h84v-166zM667 50h-84v417h84v-167h83v-83h-83v-167zM750 300v83h83v-83h-83zM833 383
v84h84v-84h-84z" />
    <glyph glyph-name="uni4E57" unicode="&#x4e57;" 
d="M0 -117v84h167v-84h-167zM83 133v84h84v166h-167v84h167v83h-84v83h334v84h-334v83h750v-83h-333v-84h333v-83h-83v-83h167v-84h-167v-166h83v-84h-166v-83h83v-83h167v-84h-167v84h-83v83h-84v83h-83v-250h-83v167h-84v-83h-166v83h166v83h-250zM500 217h167v166h-167
v-166zM250 217h167v166h-167v-166zM500 467h167v83h-167v-83zM250 467h167v83h-167v-83z" />
    <glyph glyph-name="uni4E58" unicode="&#x4e58;" 
d="M0 -117v84h167v-84h-167zM0 133v84h167v-84h-167zM0 383v84h250v83h-250v83h417v84h-334v83h750v-83h-333v-84h417v-83h-250v-167h83v-83h-83v-83h166v83h84v-167h-250v84h-84v333h-83v-417h83v-83h167v-83h167v-84h-167v84h-167v83h-83v-167h-83v167h-84v-83h-166v83
h166v83h84v417h-84v-417h-83v84h-83v83h83v83h-250zM917 383h-167v84h167v-84z" />
    <glyph glyph-name="uni4E59" unicode="&#x4e59;" 
d="M83 717v83h667v-167h-83v-83h-84v-83h-83v-84h-83v-83h-84v-83h-83v-84h-83v-166h583v-84h-583v84h-84v166h84v84h83v83h83v83h84v84h83v83h83v83h84v84h-584zM750 -33v250h83v-250h-83z" />
    <glyph glyph-name="uni4E5D" unicode="&#x4e5d;" 
d="M0 -117v84h167v-84h-167zM0 550v83h333v250h84v-250h250v-666h166v166h84v-250h-250v84h-84v583h-166v-333h-84v-167h-83v-83h-83v83h83v167h83v333h-333z" />
    <glyph glyph-name="uni4E5E" unicode="&#x4e5e;" 
d="M250 467v83h500v-167h-83v-83h-167v-83h-167v-84h-166v-166h666v-84h-666v84h-84v166h84v84h166v83h167v83h167v84h-417zM833 -33v250h84v-250h-84zM83 550v-167h-83v167h83zM83 550v333h84v-166h750v-84h-750v-83h-84z" />
    <glyph glyph-name="uni4E5F" unicode="&#x4e5f;" 
d="M667 217v83h83v333h-83v-83h-167v-500h-83v417h-167v-500h583v166h84v-250h-667v84h-83v416h-167v84h167v250h83v-167h167v333h83v-250h167v84h166v-500h-166z" />
    <glyph glyph-name="uni4E62" unicode="&#x4e62;" 
d="M917 -117h-334v84h250v250h84v-334zM583 -33h-83v916h83v-916zM417 -33h-417v583h83v-500h84v750h83v-750h83v500h84v-583z" />
    <glyph glyph-name="uni4E71" unicode="&#x4e71;" 
d="M0 383v84h167v166h-167v84h333v-84h-83v-166h250v-84h-250v-166h250v-334h-500v334h167v166h-167zM917 -117h-250v84h166v166h84v-250zM83 -33h334v166h-334v-166zM667 -33h-84v833h84v-833zM500 717h-167v83h167v-83z" />
    <glyph glyph-name="uni4E73" unicode="&#x4e73;" 
d="M167 -117v84h83v83h-250v83h250v84h83v-84h250v-83h-250v-167h-166zM83 300v83h334v-166h-84v83h-250zM0 550v83h83v-83h84v-83h-84v83h-83zM0 717v83h417v-83h-167v-84h83v-83h-83v83h-83v84h-167zM917 -117h-250v917h83v-833h83v166h84v-250zM500 633v-166h-83v166h83z
M500 633v167h83v-167h-83z" />
    <glyph glyph-name="uni4E7E" unicode="&#x4e7e;" 
d="M0 -33v83h167v83h-167v417h167v83h-167v84h167v83h83v-83h167v-84h-167v-83h250v-83h417v-84h-84v-83h-83v-83h-83v-84h-84v-83h-83v-83h333v166h84v-250h-500v84h-167v-84h-83v84h-167zM250 50h250v83h83v84h84v83h83v83h-250v84h-83v-334h-167v-83zM83 217h250v83h-250
v-83zM83 383h250v84h-250v-84zM500 550v333h83v-166h334v-84h-334v-83h-83z" />
    <glyph glyph-name="uni4E80" unicode="&#x4e80;" 
d="M0 550v83h83v84h84v-84h333v84h-333v83h500v-83h-84v-84h167v-166h83v-417h84v-167h-500v84h416v83h-416v-83h-84v83h-250v-83h-83v333h83v250h-83zM417 133h333v84h-333v-84zM83 133h250v84h-250v-84zM417 300h333v83h-333v-83zM167 300h166v83h-166v-83zM417 467h250
v83h-250v-83zM167 467h166v83h-166v-83z" />
    <glyph glyph-name="uni4E82" unicode="&#x4e82;" 
d="M167 -117v84h83v-84h-83zM917 -117h-250v917h83v-833h83v166h84v-250zM583 -117h-250v84h167v166h-83v-83h-84v-83h-83v83h83v83h-83v-83h-83v83h-84v-250h-83v500h333v84h-250v83h167v83h83v-83h167v-83h-83v-84h166v-500zM250 217h250v83h-250v-83zM167 217v83h-84v-83
h84zM500 550v83h83v-83h-83zM83 550h-83v250h583v-83h-83v-84h-83v84h-167v-84h-83v84h-84v-167z" />
    <glyph glyph-name="uni4E85" unicode="&#x4e85;" 
d="M167 -117v84h250v833h83v-917h-333z" />
    <glyph glyph-name="uni4E86" unicode="&#x4e86;" 
d="M250 -117v84h167v500h83v-584h-250zM0 717v83h833v-83h-83v-84h-83v-83h-84v-83h-83v83h83v83h84v84h-667z" />
    <glyph glyph-name="uni4E88" unicode="&#x4e88;" 
d="M250 -117v84h167v416h-417v84h417v83h83v-83h417v-84h-84v-83h-83v-83h-83v83h83v83h-250v-500h-250zM83 717v83h667v-83h-83v-84h-84v-83h-83v83h83v84h-500z" />
    <glyph glyph-name="uni4E89" unicode="&#x4e89;" 
d="M250 -117v84h167v166h-334v84h334v83h-417v83h417v84h-334v166h84v-83h333v83h83v-83h250v-167h84v-83h-84v-167h-333v-250h-250zM500 217h250v83h-250v-83zM500 383h250v84h-250v-84zM583 633v84h-333v-84h-83v84h83v83h500v-83h-83v-84h-84z" />
    <glyph glyph-name="uni4E8A" unicode="&#x4e8a;" 
d="M250 -117v84h167v83h-334v83h334v84h-417v83h417v83h-334v84h167v83h83v-83h84v166h-167v-83h-83v83h-167v84h417v166h83v-166h417v-84h-167v-83h-83v-83h166v-167h84v-83h-84v-167h-333v-167h-250zM500 133h250v84h-250v-84zM500 300h250v83h-250v-83zM583 467v83h84v83
h-167v-166h83z" />
    <glyph glyph-name="uni4E8B" unicode="&#x4e8b;" 
d="M250 -117v84h167v83h-334v83h334v84h-417v83h417v83h-334v84h84v166h-167v84h417v166h83v-166h417v-84h-167v-166h83v-167h84v-83h-84v-167h-333v-167h-250zM500 133h250v84h-250v-84zM500 300h250v83h-250v-83zM500 467h167v166h-167v-166zM250 467h167v166h-167v-166z
" />
    <glyph glyph-name="uni4E8C" unicode="&#x4e8c;" 
d="M0 -33v83h833v83h84v-166h-917zM83 550v83h750v-83h-750z" />
    <glyph glyph-name="uni4E8E" unicode="&#x4e8e;" 
d="M250 -117v84h167v333h-417v83h417v334h-334v83h750v-83h-333v-334h417v-83h-417v-417h-250z" />
    <glyph glyph-name="uni4E91" unicode="&#x4e91;" 
d="M0 383v84h917v-84h-584v-166h-83v-167h-83v-83h333v-84h-417v167h84v167h83v166h-250zM83 717v83h750v-83h-750zM833 50v-167h-83v167h83zM667 -33h-167v83h167v-83zM750 50h-83v250h83v-250z" />
    <glyph glyph-name="uni4E92" unicode="&#x4e92;" 
d="M0 -117v84h417v83h83v-83h417v-84h-917zM0 717v83h917v-83h-417v-84h-83v-83h333v-167h-83v-166h-84v-167h-83v83h-333v167h83v-83h333v166h84v84h-334v-167h-83v167h83v166h84v84h-417z" />
    <glyph glyph-name="uni4E94" unicode="&#x4e94;" 
d="M0 -117v84h250v250h83v-250h334v416h-250v-166h-84v166h-166v84h250v250h-334v83h750v-83h-333v-250h250v-500h167v-84h-917z" />
    <glyph glyph-name="uni4E95" unicode="&#x4e95;" 
d="M0 217v83h250v250h-250v83h250v250h83v-250h250v250h84v-250h250v-83h-250v-250h250v-83h-250v-334h-84v334h-333v-167h-83v-167h-84v167h84v167h-167zM333 300h250v250h-250v-250z" />
    <glyph glyph-name="uni4E98" unicode="&#x4e98;" 
d="M0 -117v84h917v-84h-917zM0 717v83h917v-83h-917zM750 133h-583v500h583v-500zM250 217h417v166h-417v-166zM250 467h417v83h-417v-83z" />
    <glyph glyph-name="uni4E99" unicode="&#x4e99;" 
d="M0 -117v84h500v166h83v-166h334v-84h-917zM0 717v83h917v-83h-500v-167h333v-250h-83v-167h-84v167h84v167h-167v-84h83v-83h-83v83h-83v84h-84v-167h84v-83h83v-84h-83v84h-84v83h-83v-167h-83v167h83v167h83v250h-333z" />
    <glyph glyph-name="uni4E9B" unicode="&#x4e9b;" 
d="M0 -117v84h917v-84h-917zM167 133v84h583v-84h-583zM917 300h-417v83h-250v-83h-250v417h83v-334h84v417h83v-83h167v-84h-167v-166h250v416h83v-166h167v-84h-167v-250h250v167h84v-250zM917 717h-167v83h167v-83z" />
    <glyph glyph-name="uni4E9C" unicode="&#x4e9c;" 
d="M0 -117v84h333v166h-250v417h250v167h-333v83h917v-83h-334v-167h250v-417h-250v-166h334v-84h-917zM500 -33v166h-83v-166h83zM583 217h167v250h-167v-250zM167 217h166v250h-166v-250zM500 217v250h-83v-250h83zM500 550v167h-83v-167h83z" />
    <glyph glyph-name="uni4E9E" unicode="&#x4e9e;" 
d="M0 -117v84h333v250h-250v333h250v167h-333v83h917v-83h-334v-167h250v-333h-250v-250h334v-84h-917zM500 -33v333h250v167h-250v250h-83v-250h-250v-167h250v-333h83z" />
    <glyph glyph-name="uni4E9F" unicode="&#x4e9f;" 
d="M0 -117v84h333v83h84v-83h500v-84h-917zM583 467v83h334v-250h-84v-167h84v-83h-84v83h-166v-83h-250v417h-84v-334h-333v334h250v166h83v-83h167v-417h167v84h83v83h83v167h-250zM0 717v83h917v-83h-500v-84h-84v84h-333zM83 217h167v166h-167v-166zM667 217h-84v166h84
v-166z" />
    <glyph glyph-name="uni4EA0" unicode="&#x4ea0;" 
d="M0 300v83h417v334h83v-334h417v-83h-917z" />
    <glyph glyph-name="uni4EA1" unicode="&#x4ea1;" 
d="M0 550v83h417v250h83v-250h417v-83h-667v-583h667v-84h-667v84h-83v583h-167z" />
    <glyph glyph-name="uni4EA2" unicode="&#x4ea2;" 
d="M0 -117v84h167v-84h-167zM0 633v84h417v166h83v-166h417v-84h-917zM917 -117h-250v84h166v166h84v-250zM667 -33h-84v416h-250v-333h-83v-83h-83v83h83v417h417v-500z" />
    <glyph glyph-name="uni4EA4" unicode="&#x4ea4;" 
d="M0 -117v84h167v-84h-167zM250 300v83h83v-83h84v-83h83v-84h83v-83h167v-83h167v-84h-167v84h-167v83h-83v83h-83v-83h-84v-83h-166v83h166v83h84v84h-84v83h-83zM83 383v84h84v-84h-84zM0 633v84h417v166h83v-166h417v-84h-250v-83h83v-83h83v-84h-83v84h-83v83h-84v83
h-250v-83h-83v-83h-83v83h83v83h-250zM500 217v83h83v-83h-83zM583 300v83h84v-83h-84z" />
    <glyph glyph-name="uni4EA5" unicode="&#x4ea5;" 
d="M0 -117v84h250v-84h-250zM83 217v83h250v-83h-250zM167 467v83h83v-83h83v-84h167v-83h-167v83h-83v84h-83zM0 633v84h417v166h83v-166h417v-84h-167v-83h-83v-83h-84v-84h-83v84h83v83h84v83h-334v-83h-83v83h-250zM917 -117h-167v84h167v-84zM750 -33h-167v83h167v-83z
M417 -33h-167v83h167v-83zM583 50h-166v83h166v-83zM583 133v84h84v-84h-84zM667 217v83h83v-83h-83zM750 300v83h83v-83h-83z" />
    <glyph glyph-name="uni4EA6" unicode="&#x4ea6;" 
d="M500 -117v84h83v583h-166v-417h-84v-166h-83v-84h-167v84h167v166h83v417h-333v83h417v250h83v-250h417v-83h-250v-667h-167zM917 217v-167h-84v167h84zM83 217v-167h-83v167h83zM833 217h-83v166h83v-166zM83 217v166h84v-166h-84z" />
    <glyph glyph-name="uni4EA8" unicode="&#x4ea8;" 
d="M250 -117v84h167v166h83v-250h-250zM0 217v83h917v-83h-334v-84h-83v84h-500zM0 633v84h417v166h83v-166h417v-84h-250v-250h-417v250h-250zM333 467h250v166h-250v-166z" />
    <glyph glyph-name="uni4EAB" unicode="&#x4eab;" 
d="M250 -117v84h167v166h-417v84h500v83h83v-83h334v-84h-417v-250h-250zM167 383v84h83v166h-250v84h417v166h83v-166h417v-84h-250v-166h83v-84h-83v-83h-84v83h-416zM333 467h250v166h-250v-166z" />
    <glyph glyph-name="uni4EAC" unicode="&#x4eac;" 
d="M250 -117v84h167v250h-250v333h583v-333h-250v-334h-250zM0 -33v83h83v-83h-83zM750 50v83h83v-83h84v-83h-84v83h-83zM0 633v84h417v166h83v-166h417v-84h-917zM83 50v83h84v-83h-84zM250 300h417v167h-417v-167z" />
    <glyph glyph-name="uni4EAD" unicode="&#x4ead;" 
d="M250 -117v84h167v166h-250v84h583v-84h-250v-250h-250zM0 633v84h417v166h83v-166h417v-84h-167v-166h-583v166h-167zM917 383v-250h-84v167h-750v-167h-83v250h917zM250 550h417v83h-417v-83z" />
    <glyph glyph-name="uni4EAE" unicode="&#x4eae;" 
d="M0 -117v84h167v-84h-167zM0 633v84h417v166h83v-166h417v-84h-167v-250h-583v250h-167zM917 -117h-417v334h-167v-167h-83v-83h-83v83h83v167h-167v-84h-83v167h917v-167h-84v84h-250v-250h250v83h84v-167zM250 467h417v166h-417v-166z" />
    <glyph glyph-name="uni4EB0" unicode="&#x4eb0;" 
d="M333 -117v84h84v166h-250v417h583v-417h-250v-250h-167zM0 -117v84h83v-84h-83zM750 -33v83h83v-83h84v-84h-84v84h-83zM0 633v84h417v166h83v-166h417v-84h-917zM83 -33v83h84v-83h-84zM250 217h417v83h-417v-83zM250 383h417v84h-417v-84z" />
    <glyph glyph-name="uni4EB3" unicode="&#x4eb3;" 
d="M83 -33v83h334v83h-250v84h333v-84h333v-83h84v-167h-500v84h-334zM0 633v84h417v166h83v-166h417v-84h-250v-166h-417v166h-250zM500 -33h333v83h-333v-83zM500 217v83h-417v-167h-83v250h917v-166h-84v83h-250v-83h-83zM333 550h250v83h-250v-83z" />
    <glyph glyph-name="uni4EB6" unicode="&#x4eb6;" 
d="M0 -117v84h167v333h-84v333h-83v84h417v166h83v-166h417v-84h-84v-333h-83v-333h167v-84h-917zM250 -33h417v166h-417v-166zM250 217h417v83h-417v-83zM167 383h583v250h-83v-166h-417v166h-83v-250zM333 550h250v83h-250v-83z" />
    <glyph glyph-name="uni4EBA" unicode="&#x4eba;" 
d="M0 -117v84h83v-84h-83zM833 -33h84v-84h-84v84zM833 -33h-83v83h83v-83zM83 -33v83h84v-83h-84zM750 50h-83v83h83v-83zM167 50v83h83v-83h-83zM667 133h-84v167h84v-167zM250 133v167h83v-167h-83zM583 300h-83v167h83v-167zM333 300v167h84v-167h-84zM500 467h-83v333
h83v-333z" />
    <glyph glyph-name="uni4EC0" unicode="&#x4ec0;" 
d="M0 383v84h83v166h84v-750h-84v500h-83zM333 467v83h334v333h83v-333h250v-83h-250v-584h-83v584h-334zM167 633v167h83v-167h-83z" />
    <glyph glyph-name="uni4EC1" unicode="&#x4ec1;" 
d="M333 -33v83h584v-83h-584zM0 383v84h83v166h84v-750h-84v500h-83zM333 633v84h584v-84h-584zM167 633v167h83v-167h-83z" />
    <glyph glyph-name="uni4EC2" unicode="&#x4ec2;" 
d="M583 -117v84h167v-84h-167zM0 383v84h83v166h84v-750h-84v500h-83zM333 550v83h167v250h83v-250h334v-583h-84v-83h-83v83h83v500h-250v-250h-83v-167h-83v-166h-84v166h84v167h83v250h-167zM167 633v167h83v-167h-83z" />
    <glyph glyph-name="uni4EC4" unicode="&#x4ec4;" 
d="M250 -117v84h167v-84h-167zM833 -33h84v-84h-84v84zM833 -33h-83v83h83v-83zM417 -33v83h83v-83h-83zM750 50h-83v167h83v-167zM500 50v167h83v-167h-83zM83 133v-166h-83v166h83zM83 133v667h834v-83h-750v-584h-84zM667 217h-84v416h84v-416z" />
    <glyph glyph-name="uni4EC6" unicode="&#x4ec6;" 
d="M0 300v83h83v-83h-83zM667 383v-500h-84v1000h84v-416h166v-84h167v-83h-167v83h-166zM250 633v-750h-83v500h-84v84h84v166h83zM250 633v167h83v-167h-83z" />
    <glyph glyph-name="uni4EC7" unicode="&#x4ec7;" 
d="M0 383v84h83v166h84v-666h166v-84h-250v500h-83zM917 50v-167h-84v167h84zM333 -33v83h84v-83h-84zM833 50h-83v500h-167v-333h-83v-167h-83v167h83v333h-250v83h250v250h83v-250h250v-583zM250 633h-83v167h83v-167z" />
    <glyph glyph-name="uni4ECA" unicode="&#x4eca;" 
d="M333 -117v84h250v-84h-250zM167 217v83h666v-250h-83v-83h-167v83h167v167h-583zM0 383v84h83v-84h-83zM750 467h-500v83h500v-83zM83 467v83h84v-83h-84zM833 550h84v-83h-84v83zM833 550h-83v83h83v-83zM250 550h-83v83h83v-83zM750 633h-83v84h83v-84zM250 633v84h83
v-84h-83zM667 717h-334v83h334v-83z" />
    <glyph glyph-name="uni4ECB" unicode="&#x4ecb;" 
d="M0 383v84h83v-84h-83zM667 550v-667h-84v667h84zM167 50v-167h-84v167h84zM167 50v167h83v-167h-83zM250 217v333h83v-333h-83zM833 467h84v-84h-84v84zM833 467h-83v83h83v-83zM83 467v83h84v-83h-84zM750 550h-83v83h83v-83zM250 550h-83v83h83v-83zM667 633h-84v84h84
v-84zM250 633v84h83v-84h-83zM583 717h-250v83h250v-83z" />
    <glyph glyph-name="uni4ECD" unicode="&#x4ecd;" 
d="M583 -117v84h167v-84h-167zM0 383v84h83v166h84v-750h-84v500h-83zM750 -33v83h83v-83h-83zM333 50v-167h-83v167h83zM833 50v333h-166v334h-167v-500h-83v-167h-84v167h84v500h-167v-84h-83v167h583v-333h167v-417h-84z" />
    <glyph glyph-name="uni4ECE" unicode="&#x4ece;" 
d="M917 50v-167h-84v167h84zM417 50v-167h-84v167h84zM83 133v-250h-83v250h83zM833 50h-83v167h83v-167zM417 50v167h83v-167h-83zM83 133v250h84v-250h-84zM750 217h-83v166h83v-166zM500 217v166h83v-166h-83zM333 383v-250h-83v250h83zM667 383h-84v417h84v-417z
M250 383h-83v417h83v-417z" />
    <glyph glyph-name="uni4ECF" unicode="&#x4ecf;" 
d="M0 383v84h83v166h84v-750h-84v500h-83zM667 -117h-334v250h84v-166h250v-84zM917 50v-167h-84v167h84zM667 -33v83h83v-83h-83zM833 50h-83v250h83v-250zM417 133v250h83v-250h-83zM500 383v417h83v-417h-83zM167 633v167h83v-167h-83z" />
    <glyph glyph-name="uni4ED4" unicode="&#x4ed4;" 
d="M500 -117v84h167v333h-334v83h334v167h83v-167h167v-83h-167v-417h-250zM0 383v84h83v166h84v-750h-84v500h-83zM417 717v83h500v-167h-84v-83h-83v83h83v84h-416zM167 633v167h83v-167h-83z" />
    <glyph glyph-name="uni4ED5" unicode="&#x4ed5;" 
d="M333 -117v84h250v500h-250v83h250v333h84v-333h250v-83h-250v-500h250v-84h-584zM0 383v84h83v166h84v-750h-84v500h-83zM167 633v167h83v-167h-83z" />
    <glyph glyph-name="uni4ED6" unicode="&#x4ed6;" 
d="M667 217v83h83v333h-83v-83h-84v-500h-83v417h-83v-500h416v166h84v-250h-584v500h-83v84h83v250h84v-167h83v333h83v-250h84v84h166v-500h-166zM0 383v84h83v166h84v-750h-84v500h-83zM167 633v167h83v-167h-83z" />
    <glyph glyph-name="uni4ED7" unicode="&#x4ed7;" 
d="M333 -117v84h167v-84h-167zM417 300v83h83v-83h83v-83h84v333h-334v83h334v250h83v-250h167v-83h-167v-500h83v-83h84v-84h-84v84h-83v83h-83v-83h-167v83h167v83h-84v84h-83v83h-83zM0 383v84h83v166h84v-750h-84v500h-83zM167 633v167h83v-167h-83z" />
    <glyph glyph-name="uni4ED8" unicode="&#x4ed8;" 
d="M583 -117v84h167v583h-417v83h417v250h83v-250h84v-83h-84v-667h-250zM417 300v83h83v-83h83v-83h-83v83h-83zM0 383v84h83v166h84v-750h-84v500h-83zM167 633v167h83v-167h-83z" />
    <glyph glyph-name="uni4ED9" unicode="&#x4ed9;" 
d="M0 383v84h83v166h84v-750h-84v500h-83zM917 -117h-584v667h84v-583h166v916h84v-916h166v583h84v-667zM167 633v167h83v-167h-83z" />
    <glyph glyph-name="uni4EDD" unicode="&#x4edd;" 
d="M83 -117v84h334v333h-250v83h583v-83h-250v-333h333v-84h-750zM0 383v84h83v-84h-83zM833 467h84v-84h-84v84zM833 467h-83v83h83v-83zM83 467v83h84v-83h-84zM750 550h-83v83h83v-83zM167 550v83h83v-83h-83zM667 633h-84v84h84v-84zM250 633v84h83v-84h-83zM583 717
h-250v83h250v-83z" />
    <glyph glyph-name="uni4EDE" unicode="&#x4ede;" 
d="M583 -117v84h167v-84h-167zM0 383v84h83v166h84v-750h-84v500h-83zM333 467v83h84v-83h83v250h-167v83h584v-750h-84v-83h-83v83h83v667h-250v-417h84v-167h-84v167h-83v-167h-83v-166h-84v166h84v167h83v83h-83v84h-84zM167 633v167h83v-167h-83z" />
    <glyph glyph-name="uni4EDF" unicode="&#x4edf;" 
d="M250 300v83h333v250h-250v84h334v-334h250v-83h-250v-417h-84v417h-333zM0 383v84h83v166h84v-750h-84v500h-83zM167 633v167h83v-167h-83zM917 717h-250v83h250v-83z" />
    <glyph glyph-name="uni4EE3" unicode="&#x4ee3;" 
d="M0 383v84h83v166h84v-750h-84v500h-83zM250 467v83h250v333h83v-333h334v-83h-250v-250h83v-167h83v-167h-83v167h-83v167h-84v250h-333zM750 717v83h83v-83h84v-84h-84v84h-83zM167 633v167h83v-167h-83z" />
    <glyph glyph-name="uni4EE4" unicode="&#x4ee4;" 
d="M583 -33v83h167v-83h-167zM83 217v83h750v-250h-83v167h-250v-334h-83v334h-334zM0 383v84h83v-84h-83zM750 467h-667v83h84v83h83v-83h500v-83zM833 550h84v-83h-84v83zM833 550h-83v83h83v-83zM750 633h-83v84h83v-84zM250 633v84h83v-84h-83zM667 717h-334v83h334v-83
z" />
    <glyph glyph-name="uni4EE5" unicode="&#x4ee5;" 
d="M250 -117v84h167v-84h-167zM0 50v83h167v-83h-167zM917 50v-167h-84v167h84zM583 -33h-166v83h166v-83zM833 50h-83v83h83v-83zM583 50v83h84v-83h-84zM750 133h-83v167h83v-167zM417 133h-250v667h83v-583h167v-84zM750 300v500h83v-500h-83zM583 550v-167h-83v167h83z
M500 550h-83v167h83v-167z" />
    <glyph glyph-name="uni4EED" unicode="&#x4eed;" 
d="M583 -117v84h167v-84h-167zM0 383v84h83v166h84v-750h-84v500h-83zM333 550v83h84v-83h83v167h-167v83h584v-750h-84v-83h-83v83h83v83h-83v84h83v500h-250v-334h84v-83h83v-83h-83v83h-167v-167h-83v-166h-84v166h84v167h83v167h-83v83h-84zM167 633v167h83v-167h-83z
" />
    <glyph glyph-name="uni4EEE" unicode="&#x4eee;" 
d="M333 -117v84h167v-84h-167zM500 300v83h83v-83h84v-83h83v-167h83v-83h84v-84h-84v84h-83v83h-83v-83h-167v83h167v167h-84v83h-83zM0 383v84h83v166h84v-750h-84v500h-83zM333 217v-167h-83v167h83zM750 217v250h-333v-250h-84v583h584v-83h-500v-167h416v-333h-83z
M167 633v167h83v-167h-83z" />
    <glyph glyph-name="uni4EF0" unicode="&#x4ef0;" 
d="M750 -33v83h83v583h-166v-750h-84v167h-83v-83h-250v83h83v667h167v-84h-83v-583h83v83h83v500h84v84h250v-750h-167zM0 383v84h83v166h84v-750h-84v500h-83zM167 633v167h83v-167h-83zM667 717h-167v83h167v-83z" />
    <glyph glyph-name="uni4EF2" unicode="&#x4ef2;" 
d="M0 383v84h83v166h84v-750h-84v500h-83zM667 217v-334h-84v334h-333v416h333v250h84v-250h250v-416h-250zM667 300h166v250h-166v-250zM333 300h250v250h-250v-250zM250 633h-83v167h83v-167z" />
    <glyph glyph-name="uni4EF6" unicode="&#x4ef6;" 
d="M250 217v83h417v250h-250v-167h-84v167h84v250h83v-167h167v250h83v-250h167v-83h-167v-250h167v-83h-167v-334h-83v334h-417zM0 383v84h83v166h84v-750h-84v500h-83zM167 633v167h83v-167h-83z" />
    <glyph glyph-name="uni4EF7" unicode="&#x4ef7;" 
d="M0 383v84h83v166h84v-750h-84v500h-83zM250 467v83h83v-83h-83zM833 467v-584h-83v584h83zM417 50v-167h-84v167h84zM417 50v417h83v-417h-83zM333 550v83h84v-83h-84zM833 633h84v-83h-84v83zM833 633h-83v84h83v-84zM417 633v84h83v-84h-83zM167 633v167h83v-167h-83z
M750 717h-250v83h250v-83z" />
    <glyph glyph-name="uni4EFB" unicode="&#x4efb;" 
d="M333 -117v84h250v333h-333v83h333v250h-250v84h334v-334h250v-83h-250v-333h250v-84h-584zM0 383v84h83v166h84v-750h-84v500h-83zM167 633v167h83v-167h-83zM833 717h-166v83h166v-83z" />
    <glyph glyph-name="uni4F01" unicode="&#x4f01;" 
d="M0 -117v84h167v333h83v-333h167v583h83v-250h250v-83h-250v-250h417v-84h-917zM0 383v84h83v-84h-83zM833 467h84v-84h-84v84zM833 467h-83v83h83v-83zM83 467v83h84v-83h-84zM750 550h-83v83h83v-83zM167 550v83h83v-83h-83zM667 633h-84v84h84v-84zM250 633v84h83v-84
h-83zM583 717h-250v83h250v-83z" />
    <glyph glyph-name="uni4F09" unicode="&#x4f09;" 
d="M0 383v84h83v166h84v-750h-84v500h-83zM333 633v84h250v166h84v-166h250v-84h-584zM917 -117h-167v500h-250v-333h-83v-167h-84v167h84v417h416v-500h84v-84zM167 633v167h83v-167h-83z" />
    <glyph glyph-name="uni4F0A" unicode="&#x4f0a;" 
d="M333 -117v84h167v-84h-167zM333 217v83h250v167h-333v83h333v167h-250v83h584v-583h-250v-167h-84v-83h-83v83h83v167h-250zM0 383v84h83v166h84v-750h-84v500h-83zM667 300h166v167h-166v-167zM667 550h166v167h-166v-167zM167 633v167h83v-167h-83z" />
    <glyph glyph-name="uni4F0D" unicode="&#x4f0d;" 
d="M250 -117v84h167v250h83v-250h250v416h-167v-166h-83v166h-167v84h250v250h-250v83h584v-83h-250v-250h166v-500h84v-84h-667zM0 383v84h83v166h84v-750h-84v500h-83zM167 633v167h83v-167h-83z" />
    <glyph glyph-name="uni4F0E" unicode="&#x4f0e;" 
d="M250 -117v84h250v-84h-250zM333 383v84h250v166h-416v-750h-84v500h-83v84h83v166h84v167h83v-83h333v166h84v-166h250v-84h-250v-166h166v-334h-83v-166h167v-84h-167v84h-250v166h83v-83h84v83h83v250h-417zM500 133h-83v167h83v-167z" />
    <glyph glyph-name="uni4F0F" unicode="&#x4f0f;" 
d="M250 -117v84h167v-84h-167zM0 383v84h83v166h84v-750h-84v500h-83zM250 467v83h333v333h84v-333h250v-83h-250v-250h83v-167h83v-83h84v-84h-84v84h-83v83h-83v167h-84v-167h-83v-83h-83v83h83v167h83v250h-333zM750 717v83h83v-83h84v-84h-84v84h-83zM167 633v167h83
v-167h-83z" />
    <glyph glyph-name="uni4F10" unicode="&#x4f10;" 
d="M250 -117v84h167v-84h-167zM0 383v84h83v166h84v-750h-84v500h-83zM250 467v83h250v333h83v-333h334v-83h-250v-250h83v-167h83v-83h84v-84h-84v84h-83v83h-167v-83h-166v83h166v83h84v84h-84v250h-333zM750 717v83h83v-83h84v-84h-84v84h-83zM750 217v83h83v-83h-83z
M833 300v83h84v-83h-84zM167 633v167h83v-167h-83z" />
    <glyph glyph-name="uni4F11" unicode="&#x4f11;" 
d="M250 50v83h83v-83h-83zM0 383v84h83v166h84v-750h-84v500h-83zM667 217v-334h-84v417h-83v-83h-83v-84h-84v84h84v83h83v83h83v167h-333v83h333v250h84v-250h250v-83h-250v-250h83v-83h83v-84h84v-83h-84v83h-83v84h-83zM250 633h-83v167h83v-167z" />
    <glyph glyph-name="uni4F1A" unicode="&#x4f1a;" 
d="M0 217v83h917v-83h-167v-167h83v-167h-83v167h-83v-83h-167v-84h-333v167h83v-83h250v83h167v167h-334v-167h-83v167h-250zM0 383v84h83v-84h-83zM833 467h84v-84h-84v84zM833 467h-83v83h83v-83zM667 467h-417v83h417v-83zM83 467v83h84v-83h-84zM750 550h-83v83h83v-83
zM250 550h-83v83h83v-83zM667 633h-84v84h84v-84zM250 633v84h83v-84h-83zM583 717h-250v83h250v-83z" />
    <glyph glyph-name="uni4F1C" unicode="&#x4f1c;" 
d="M250 133v84h333v166h84v-166h250v-84h-250v-250h-84v250h-333zM0 383v84h83v166h84v-750h-84v500h-83zM333 633v84h167v166h83v-166h250v-250h84v-84h-167v250h-167v-166h-83v-167h-83v167h83v166h-167zM167 633v167h83v-167h-83z" />
    <glyph glyph-name="uni4F1D" unicode="&#x4f1d;" 
d="M333 383v84h584v-84h-334v-166h-83v-167h-83v-83h250v-84h-334v167h84v167h83v166h-167zM0 383v84h83v166h84v-750h-84v500h-83zM417 717v83h416v-83h-416zM917 50v-167h-84v167h84zM667 -33v83h83v-83h-83zM833 50h-83v167h83v-167zM167 633v167h83v-167h-83z" />
    <glyph glyph-name="uni4F2F" unicode="&#x4f2f;" 
d="M0 383v84h83v166h84v-750h-84v500h-83zM917 -117h-584v750h167v84h83v-84h334v-750zM417 -33h416v250h-416v-250zM417 300h416v250h-416v-250zM167 633v167h83v-167h-83zM583 717v166h84v-166h-84z" />
    <glyph glyph-name="uni4F30" unicode="&#x4f30;" 
d="M0 383v84h83v166h84v-750h-84v500h-83zM333 550v83h250v250h84v-250h250v-83h-250v-250h250v-417h-584v417h250v250h-250zM417 -33h416v250h-416v-250zM167 633v167h83v-167h-83z" />
    <glyph glyph-name="uni4F34" unicode="&#x4f34;" 
d="M333 133v84h250v166h-250v84h250v416h84v-416h250v-84h-250v-166h250v-84h-250v-250h-84v250h-250zM0 383v84h83v166h84v-750h-84v500h-83zM750 550v83h83v-83h-83zM333 633v84h84v-84h83v-83h-83v83h-84zM833 633v84h84v-84h-84zM167 633v167h83v-167h-83z" />
    <glyph glyph-name="uni4F36" unicode="&#x4f36;" 
d="M667 -33v83h166v-83h-166zM250 217v83h667v-250h-84v167h-250v-334h-83v334h-250zM0 383v84h83v166h84v-750h-84v500h-83zM833 467h-500v166h84v-83h416v-83zM833 550v83h84v-83h-84zM833 633h-83v84h83v-84zM417 633v84h83v-84h-83zM167 633v167h83v-167h-83zM750 717
h-250v83h250v-83z" />
    <glyph glyph-name="uni4F38" unicode="&#x4f38;" 
d="M0 383v84h83v166h84v-750h-84v500h-83zM667 133v-250h-84v250h-250v584h250v166h84v-166h250v-584h-250zM667 217h166v166h-166v-166zM417 217h166v166h-166v-166zM667 467h166v166h-166v-166zM417 467h166v166h-166v-166zM167 633v167h83v-167h-83z" />
    <glyph glyph-name="uni4F3A" unicode="&#x4f3a;" 
d="M750 -117v84h83v750h-500v83h584v-917h-167zM0 383v84h83v166h84v-750h-84v500h-83zM333 467v83h334v-83h-334zM667 50h-334v333h334v-333zM417 133h166v167h-166v-167zM167 633v167h83v-167h-83z" />
    <glyph glyph-name="uni4F3C" unicode="&#x4f3c;" 
d="M333 -117v84h167v-84h-167zM0 383v84h83v166h84v-500h166v-83h-166v-167h-84v500h-83zM500 550v83h83v-83h84v-83h-84v83h-83zM917 50v-167h-84v167h84zM500 -33v83h83v-83h-83zM833 50h-83v83h83v-83zM583 50v83h84v-83h-84zM750 133h-83v167h83v-167zM500 133h-167v667
h84v-583h83v-84zM750 300v500h83v-500h-83zM167 633v167h83v-167h-83z" />
    <glyph glyph-name="uni4F3D" unicode="&#x4f3d;" 
d="M333 -117v84h167v-84h-167zM0 383v84h83v166h84v-750h-84v500h-83zM917 -117h-250v834h250v-834zM833 -33v666h-83v-666h83zM500 -33v583h-83v-333h-84v-167h-83v167h83v333h-83v83h83v250h84v-250h166v-666h-83zM250 633h-83v167h83v-167z" />
    <glyph glyph-name="uni4F43" unicode="&#x4f43;" 
d="M0 383v84h83v166h84v-750h-84v500h-83zM917 -117h-584v917h584v-917zM667 -33h166v333h-166v-333zM417 -33h166v333h-166v-333zM667 383h166v334h-166v-334zM417 383h166v334h-166v-334zM167 633v167h83v-167h-83z" />
    <glyph glyph-name="uni4F46" unicode="&#x4f46;" 
d="M333 -117v84h584v-84h-584zM0 383v84h83v166h84v-750h-84v500h-83zM917 133h-500v667h500v-667zM500 217h333v250h-333v-250zM500 550h333v167h-333v-167zM167 633v167h83v-167h-83z" />
    <glyph glyph-name="uni4F47" unicode="&#x4f47;" 
d="M500 -117v84h167v333h-334v83h584v-83h-167v-417h-250zM0 383v84h83v166h84v-750h-84v500h-83zM917 717v-250h-84v166h-416v-166h-84v250h250v166h84v-166h250zM167 633v167h83v-167h-83z" />
    <glyph glyph-name="uni4F4D" unicode="&#x4f4d;" 
d="M250 -117v84h417v166h83v-166h167v-84h-667zM0 383v84h83v166h84v-750h-84v500h-83zM750 133v334h83v-334h-83zM500 467v-417h-83v417h83zM917 550h-667v83h333v250h84v-250h250v-83zM250 633h-83v167h83v-167z" />
    <glyph glyph-name="uni4F4E" unicode="&#x4f4e;" 
d="M250 -117v84h667v-84h-667zM0 383v84h83v166h84v-750h-84v500h-83zM583 50h-250v667h417v-250h167v-84h-84v-166h84v-167h-84v167h-83v166h-333v-250h166v-83zM417 467h250v166h-250v-166zM167 633v167h83v-167h-83zM917 717h-167v83h167v-83z" />
    <glyph glyph-name="uni4F4F" unicode="&#x4f4f;" 
d="M250 -117v84h333v250h-250v83h250v250h-333v83h667v-83h-250v-250h250v-83h-250v-250h250v-84h-667zM0 383v84h83v166h84v-750h-84v500h-83zM500 800v83h83v-83h84v-83h-84v83h-83zM250 633h-83v167h83v-167z" />
    <glyph glyph-name="uni4F50" unicode="&#x4f50;" 
d="M333 -117v84h334v333h-250v-83h-84v-167h-83v167h83v166h84v250h-250v-750h-84v500h-83v84h83v166h84v167h83v-83h250v166h83v-166h334v-84h-417v-250h417v-83h-167v-333h167v-84h-584z" />
    <glyph glyph-name="uni4F51" unicode="&#x4f51;" 
d="M0 383v84h83v166h84v-416h166v-84h-166v-250h-84v500h-83zM333 633v84h250v166h84v-166h250v-84h-250v-166h-84v-84h334v-500h-500v334h-84v83h84v83h83v84h83v166h-250zM500 -33h333v333h-333v-333zM167 633v167h83v-167h-83z" />
    <glyph glyph-name="uni4F53" unicode="&#x4f53;" 
d="M250 133v84h83v-84h250v250h-83v-83h-83v-83h-84v83h84v83h83v84h83v83h-333v83h333v250h84v-250h250v-83h-250v-167h83v-83h83v-83h84v-84h-84v-83h-166v-167h-84v167h-250v83h-83zM0 383v84h83v166h84v-750h-84v500h-83zM667 133h166v84h-83v83h-83v-167zM250 633h-83
v167h83v-167z" />
    <glyph glyph-name="uni4F55" unicode="&#x4f55;" 
d="M583 -117v84h167v750h-417v83h584v-83h-84v-834h-250zM0 383v84h83v166h84v-750h-84v500h-83zM583 133h-250v417h250v-417zM500 217v250h-83v-250h83zM167 633v167h83v-167h-83z" />
    <glyph glyph-name="uni4F57" unicode="&#x4f57;" 
d="M0 383v84h83v166h84v-750h-84v500h-83zM917 -117h-417v84h333v83h84v-167zM500 -33h-83v500h83v-167h167v-83h-167v-250zM833 300h-166v83h166v-83zM417 467h-84v250h250v166h84v-166h250v-250h-84v166h-416v-166zM167 633v167h83v-167h-83z" />
    <glyph glyph-name="uni4F59" unicode="&#x4f59;" 
d="M250 -117v84h167v250h-334v83h334v167h-167v83h417v-83h-167v-167h333v-83h-333v-334h-250zM0 -33v83h83v-83h-83zM750 50v83h83v-83h84v-83h-84v83h-83zM0 383v84h83v-84h-83zM83 50v83h84v-83h-84zM833 467h84v-84h-84v84zM833 467h-83v83h83v-83zM83 467v83h84v-83
h-84zM750 550h-83v83h83v-83zM250 550h-83v83h83v-83zM667 633h-84v84h84v-84zM250 633v84h83v-84h-83zM583 717h-250v83h250v-83z" />
    </font>
</defs>
</svg>
