<svg xmlns="http://www.w3.org/2000/svg" width="512" height="512" style="enable-background:new 0 0 512 512" xml:space="preserve"><path d="M444.07 67.946H302.344c-13.613 0-26.409 5.301-36.034 14.927L65.872 283.312c-9.626 9.625-14.927 22.422-14.927 36.034s5.301 26.409 14.927 36.034L207.596 497.1c9.934 9.934 22.984 14.9 36.033 14.9s26.099-4.967 36.033-14.902l200.44-200.44c9.626-9.626 14.927-22.422 14.927-36.034v-141.72c0-28.098-22.86-50.958-50.959-50.958zM376.124 237.81c-28.099 0-50.959-22.86-50.959-50.959s22.86-50.959 50.959-50.959 50.959 22.86 50.959 50.959-22.86 50.959-50.959 50.959z" fill="#eceff1" data-original="#000000" xmlns="http://www.w3.org/2000/svg"/><path d="M410.097 0H268.371c-13.613 0-26.409 5.301-36.034 14.927L31.899 215.366c-9.626 9.625-14.927 22.422-14.927 36.034 0 10.647 3.256 20.788 9.276 29.31a85.078 85.078 0 0 1 15.603-21.422L242.288 58.849c16.041-16.041 37.369-24.876 60.056-24.876h141.724c4.942 0 9.78.448 14.493 1.263C451.918 14.81 432.709 0 410.097 0z" fill="#eceff1" data-original="#000000" xmlns="http://www.w3.org/2000/svg"/></svg>