<svg xmlns="http://www.w3.org/2000/svg" width="512" height="512" viewBox="0 0 24 24" style="enable-background:new 0 0 512 512" xml:space="preserve"><path xmlns="http://www.w3.org/2000/svg" d="M21.534 7.113A9.822 9.822 0 0 0 24 4.559v-.001c-.893.391-1.843.651-2.835.777a4.894 4.894 0 0 0 2.165-2.719 9.845 9.845 0 0 1-3.12 1.191 4.919 4.919 0 0 0-8.511 3.364c0 .39.033.765.114 1.122-4.09-.2-7.71-2.16-10.142-5.147a4.962 4.962 0 0 0-.674 2.487c0 1.704.877 3.214 2.186 4.089A4.863 4.863 0 0 1 .96 9.116v.054a4.943 4.943 0 0 0 3.942 4.835c-.401.11-.837.162-1.29.162-.315 0-.633-.018-.931-.084.637 1.948 2.447 3.381 4.597 3.428a9.89 9.89 0 0 1-6.101 2.098c-.403 0-.79-.018-1.177-.067a13.856 13.856 0 0 0 7.548 2.208c8.683 0 14.342-7.244 13.986-14.637z" fill="#fff" data-original="#000000"/></svg>