<svg id="icons" height="512" viewBox="0 0 500 500" width="512" xmlns="http://www.w3.org/2000/svg"><path d="m460.324 107.174c-78.789 31.726-138.594 76.883-146.757 105.833-4.544 15.689-10.967 28.747-19.1 38.861-4.657-11.09-18.475-15.229-26.172-4.324a23.065 23.065 0 0 0 -4.135.076c-.167-5.006-.29-14.192-.466-24.846a31.68 31.68 0 0 0 2.941-6.82 21.928 21.928 0 0 0 6.832-2.961c21.558 4.537 32.82-21.572 21.04-35.431 6.068-10.593 2.5-20.074-2.083-25.9a32 32 0 0 0 3.924-2.888c3.916-3.709-1.756-9.154-5.436-5.238-.269-13.185-15.1-22-25.376-18.99-8.717-16.754-34.477-17.31-45.149-.857-13.264 1-23.1 9.4-23.925 21.037-4.179-2.624-4.7-5.653-8.722-3.048-3.217 3.913-.1 6.011 5.056 9.571-9.345 8.921-11.585 22.14-1.55 30.8-2.716 6.675-2.941 12.411-.66 17.081 2.858 5.854 8.7 7.809 10.365 8.259a51.118 51.118 0 0 1 9.924 5.4c3.05 11.258 14.336 22.686 22.644 24.954-.052 2.854-.171 6.241-.43 9.621-4.174-1.4-10.617-2.2-19.218.678-5.064 1.677-8.332-.109-13.511-1.749a117.609 117.609 0 0 1 -11.861-23.86c-2.836-7.647-9.071-16.293-15.883-22.027-1.807-1.521-3.757-3.105-5.8-4.711-3.862-3.009-8.483 2.839-4.638 5.9 18 13.133 17.645 22.389 26.584 39.815-7.424-3.643-31.2-17.747-32.251-29.767-.212-4.869-3.55-18.361-7.29-29.464-3.129-9.289-5.607-22.47-7.375-39.2 3.907-1.906 16.3-16.832 10.384-25.539a51.208 51.208 0 0 0 15.608-6.956c13.942 15.072 28.907 5.948 34.634-3.869a3.773 3.773 0 0 0 -1.562-5.261c-7.535-3.743-14.067-4.716-19.39-4.4a49.579 49.579 0 0 0 8.385-22.862c20.9-2.728 25.895-20.025 22.495-32.172a3.751 3.751 0 0 0 -4.606-2.578c-8.67 2.405-14.345 6.539-18.071 11.041-2.253-24.085-23.342-26.646-23.578-26.671a3.751 3.751 0 0 0 -4.059 2.915c-4.566 17.941 6.062 31.29 20.414 34.886a70.69 70.69 0 0 1 -.093 12.2c-3.334-6.1-9.621-9.908-18.715-11.432a3.749 3.749 0 0 0 -4.333 3.2c-1.059 7.93.855 23.2 14.209 29.627a43.655 43.655 0 0 1 -10.795 9.7c2.567-10.168-4.944-20.864-5.279-21.332-3.6-4.355-8.28 1.5-10.558 4.439-2.945 4.626 3.968 8.491 6.6 3.708 3.259 6.269 3.853 14.729-4.367 18.2a10.688 10.688 0 0 0 -9.66-10.6 119.7 119.7 0 0 0 -23.355-.045c-6.388.587-10.368 6.5-9.682 12.66a60.273 60.273 0 0 1 -6.872-1.838c3.839-5.134 5.647-10.487 5.377-15.963-.808-10.647-8.372-18.4-11.028-17.691a3.744 3.744 0 0 0 -2.574 1.369c-6.525 8.091-9.253 15.723-7.92 23.23-7.59-6.574-14.3-17.97-15.035-27.178.482-2.619 3.435-14.916 16.938-19.438-.065 4.621-1.207 11.814-7.27 14.726-4.4 2.2-1.234 8.825 3.248 6.761 14.285-6.861 11.328-26.033 11.2-26.845-1.567-8.109-18.551 2.266-20.681 4.614a55.4 55.4 0 0 1 11.07-15.911c9.922-.2 17.737-3.074 23.231-8.559 8.049-8.487 8.958-19.3 6.694-20.967a3.763 3.763 0 0 0 -2.678-1.072c-18.8-.3-33.125 9.662-32.616 25.4a66.657 66.657 0 0 0 -7.696 9.624c-2.448-9.468-9.118-15.756-19.8-19.527a3.748 3.748 0 0 0 -4.77 2.307c-.088.249-8.218 24.577 15.949 38.483a42.087 42.087 0 0 0 1.182 18.6c-5.956-2.3-13.3-2.8-21.734.688a3.748 3.748 0 0 0 -2.105 4.7c3.627 10.719 17.045 24.418 35.017 14.3a50.931 50.931 0 0 0 16.009 12.339c-2.943 1.11-17.854 10.089-11.124 14.961 5.037 3.4 22.219 10.058 29.909-1.192 1.8 3.7 5.526 6.553 5.412 11.012.182 4.616.544 13.205 1.088 23.538a431.429 431.429 0 0 0 -76.442-31.606c-9.286-2.842-19.109.707-22.36 8.08-2.065 4.681-1.357 11.346 6.041 16.966-7.083 7.4-2.807 20.129 5.535 26.08-5.18 9.3-.562 17.749 9.235 25.857-7.275 12.394.7 21.256 12.384 27.413a16.7 16.7 0 0 0 -3.671 14.228c2.654 13.673 18.647 17.473 25.812 18.493 2.189 14.26 15.622 20.649 32.8 21.031 2.365 12.683 14.718 18.468 29.782 18.2 1.834 9.641 11.528 14.683 22.7 12.867 2.106 11.63 14.392 14.122 25.08 10.682 2.134 3.489 5.333 5.048 9.475 6.717.989 4.283 4.3 9.879 12.263 12.047l.643 9.188c-5.11 6.222-38.462 50.741-37.216 104.762a26.874 26.874 0 0 0 3.31 2.459c18.75 14.929 88.372 32.6 147.62 25.56 8.516 2.44 3.991-77.2-38.762-129.03l3.3-15.7c6.484-3.268 26.089-15.8 15.68-43.882a10.822 10.822 0 0 1 .057-7.478l7.085-19.282c3.343 3.726 6.988 9.613 9.413 18.771 3.525 11.263 12.666 57.73 19.117 66.838 5.219 8.775 17.918 33.327 23.143 71.693 1.006 11.73 10.077 15.215 15.979 23.535 4.414 7.063 6.058 16.327 3.661 20.65-.7 1.65-3.517 2.86-4.988 1.522a1.676 1.676 0 0 1 -.4-1.347c1.012-7.379.179-12.692-2.547-16.242-4.727-5.62-13.961-7.179-14.881 3.447-.106 1.708-.664 1.989-3.418 2.79-.87-2.766-1.549-5.726-.666-8.608 4.453-19.813 1.325-29.864-15.877-54.567a61.884 61.884 0 0 1 -12.257-31.643 37.085 37.085 0 0 0 -6.118-17.076l-8.752-13.1a3.75 3.75 0 0 0 -6.236 4.167c4.705 7.446 13.369 17.587 13.639 26.71 1.566 34.765 37.788 50.138 28.363 83.549a19.129 19.129 0 0 0 -.008 10.109l1.618 5.866a3.744 3.744 0 0 0 4.351 2.68c4.721-.782 12.751-2.47 12.924-10.808 2.569 1.491 3.236 4.056 2.432 11.715a9.206 9.206 0 0 0 9.044 10.419c17-.931 13.666-23.219 6.47-34.2-4.493-7.691-14.165-11.1-14.907-20.572-5.215-38.3-17.354-63.125-24.126-74.514-4.707-7.156-7.221-21.978-9.528-30.158 10.573 1.983 20.3-3.032 21.326-13.433 11.628 1.3 21.217-4.834 22.271-14.951 15.526-.5 27.793-7.825 29.135-21.021 17.477-1.235 31.05-9.405 32.025-24.187 7.2-1.48 23.255-6.395 25.071-20.965a18.013 18.013 0 0 0 -4.817-14.87c11.817-7.3 19.239-17.272 10.924-29.772 9.589-9.184 13.779-18.549 7.741-27.948 8.417-6.6 11.63-21.659 3.906-27.916 16.077-14.424.156-31.892-17.947-25.35zm-254.554-59.241c.875 9.082-4.825 16.709-15.335 18.448.79-5.117 3.865-13.781 15.335-18.448zm-34.111-2.118c-2.525-3.689-3.489-8.323-2.881-13.811 4.948 1.719 13.249 6.8 13.631 21.605-3.301-1.199-7.826-3.521-10.75-7.794zm21.66 60.426c-5.133 5.906-12.7 6.6-19.09.016 3.693-1.636 10.239-3.189 19.09-.016zm-26.641-35.579c9 2.337 12.112 10.295 10.311 17.771-8.357-3.949-10.076-12.573-10.311-17.771zm-78.044-48.714c3.458-4.039 9.24-6.437 17.225-7.152-1.942 8.81-10.349 14.858-20.715 15.276a15.142 15.142 0 0 1 3.49-8.124zm-37.1 9.331c10.255 4.511 13.33 15.009 10.938 24.008-11.197-7.771-11.672-18.343-10.941-24.008zm5.153 65.7c-4.583-1.589-7.649-5.669-9.361-8.657 10.85-2.722 18.146 3.317 21.613 7.288-4.562 2.145-8.672 2.606-12.255 1.365zm37.834-10.879c4.079 5.467 3.977 13.466-.983 19.488-4.407-5.482-3.533-12.748.983-19.488zm4.818 39.713c-3.706 1.712-8.869.407-12.688-1.155a23.125 23.125 0 0 1 17.675-5.514c-1.038 3.377-2.709 5.614-4.987 6.667zm107.961 54.587 1.382 21.023c.031.462.094.917.137 1.377q-2.379-1.221-5.176-2.421c-7.681-1.8-9.027-8.8-4.4-17.834a3.769 3.769 0 0 0 -1.354-4.814c-9.456-6.195-6.084-16.529 2.442-23.068 3.385.688 12.985 4.075 13.454-2.319-.14-5.217-6.83-3.257-9.931-4.491-.611-9.814 7.111-16.372 18.916-16.847a3.774 3.774 0 0 0 2.963-1.831c.06-.1 6.071-9.995 15.635-9.995 12.251 0 16.244 5.474 18.735 11.389a3.779 3.779 0 0 0 5.093 1.919c.29-.135 7.185-3.286 14 2.76a12.386 12.386 0 0 1 3.826 12.734 48.531 48.531 0 0 1 -16.65 2.905c-4.9-.065-5.208 7.217-.271 7.5a53.965 53.965 0 0 0 19.367-3.3c3.044 3.237 8.248 10.918 1.3 20.679a3.778 3.778 0 0 0 .547 4.963c.266.242 6.458 6.017 3.886 14.593-1.382 4.609-4.4 9.585-10.889 10.471 5.872-9.63.563-19.308-5.166-21.628-2.844-.949-6.424 0-8.572.875.114-2.71.17-5.74-3.15-6.362-6.674-.768-8.568-5.857-7.681-9.839a3.778 3.778 0 0 0 -3.794-4.631c-12.211.837-15.9-7.114-13.656-14.462 1.435-4.815-5.735-7.014-7.2-2.186a23.9 23.9 0 0 0 -.771 4.48c-23.256 9.815-23.055 27.228-23.022 28.36zm15.618 39.856a37.214 37.214 0 0 1 -6.751-19.326l-1.375-20.9c.019-1.143.618-12.725 16.345-20.162 2.231 6.87 8.928 11.308 16.957 11.757a14.841 14.841 0 0 0 10.978 13.721v10.707c.056 4.826 7.222 5.035 7.494.207.106-1.484.91-4.815 6-4.968 7.2 4.93-.561 17-8.975 17.616a3.876 3.876 0 0 0 -3.736 3.237c-.1.629-2.58 15.306-20.876 19.317-1.911-.286-9.45-1.992-16.064-11.205zm-108.947-100.71v-9.664a3.253 3.253 0 0 1 2.944-3.234 112.109 112.109 0 0 1 21.858.047c2.663.314 3.091 2.723 2.9 4.986h-18.055a3.75 3.75 0 0 0 -3.75 3.75v4.178a10.959 10.959 0 0 0 10.689 10.9c4.959 0 5.055-7.321.147-7.5a3.47 3.47 0 0 1 -3.336-3.83h14.832a4.109 4.109 0 0 1 3.947 5.253c-3.175 9.938-9.548 13.011-9.781 13.12a3.752 3.752 0 0 0 -2.219 3.8c1.836 18.416 4.519 32.954 7.973 43.21 3.694 10.969 6.745 23.733 6.905 27.4a19.544 19.544 0 0 0 4.551 11.674c18.24 21.2 49.772 36.091 62.678 31.516 8.2-2.746 13.433-1.3 15.881-.143l-.713 4.095c-.765 4.854 6.445 6.145 7.388 1.287a119.749 119.749 0 0 0 2.192-21.7 36.661 36.661 0 0 0 15.325-7.227c.186 12.627.475 20.989.478 21.089.27 3.66 3.869 4.26 6.673 2.808-9.851 14.932-30.426 39.433-66.893 56.015a23.189 23.189 0 0 1 3.286-6.273c7.892-11.192 8.164-13.347 13.429-22.242 2.349-4.327-4.036-7.944-6.532-3.686l-4.193 7.429c-26.453-13.593-51.244-34.366-70.082-53.527a19.913 19.913 0 0 1 -5.371-11.245c-3.387-26.173-5.312-70.427-5.822-83.367a18.526 18.526 0 0 0 -3.937-10.739 12.244 12.244 0 0 1 -3.392-8.18zm58.235 168.554c-4.532 1.985-18.2 6.048-21.417-1.071-2.418-5.343 2.83-8.418 3.885-8.97a3.753 3.753 0 0 0 -2.056-7.079c-18.779 1.838-31.419-3.8-32.356-10.079-.716-4.8 3.025-7.033 4.579-7.745l19.562 1.582c14.7 12.95 34.658 28.392 54.45 38.395-2.365 4.329-6.376 8.439-8.721 14.072-3.451.647-7.07-.385-10.523-3.054-5.9-4.561-3.286-9.678-2.723-10.624 1.983-2.99-1.439-6.944-4.68-5.427zm-65.393-63.319c5.815 3.265 10.325 6.255 16.486 8.5 3.306 5.33 7.039 8.187 12.062 13.2l-10.614-.859c-1.735-.324-20.607-4.14-21.017-16.377a4.189 4.189 0 0 1 3.083-4.466zm-18.431-24.376c-2.873-3.238-4.8-6.67-3.945-8.355 3.29-7.424 14.2-4.354 14.654-4.223a114.091 114.091 0 0 1 17.776 5.851c.846 10.818 1.7 21.05 2.94 29.843-10.682-5.421-24.614-15.054-31.425-23.116zm-65.428-58.605c1.5-3.393 7.006-5.86 13.3-3.935a422.813 422.813 0 0 1 79.121 33.225c.267 4.617.565 9.426.895 14.281-8.176-2.8-14.888-5.837-23.853-5.72-15.727-7.819-30.725-14.075-42.812-19.115-10.805-5.122-29.359-9.813-26.651-18.736zm3.277 24.922c-.561-3.536.339-5.625 2.951-6.859 16.3 7.484 34.09 14.034 53.07 23.182-3.828 2.853-6.8 8.235-4.9 13.421-21.185-6.9-41.43-18.211-42.229-18.661-3.589-2.093-8.038-5.715-8.892-11.083zm56 107.317a13.175 13.175 0 0 1 -3.131-5.839c5.647-.046 15.973-.38 24.076-2.059 4.8-1.08 3.331-8.261-1.522-7.344-10.3 2.134-25.279 1.913-26.445 1.89-.77-.048-20.014-1.371-22.228-12.8a9.96 9.96 0 0 1 3.375-9.388 114.014 114.014 0 0 0 36.513 8.674 3.75 3.75 0 0 0 .473-7.485 105.4 105.4 0 0 1 -35.968-8.961c-5.669-2.492-14.495-7.924-15.437-11.672a10.05 10.05 0 0 1 1.37-7.474c6.54 2.853 23.773 9.881 39.361 11.594 4.584.016 5.058-6.917.45-7.472-17.1-2.093-36.414-10.788-39.1-12.026-9.938-7.6-12.691-12.553-9.982-17.915 7.347 3.952 28.649 14.865 49.37 20.3 4.155 4.767 11.69 10.8 16.538 14.2a11.3 11.3 0 0 0 -3.711 9.226c.413 12.333 11.587 18.536 19.546 21.4-8.609 11.561 1.176 23.992 16.838 26.708-23.392 5.154-39.487 6.204-50.384-3.557zm54.7 25.431c-10.33.514-17.954-1.409-22.049-5.57a11.984 11.984 0 0 1 -3.039-5.252 140.8 140.8 0 0 0 30.868-6.1c-.923 4.868 2.535 11.9 7.2 13.955-6.554 1.758-11.846 2.76-12.974 2.967zm7.214 10.932a8.444 8.444 0 0 1 -2.625-4.187 156.438 156.438 0 0 0 26.828-7.944 14.581 14.581 0 0 0 2.909 8.022c-9.717 6.581-20.777 8.543-27.106 4.107zm36.461 12.737c-6.456 1.924-11.259 1.872-13.954-.179a7.618 7.618 0 0 1 -2.644-4.7 41.939 41.939 0 0 0 12.892-6.86 20.775 20.775 0 0 0 11.35 3.51 10.948 10.948 0 0 0 -7.638 8.229zm45.463 155.619c-24.268-5.389-40.314-12.875-48.156-17.163 49.132-25.486 86.933-76.748 97.439-91.981q1.341 1.712 2.618 3.443c-.907 9.095-8.105 63.416-51.895 105.701zm87.758 5.383a337.783 337.783 0 0 1 -38.949.752c19.617-29.864 24.639-54.766 24.8-72.1a212.555 212.555 0 0 1 14.155 71.348zm-29.5-101.822q2.263 3.563 4.3 7.16c8 27.126 2.941 56.555-22.482 94.945a276.872 276.872 0 0 1 -31.246-3.866c35.578-36.385 46.295-79.081 49.432-98.239zm15.175-112.495-8.392 22.84a18.332 18.332 0 0 0 -.05 12.67c9.96 27.167-13.744 39.33-23.13 34.758q1.191-1.866 2.246-3.742c2.336-4.329-4.05-7.936-6.541-3.671-4.955 8.828-12.416 17.432-24.192 27.9-2.6 2.147-.82 6.678 2.492 6.554a3.733 3.733 0 0 0 2.49-.947 147.928 147.928 0 0 0 19.1-19.853 21.523 21.523 0 0 0 10.844 2.087l-2.818 13.422c-4.272 6.434-44.817 66.04-97.321 93.218a165.733 165.733 0 0 1 5.985-32.441 275.007 275.007 0 0 1 32.175-30.522c3.776-3.163-.837-8.868-4.721-5.828-7.634 6.183-14.855 12.638-21.586 19.294 8.062-17.829 9.51-25.887 31.163-40.3a93.66 93.66 0 0 0 22.526-19.2 3.75 3.75 0 0 0 -5.639-4.946 86.629 86.629 0 0 1 -22.39 18.72c0-.1.015-.195.009-.294l-.659-9.417a47.706 47.706 0 0 0 11.507-2.5c4.6-1.743 2.134-8.64-2.532-7.06-6.305 2.454-18 4.034-21.114-3.65a227.354 227.354 0 0 0 45.81-22.973 3.75 3.75 0 0 0 -4.146-6.25 221.266 221.266 0 0 1 -46.042 22.859c-3.113-1.138-7.138-2.662-6.675-5.722a3.2 3.2 0 0 1 2.019-2.5c51.683-20.01 76.25-55.843 84.413-70.321a6.534 6.534 0 0 1 10.439-1.2 18.773 18.773 0 0 1 3.143 4.778c-5.042 11.992-13.674 23.557-25.239 34.654a3.775 3.775 0 0 0 2.585 6.468 3.734 3.734 0 0 0 2.582-1.032c2.638-2.506 5.035-4.968 7.219-7.362-.745 6.427-2.07 15.984-3.328 21.735a3.75 3.75 0 0 0 7.34 1.545c1.733-8.151 3.15-19.4 4.1-28.276a22.79 22.79 0 0 1 2.681-8.539 90.245 90.245 0 0 0 8.184-14.387c3.977 1.38 7.14 5.018 5.467 9.431zm42.598 48.626c-2.51 2.2-7.158 2.567-13.437 1.109l-2.625-10.384a22.763 22.763 0 0 0 4.922-2.876 42.45 42.45 0 0 0 13.67 6.56 8.526 8.526 0 0 1 -2.53 5.591zm6.929-12.207c-.754-.16-7.684-1.706-12.848-5.4a15.616 15.616 0 0 0 2.57-8.985 155.08 155.08 0 0 0 28.017 6.912c-1.623 7.63-8.354 8.873-17.741 7.473zm21.881-14.453c-1.211-.16-6.941-.957-13.993-2.525 5.28-2.714 8.211-10.239 6.862-15.566a138.61 138.61 0 0 0 32.064 4.709c-2.363 10.238-11.743 13.034-24.935 13.382zm88.4-106.92c-2.634 1.458-21.732 11.8-39 15.008a3.75 3.75 0 0 0 .681 7.437c15.733-2.563 33.022-11.179 39.521-14.569a11.443 11.443 0 0 1 1.959 8.169c-.741 4.151-9.234 10.338-15.027 13.405a103.692 103.692 0 0 1 -36 11.576c-4.6.606-4.177 7.435.453 7.472a111.565 111.565 0 0 0 37.047-11.326 11.146 11.146 0 0 1 4.132 10.058c-1.54 12.362-21 14.9-21.836 15-1.139.086-16.394 1.195-27.014-.472-4.874-.686-6.027 6.561-1.163 7.409 7.6 1.2 17.5 1.142 24.787.783-3.848 18.24-30.675 18.119-55.113 13.3 16.61-3.692 26.314-17.661 16.291-29.392 7.912-3.433 19.094-10.617 18.73-23.724a11.948 11.948 0 0 0 -4.559-9.558c4.746-3.89 12.244-10.906 16.19-16.239 20.714-6.957 41.667-19.738 48.91-24.365 3.83 6.724-.999 12.792-8.99 20.028zm15.81-40.378c-.537 5.847-4.866 9.988-8.406 12.433-.757.5-20.752 13.753-41.941 22.293 1.765-5.847-1.483-11.225-6.027-14.263 19.273-11.135 36.554-18.886 52.854-27.865 1.954.825 3.97 2.491 3.519 7.402zm-3.684-16.12c-34.794 19.935-81.977 38.372-117.664 75.573-3.331 3.545 2.037 8.721 5.448 5.154 14.422-15.243 33.171-28.438 51.385-39.379 3.076.595 5.546 1.934 6.874 4.785.946 1.9-.433 5.2-3.258 9.116-4.549 6.269-12.278 13.619-20.467 19.77a144.7 144.7 0 0 1 -22.2 12.385 3.75 3.75 0 0 0 2.946 6.9 148.965 148.965 0 0 0 22.214-12.261 4.7 4.7 0 0 1 3.546 4.8c.368 13.2-18.889 18.4-20.435 18.8l-12.771 2.095c-4.478.712-3.9 7.483.6 7.451a3.751 3.751 0 0 0 .612-.05l11.975-1.965a7.947 7.947 0 0 1 5.211 8.226c-.572 6.937-12.808 13.589-32.313 12.725a3.761 3.761 0 0 0 -3.795 2.85 3.8 3.8 0 0 0 2.052 4.3c1.165.549 6.865 3.6 4.645 9.681a6.3 6.3 0 0 1 -3.536 3.785c-5.5 2.471-14.066.117-19.119-1.55a3.76 3.76 0 0 0 -3.936 5.007c2.468 3.6 3.563 10.457-5.285 15.207-1.742-7.824-4.994-19.253-8.871-24.77a115.715 115.715 0 0 0 26.975-40.346 3.75 3.75 0 1 0 -6.963-2.785 108.331 108.331 0 0 1 -24.514 37.066 35.689 35.689 0 0 0 -3.369-3.3 14.032 14.032 0 0 0 -6.381-12c8.408-10.753 15.041-24.368 19.728-40.547 7.415-25.958 66.113-70.457 142.235-100.92 6.144-2.352 11.92-.089 13.751 3.358 1.727 3.255-.262 7.307-5.321 10.839z"/><path d="m455.016 331.648c-19.964 5.779-39.934-2.314-55.122 14.987a66.55 66.55 0 0 1 -10.843-3.778 3.75 3.75 0 0 0 -3.1 6.83 74.819 74.819 0 0 0 13.729 4.613c24.389 19.376 56.547 21 67.66-11.007 2.825-7.199-5.316-14.317-12.324-11.645zm5.28 9.072c-5.922 19.011-23.92 25.118-42.859 15.788a93.432 93.432 0 0 0 21.194-1.982 3.75 3.75 0 0 0 -1.514-7.346 84.869 84.869 0 0 1 -28.215 1.191c3.98-3.057 11.051-6.566 22.582-6.566 11.5 0 19.734-.968 25.921-3.048 1.57-.513 3.283.521 2.895 1.963z"/><path d="m229.425 195.487-4.68-1.018c-4.831-.962-6.394 6.2-1.594 7.33.571.095 5 1.169 5.481 1.1 4.375.046 5.129-6.499.793-7.412z"/><path d="m243.846 202.9c.458.067 4.932-1.013 5.481-1.1 4.8-1.13 3.239-8.3-1.594-7.33l-4.68 1.018c-4.334.912-3.584 7.458.793 7.412z"/><path d="m146.579 380.145a3.751 3.751 0 0 0 -4.6-2.643 61.983 61.983 0 0 1 -15.624 2.2c-2.121-1.029-8.489-4.748-15.214-14.846-7.772-11.671-21.514-20.443-36.761-23.464-8.184-1.872-16.171 6.139-14.313 14.318 6.385 33.562 34.294 42.51 66.8 31.495a69.731 69.731 0 0 0 17.07-2.46 3.751 3.751 0 0 0 2.642-4.6zm-67.979-13.098a66.527 66.527 0 0 0 27.14 16.953c-8.905.695-16.407-.716-22.4-4.254-10.2-6.021-14.283-17.179-15.912-25.48a4.724 4.724 0 0 1 5.5-5.518c13.332 2.643 25.287 10.218 31.977 20.265a64.526 64.526 0 0 0 7.168 9 59.1 59.1 0 0 1 -27.864-15.95c-3.28-3.645-8.848 1.306-5.609 4.984z"/><path d="m318.925 91.556c15.637 15.588 50.022 24.285 81.148-2.914 5.9-5.939-.068-14.831-7.937-14.562a104.621 104.621 0 0 1 -19.313-2c-19.982-4.026-36.409-.334-53.03 11.927a54.435 54.435 0 0 1 -12.5-4.571c-4.39-2.237-7.834 4.238-3.518 6.624a62.9 62.9 0 0 0 15.15 5.496zm52.416-12.121a112.143 112.143 0 0 0 20.7 2.144c1.67.008 3.42 1.068 2.693 1.8-21.8 19.17-46.221 17.289-60.043 10.345a125.78 125.78 0 0 0 29.065-2.039 3.75 3.75 0 1 0 -1.315-7.384 114.853 114.853 0 0 1 -31.91 1.543c12.738-7.604 25.374-9.519 40.81-6.409z"/><path d="m225.971 372.223c-5.356.507-4.736 8.485.633 8.16 5.356-.507 4.737-8.483-.633-8.16z"/><path d="m343.619 216.536c-4.236 3.317.591 9.7 4.936 6.529 4.236-3.318-.591-9.7-4.936-6.529z"/></svg>