<svg xmlns="http://www.w3.org/2000/svg" width="512" height="512" viewBox="0 0 219.376 219.376" style="enable-background:new 0 0 512 512" xml:space="preserve"><path xmlns="http://www.w3.org/2000/svg" d="M127.518 0H40.63c-6.617 0-12 5.383-12 12v195.376c0 6.617 5.383 12 12 12h138.117c6.617 0 12-5.383 12-12V59.227c0-3.204-1.248-6.217-3.513-8.484L135.869 3.382A11.918 11.918 0 0 0 127.518 0zm48.229 204.376H43.63V15h71.767v40.236c0 8.885 7.225 16.114 16.106 16.114h44.244v133.026zM131.503 56.35c-.609 0-1.105-.5-1.105-1.114v-31.58l34.968 32.693h-33.863zM69.499 88.627h81.5v15h-81.5v-15zm0 25h81.5v15h-81.5v-15zm0 24.999h81.5v15h-81.5v-15zm0 25h46.5v15h-46.5v-15z" fill="#777" data-original="#000000"/></svg>